<?xml version="1.0" encoding="UTF-8"?>
<svg id="Layer_2" data-name="Layer 2" xmlns="http://www.w3.org/2000/svg" viewBox="0 0 166.69 135.01"><metadata><?xpacket begin="" id="W5M0MpCehiHzreSzNTczkc9d"?><x:xmpmeta xmlns:x="adobe:ns:meta/" x:xmptk="XMP Core 6.0.0"><rdf:RDF xmlns:rdf="http://www.w3.org/1999/02/22-rdf-syntax-ns#"><rdf:Description rdf:about="" xmlns:xmp="http://ns.adobe.com/xap/1.0/" xmlns:xmpMM="http://ns.adobe.com/xap/1.0/mm/" xmlns:dc="http://purl.org/dc/elements/1.1/" xmlns:dcterms="http://purl.org/dc/terms/" xmpMM:DocumentID="xmp.did:cb9f5498-bb58-4572-8043-8c369e6bfb9b" xmpMM:InstanceID="xmp.iid:cb9f5498-bb58-4572-8043-8c369e6bfb9b" dcterms:provenance="https://cai-manifests.adobe.com/manifests/urn-c2pa-953243fe-ff99-4f5e-a4c4-1bb38dd3448a-adobe"> </rdf:Description></rdf:RDF></x:xmpmeta>
<?xpacket end="w"?></metadata>
  <defs>
    <style>
      .cls-1 {
        fill: #130601;
      }

      .cls-2 {
        fill: #5b3928;
      }

      .cls-3 {
        fill: #936236;
      }

      .cls-4 {
        fill: #fbecc9;
      }

      .cls-5 {
        fill: #ce9f73;
      }

      .cls-6 {
        fill: #aa784b;
      }

      .cls-7 {
        fill: #c1905c;
      }

      .cls-8 {
        fill: #a37449;
      }

      .cls-9 {
        fill: #d8b485;
      }

      .cls-10 {
        fill: #f4eee0;
      }

      .cls-11 {
        fill: #5a3928;
      }

      .cls-12 {
        fill: #9f744d;
      }

      .cls-13 {
        fill: #5d4421;
      }

      .cls-14 {
        fill: #c89a67;
      }

      .cls-15 {
        fill: #9c7648;
      }

      .cls-16 {
        fill: #5e4029;
      }

      .cls-17 {
        fill: #85523b;
      }

      .cls-18 {
        fill: #683e2f;
      }

      .cls-19 {
        fill: #ae7a52;
      }

      .cls-20 {
        fill: #6c5938;
      }

      .cls-21 {
        fill: #905a3e;
      }

      .cls-22 {
        fill: #b98551;
      }

      .cls-23 {
        fill: #d5cfc7;
      }

      .cls-24 {
        fill: #764f33;
      }

      .cls-25 {
        fill: #d29d67;
      }

      .cls-26 {
        fill: #ad7c52;
      }

      .cls-27 {
        fill: #d1a068;
      }

      .cls-28 {
        fill: #9b6d47;
      }

      .cls-29 {
        fill: #725237;
      }

      .cls-30 {
        fill: #d7b485;
      }

      .cls-31 {
        fill: #72491e;
      }

      .cls-32 {
        fill: #bfae86;
      }

      .cls-33 {
        fill: #66412b;
      }

      .cls-34 {
        fill: #d1a877;
      }

      .cls-35 {
        fill: #5e412b;
      }

      .cls-36 {
        fill: #261810;
      }

      .cls-37 {
        fill: #d8b486;
      }

      .cls-38 {
        fill: #564531;
      }

      .cls-39 {
        fill: #c09d73;
      }

      .cls-40 {
        fill: #ebcd9c;
      }

      .cls-41 {
        fill: #2a1610;
      }

      .cls-42 {
        fill: #bbad8a;
      }

      .cls-43 {
        fill: #c7c0b6;
      }

      .cls-44 {
        fill: #c6a175;
      }

      .cls-45 {
        fill: #aca7a2;
      }

      .cls-46 {
        fill: #aa8056;
      }

      .cls-47 {
        fill: #986d48;
      }

      .cls-48 {
        fill: #daa766;
      }

      .cls-49 {
        fill: #c7925a;
      }

      .cls-50 {
        fill: #0f0904;
      }

      .cls-51 {
        fill: #dbc9a5;
      }

      .cls-52 {
        fill: #130700;
      }

      .cls-53 {
        fill: #f4e5c6;
      }

      .cls-54 {
        fill: #ddceaf;
      }

      .cls-55 {
        fill: #c7915a;
      }

      .cls-56 {
        fill: #b59b74;
      }

      .cls-57 {
        fill: #ffedb6;
      }

      .cls-58 {
        fill: #a67a50;
      }

      .cls-59 {
        fill: #39201a;
      }

      .cls-60 {
        fill: #c49e73;
      }

      .cls-61 {
        fill: #a9784e;
      }

      .cls-62 {
        fill: #c79864;
      }

      .cls-63 {
        fill: #554329;
      }

      .cls-64 {
        fill: #c8925c;
      }

      .cls-65 {
        fill: #8c5a3e;
      }

      .cls-66 {
        fill: #9e7349;
      }

      .cls-67 {
        fill: #996847;
      }

      .cls-68 {
        fill: #9e6a48;
      }

      .cls-69 {
        fill: #231d16;
      }

      .cls-70 {
        fill: #7d6041;
      }

      .cls-71 {
        fill: #ac774d;
      }

      .cls-72 {
        fill: #6f4d2d;
      }

      .cls-73 {
        fill: #503827;
      }

      .cls-74 {
        fill: #a1956d;
      }

      .cls-75 {
        fill: #674430;
      }

      .cls-76 {
        fill: #c3a076;
      }

      .cls-77 {
        fill: #785334;
      }

      .cls-78 {
        fill: #a37148;
      }

      .cls-79 {
        fill: #37261b;
      }

      .cls-80 {
        fill: #715a37;
      }

      .cls-81 {
        fill: #866137;
      }

      .cls-82 {
        fill: #6e4030;
      }

      .cls-83 {
        fill: #634123;
      }

      .cls-84 {
        fill: #5e4528;
      }

      .cls-85 {
        fill: #ddab74;
      }

      .cls-86 {
        fill: #83633f;
      }

      .cls-87 {
        fill: #523f29;
      }

      .cls-88 {
        fill: #785232;
      }

      .cls-89 {
        fill: #3f291c;
      }

      .cls-90 {
        fill: #6c4a2d;
      }

      .cls-91 {
        fill: #ab8458;
      }

      .cls-92 {
        fill: #e2b881;
      }

      .cls-93 {
        fill: #a06e47;
      }

      .cls-94 {
        fill: #784634;
      }

      .cls-95 {
        fill: #dcdcdb;
      }

      .cls-96 {
        fill: #66492f;
      }

      .cls-97 {
        fill: #4c4f2e;
      }

      .cls-98 {
        fill: #6c5a3d;
      }

      .cls-99 {
        fill: #c6a98a;
      }

      .cls-100 {
        fill: #e8cba9;
      }

      .cls-101 {
        fill: #8b5739;
      }

      .cls-102 {
        fill: #d8b17a;
      }

      .cls-103 {
        fill: #4a3225;
      }

      .cls-104 {
        fill: #6e5036;
      }

      .cls-105 {
        fill: #733f1a;
      }

      .cls-106 {
        fill: #522e23;
      }

      .cls-107 {
        fill: #6e4931;
      }

      .cls-108 {
        fill: #b59b73;
      }

      .cls-109 {
        fill: #ccc19e;
      }

      .cls-110 {
        fill: #be8f63;
      }

      .cls-111 {
        fill: #6b3b18;
      }

      .cls-112 {
        fill: #e0c79f;
      }

      .cls-113 {
        fill: #795339;
      }

      .cls-114 {
        fill: #644629;
      }

      .cls-115 {
        fill: #dcceab;
      }

      .cls-116 {
        fill: #a28a73;
      }

      .cls-117 {
        fill: #090704;
      }

      .cls-118 {
        fill: #7b492d;
      }

      .cls-119 {
        fill: #fbfaf7;
      }

      .cls-120 {
        fill: #ede8d8;
      }

      .cls-121 {
        fill: #6a4a2c;
      }

      .cls-122 {
        fill: #c2a075;
      }

      .cls-123 {
        fill: #b37d4f;
      }

      .cls-124 {
        fill: #c3a175;
      }

      .cls-125 {
        fill: #b58053;
      }

      .cls-126 {
        fill: #725f47;
      }

      .cls-127 {
        fill: #915d3f;
      }

      .cls-128 {
        fill: #533427;
      }

      .cls-129 {
        fill: #8c5f35;
      }

      .cls-130 {
        fill: #5c472a;
      }

      .cls-131 {
        fill: #edbc83;
      }

      .cls-132 {
        fill: #c19b6f;
      }

      .cls-133 {
        fill: #dab981;
      }

      .cls-134 {
        fill: #f1d399;
      }

      .cls-135 {
        fill: #bc9165;
      }

      .cls-136 {
        fill: #532e0d;
      }

      .cls-137 {
        fill: #56391d;
      }

      .cls-138 {
        fill: #714c30;
      }

      .cls-139 {
        fill: #44291b;
      }

      .cls-140 {
        fill: #775030;
      }

      .cls-141 {
        fill: #b0865b;
      }

      .cls-142 {
        fill: #d5c7b4;
      }

      .cls-143 {
        fill: #dbdcd9;
      }

      .cls-144 {
        fill: #603b2a;
      }

      .cls-145 {
        fill: #654622;
      }

      .cls-146 {
        fill: #87533c;
      }

      .cls-147 {
        fill: #683d2e;
      }

      .cls-148 {
        fill: #dbbe91;
      }

      .cls-149 {
        fill: #e7cc9f;
      }

      .cls-150 {
        fill: #552c1a;
      }

      .cls-151 {
        fill: #946042;
      }

      .cls-152 {
        fill: #a46e48;
      }

      .cls-153 {
        fill: #a57449;
      }

      .cls-154 {
        fill: #cea66b;
      }

      .cls-155 {
        fill: #cca26d;
      }

      .cls-156 {
        fill: #bb996d;
      }

      .cls-157 {
        fill: #ad8458;
      }

      .cls-158 {
        fill: #8c593f;
      }

      .cls-159 {
        fill: #b68b5b;
      }

      .cls-160 {
        fill: #bd8954;
      }

      .cls-161 {
        fill: #613a2c;
      }

      .cls-162 {
        fill: #704e2e;
      }

      .cls-163 {
        fill: #905b3d;
      }

      .cls-164 {
        fill: #bfb08f;
      }

      .cls-165 {
        fill: #7d4928;
      }

      .cls-166 {
        fill: #fdfdfd;
      }

      .cls-167 {
        fill: #bda589;
      }

      .cls-168 {
        fill: #b5835d;
      }

      .cls-169 {
        fill: #925d3f;
      }

      .cls-170 {
        fill: #d5b286;
      }

      .cls-171 {
        fill: #c2a176;
      }

      .cls-172 {
        fill: #c8935b;
      }

      .cls-173 {
        fill: #a97c55;
      }

      .cls-174 {
        fill: #cba470;
      }

      .cls-175 {
        fill: #7b5b3a;
      }

      .cls-176 {
        fill: #905e33;
      }
    </style>
  </defs>
  <g id="Layer_1-2" data-name="Layer 1">
    <g id="Generative_Object" data-name="Generative Object">
      <g>
        <path class="cls-120" d="M64.18,26.54l-.47.63-2.32,2.41-1.68,1.82c-.1.11-.27.22-.29.4-.37-.05-.56.3-.78.54-.31.33-.44.76-.91.74l-1.01-.09-33.5.11c-.27-.08-.5.07-.81.09l-1.71.13c-.99.08-2.18.39-2.74,1.4-.68,1.21-.6,2.64-.64,3.93l-.18,5.83-.06,4.45-.09,8.14.05.19c-.06-.02-.28-.03-.37.05l.02,23.98c-1.39.36-2.78.03-3.85-.93-1.34-1.21-1.86-2.94-1.65-4.74l.42-3.63c.04-.32-.05-.64-.3-.72-.94-.28-6.53,4.79-9.26,0s-2.66-10.22-.51-15.13c1.96-4.47,4.96-7.45,7.22-11.6-1.37-2.46-3.6-5.63-2.66-8.02.59-1.49,1.73-2.53,3.07-3.32,2.73-1.61,5.41-3.11,8.31-4.39,3.98-1.76,7.99-3.09,12.1-4.64,3.64-1.37,7.13-2.56,10.9-3.43,4.01-.93,7.8-.64,11.65.76,4.07,1.34,7.9,2.98,11.79,4.69.01.18.12.31.25.36Z"/>
        <path class="cls-10" d="M24.54,125.63c.16-.01.29.05.34.16.83,1.78,2.42,2.54,4.29,2.69,3.3.26,6.51.11,9.86-.01l19.28-.72,14.74.23,16.92-.02,24.7-.53,2.21-.49c2.83-.63,5.66-.51,8.54-.51h7.66s16.41.55,16.41.55l9.31.08c2.76.02,4.67-1.85,4.61-4.7l-.93-11.1c-1.4-12.49-2.44-24.83-2.81-37.43l-.38-29.25c-.02-1.41-.16-3.38-.68-3.53,0-.69-.41-1.19-.61-1.8,1.57.71,2.75,2.21,2.82,4.11.4,9.88,1.09,19.64,1.95,29.53l2.36,27.11,1.38,20.9c.14,2.09.29,4.07.09,6.05-.24,2.32-1.95,3.75-4.26,3.99-5.06.52-9.96.65-15.09.45l-23.81-.94c-9.58-.38-18.95-.67-28.54-.5l-18.03.32c-1.11.02-2.25.62-3.38.77l-12.99,1.74-18.17,1.95c-4.3.46-10.46.57-13.78-1.67-1.07-.72-2-1.73-2.1-3.12-1.21-1.13-1.66-2.71-1.92-4.31Z"/>
        <path class="cls-43" d="M158,39.25c.2.61.61,1.11.61,1.8l-.24,28.05c.12,11.38.7,22.52,1.91,33.81l1.47,13.65c.41,3.79.94,8.41-3.04,8.76l-6.91-.05-21.82-.95-35.99-1.08-35.64-.12-24.17-.17-4.75-.16c-.79-.03-1.47-.35-1.62-1.13l44.53-.3,26.92-.19,19.28-.18,11.1-.03h6.18s2.91,0,2.91,0l1.9-.09,8.64-.07c2.24-.02,4.72-.74,5.01-2.74.4-1.4.29-2.84.28-4.39l-.04-17.11-.1-42.15-.07-15.28.02-2.05c.09,0,.22.07.4-.09l3.25,2.28Z"/>
        <path class="cls-23" d="M24.54,125.63l-1-3.06c-.11-.32-.19-.59-.12-.88l4.37-.05c.15.79.83,1.11,1.62,1.13l4.75.16,24.17.17,35.64.12,35.99,1.08,21.82.95,6.91.05c3.98-.34,3.45-4.97,3.04-8.76l-1.47-13.65c-1.21-11.29-1.79-22.42-1.91-33.81l.24-28.05c.53.14.66,2.12.68,3.53l.38,29.25c.37,12.6,1.42,24.95,2.81,37.43l.93,11.1c.06,2.85-1.85,4.73-4.61,4.7l-9.31-.08-16.41-.56h-7.66c-2.88.01-5.71-.11-8.54.52l-2.21.49-24.7.53-16.92.02-14.74-.23-19.28.72c-3.35.13-6.56.27-9.86.01-1.88-.15-3.46-.9-4.29-2.69-.05-.11-.18-.18-.34-.16Z"/>
        <path class="cls-82" d="M133.62,118.2c-.01.13.04.29.13.35.21.12.77.06.8.11.04.06-.02.38.03.42.08-.03.21-.16.33-.08.13.08.29.21,0,.37-.16-.11-.35-.06-.32.11-.15,0-.26.06-.32.13-1.05-.4-2.09-.36-3.18-.32l-4.34.16-2.02.25-3.84.79h3.75s1.65.06,1.65.06l2.68.12c.23.01.61,0,.66.27l-11.1.03-19.28.18-26.92.19-44.53.3-4.37.05-1.46-.05v-.32c-2.09.03-3.99-1.2-3.21-2,.18-.19.85-.28.88.05l-.38.35.13.4c-.06-.18.97.19,1.87.18l11.68-.16,3.41-.13c.43-.02.67-.32,1.19-.07.49.23,1.4,0,1.99.06.08-.07.11-.15.12-.17.06-.14-.03-.26-.06-.36l3.62.34c5.01.31,9.98.3,15.11.24l13.94-.14,7.53-.03,11.09-.28,14.18-.02c5.02,0,10.99-2.14,18.37-1.82l10.18.44Z"/>
        <path class="cls-18" d="M19.14,79.51s0,.08,0,.12c-.08-.06-.13-.09-.2-.11-.11-.04-.27.11-.23.19l.13.3c.08.19-.17.44-.1.52l.36.38c-.38.03-.24.47-.33.57-.27.16-.33.39-.28.6.02.1.19.17.3.16.24.64.15,1.4-.24,2.04.2.14.21.34.15.54-.08.32-.66.14-.57.52.02.07.04.12.15.12l.36.19c.34.57-.37.86-.42,1.2-.06.44.05.91-.23,1.17-.27-1.07.14-1.5-.27-1.57-.08-.01-.19.16-.11.27.06.09.12.08.03.22-.56.09-.44-.28-.45-.48-.01-.29.06-.58.41-.51.16.03.33-.31,0-.58-.13-.1-.13-.19-.32.05-.1-.5.26-.79.24-.99l-.48-1.74c-.21-.75-.12-1.61-.03-2.54l.02-22.88-.05-.19c.11,0,.22.02.22.19l.06,12.35.47,1.99c.04.18,1.79,1.46,1.21,6.06-.05.42.06.75.12,1.25-.09.13-.14.24-.14.32,0,.13.03.25.21.25Z"/>
        <path class="cls-75" d="M86.99,2.25c.17.12-.02.37-.03.42.38.03.81.11.83.38-.25.07-.59.25-.69.49l.11.35c.03.09.24.06.52-.04l-.62.5c-.19-.35-.65-.8-1.08-.67-.25.07-.44.39-.58.52.15-.26-.17-.54-.31-.21l-.26.26c-.08.08.02.27.08.25.09-.02.25-.19.5-.3-.46.91-.88,2.1-.94,3.19.11.33.04.6.17.7.17.13.4.25.57.28.43.07,1.09-.22,1.61.05.6.31,1.55.49,2.01-.32-.07-.53-.85-.97-1.39-1.39-.09.28-.15.41-.63.46-.15.02-.28-.03-.34-.17-.03-.07.03-.2.16-.16.73-.03.01-1.18.49-1.21.09,0,.14.26.25.38l1.87,2.11c-1.21,1.57-3.67,2.07-5.13.79l-.6-.72c-.33.19-.47.57-.74.84l-3.2,3.27c-.04-.09-.11-.11-.16-.12l.15-.35c-.77-.16-1.58.26-2,.8.09.11.17.1.22.12-.09.04-.09.22-.31.15-.06-.02-.12-.08-.15-.24l1.31-1.41,1.63-1.64c.15.16.4.22.4.1l-.04-.49c.34-.37.67-.81,1.13-.95.74-.08,1.57-.32,2.3-.64l.43-1.86c-.72.3-.79.96-.68,1.84-.53-.31-1.01-.25-1.4.09.21-.57-.71-.96-.97-2.81.05,0,.14,0,.22.02.09.03.11.11.15.18.11.8.32,1.66.97,2.2,1.52-.87.8-2.32,1.26-3.62.68-1.04,1.73-1.43,2.92-1.4Z"/>
        <path class="cls-19" d="M88.4.82c-.07.58.95.87.7,1.05l-.42.3c-.15.11-.19.41-.31.42-.09.01-.28-.18-.49.03-.19-.42-.52-.37-.89-.38-1.19-.03-2.24.36-2.92,1.4-.61-.13-.09.84-1.38,1.19.02.25-.08.65-.44.68-.17.01-.3-.22-.41-.45-.03-.07-.06-.16-.15-.18-.08-.02-.17-.02-.22-.02-.25-1.74.72-3.42,2.15-4.27,1.53-.9,3.42-.77,4.78.21Z"/>
        <path class="cls-95" d="M93.06,9.23l-.36-.16c-.05-.27-.32-.37-.53-.37-.06-.12-.25-.28-.35-.38l-.37-.36c-.19-.18-.39-.57-.74-.54-.22-.36-.7-.28-.56-.7l.17-1.09v-2.4c.31-.18.61-.42.89-.44.64-.04,1.12.43,1.51.99.74-.32,1.17-.94,1.81-.62.23.12.63.54.38.81l-1.35,1.47c.25,1.35.08,2.66-.51,3.79Z"/>
        <path class="cls-15" d="M99.31,15.2l2.88,2.73c-.54.08-.83-.49-1.15-.74-.29-.13-.45.07-.41.17.07.16.02.49-.03.64.28.68,1.02,1.13,1.52,1.8.37-.58,0-.87.02-1.26.11.02.19-.05.19-.11l.04-.31,3.82,3.64c0,.29-.05.54-.04.79-.34,0-.06-.38-.36-.4.15-.24-.08-.5-.29-.24.04-.55-.33-1.09-.95-1.23-.28,1.26.39,1.69,1.05,2.58-.42.11-.47-.39-.65-.55l-1.18-1.1-5.1-5.04c.47-.59-.13-1.44.65-1.38Z"/>
        <path class="cls-91" d="M74.37,17.83l-1.93,2.05c-.34-.06-.54.29-.78.52l-.23.22s.11.14.22.14l-1.22,1.29c-.63.04-.84,1.01-1.46.72-.37-.17-.81.11-1.19.15l1.79-1.83c.13-.13.45-.32.64-.51.44-.05.88,0,1.24-.36l-1.13-.03c.34-.42.63-.84,1.05-1.15.56.01,1.2-.13,1.71-.61-.49-.1-.89.25-1.35.25.22-.36.63-.81.92-1.06.01.2.22.24.25.06l1.64-.4c-.19.22-.23.33-.17.57Z"/>
        <path class="cls-154" d="M94.57,10.71l.89.88c-.09.24,0,.36.14.49s.28.05.39.08c.33.08.52.53.75.7-.12-.01-.23.06-.23.13s.13.21.15.31l.23,1.62c-1.05-.87-1.97-1.83-2.96-2.7.06-1.12-.3-2.16.13-1.7l.23.25c.1.11.21.14.28-.07Z"/>
        <path class="cls-157" d="M67.65,24.96c-.36.38-.65.83-1.04,1.18-.54-.07-.99.14-1.43.33.4-.06.65.08.46.36-.61.33-1.2.49-1.83.56-.1,0-.14-.12-.1-.21l.47-.63,1.68-1.61c.26.21.56,0,.79-.07l.49-.14c.21-.06.44-.04.5.24Z"/>
        <path class="cls-174" d="M97.45,13.41l1.11,1.07c.22.68-.14,1.12-.07,1.92l-1.59-1.47c.51-.46-.42-1.34.31-1.46.04.22.25.16.24-.05Z"/>
        <path class="cls-141" d="M66.33,24.46c.26-.51.96-1.15,1.45-1.54.05.15.33.31.48.28s.37-.26.69-.14c-.48,1.12-1.52,1.58-2.62,1.4Z"/>
        <path class="cls-83" d="M67.65,24.96c-.06-.29-.29-.3-.5-.24l-.49.14c-.24.07-.54.28-.79.07.13-.12.39-.33.46-.48,1.1.17,2.14-.28,2.62-1.4-.32-.12-.54.12-.69.14s-.44-.14-.48-.28c.37-.03.82-.32,1.19-.15.61.29.83-.68,1.46-.72l-2.77,2.91Z"/>
        <path class="cls-159" d="M76.16,15.87s-.05.11-.1.17c-.44-.08-.64.53-1.02.65l-2,.52c.31-.47,1-1.02,1.41-1.46.23.4.73.23,1.14.11l.27-.23c.07-.06.26.13.3.24Z"/>
        <path class="cls-114" d="M74.37,17.83c-.06-.24-.02-.35.17-.57l-1.64.4c-.03.18-.24.15-.25-.06.11-.09.31-.27.4-.4l2-.52c.38-.12.58-.73,1.02-.65l-1.69,1.79Z"/>
        <path class="cls-45" d="M128.19,22.46c.23-.1.55.1.64.25.14.25,0,.6-.22.73-.26.14-.54,0-.67-.22-.11-.19-.21-.56.25-.76Z"/>
        <path class="cls-31" d="M99.31,15.2c-.78-.06-.18.78-.65,1.38l-.18-.18c-.07-.8.29-1.24.07-1.92l.76.73Z"/>
        <path class="cls-105" d="M97.45,13.41c.01.21-.21.27-.24.05-.73.12.2,1-.31,1.46l-.23-1.62c-.01-.1-.15-.24-.15-.31s.11-.14.23-.13l.71.54Z"/>
        <path class="cls-137" d="M69.56,21.08c-.01-.52.52-.62.75-.9l1.13.03c-.37.35-.8.3-1.24.36-.18.2-.51.38-.64.51Z"/>
        <path class="cls-137" d="M71.36,19.03c.11-.08.28-.24.36-.36.47,0,.87-.34,1.35-.25-.51.48-1.15.62-1.71.61Z"/>
        <path class="cls-111" d="M95.98,12.16c-.11-.03-.25.05-.39-.08s-.22-.25-.14-.49c.15.15.46.31.52.58Z"/>
        <path class="cls-35" d="M82.44,7.69c-.2.16-.44.38-.65.56-.08-.3.04-.42.17-.55.11-.11.29-.15.48-.01Z"/>
        <path class="cls-81" d="M80.29,9.6l.36-.39.04.49c0,.12-.24.06-.4-.1Z"/>
        <path class="cls-136" d="M102.37,18.13l-.04.31c0,.06-.09.13-.19.11l.06-.61.17.2Z"/>
        <path class="cls-64" d="M57.73,33.08c.07.1.19.26.13.33-.08.08-.3.24-.29.35-.3.11-.65.3-.88.57l-.73.95s-.16.12-.22.12l-2.93-.24-2.81-.15-3.21-.18-5.93-.09-4.85.07-4.14.17-9.01.29c-1.01.03-1.93-.09-3,.21-.44.04-1.05-.69-1.33-1.08.63-.57,1.27-.55,1.89-.66.76-.13,1.45-.31,2.26-.3h.44c.1,0,.16-.2.1-.34l33.5-.11,1.01.09Z"/>
        <path class="cls-96" d="M66.61,26.14c-.96.87-1.75,1.91-2.7,2.88l-1.41,1.4c-.02-.29.07-.53.41-.76-.91-.07-1.54.39-1.53-.08l2.32-2.41c-.04.1,0,.22.1.21.63-.07,1.23-.23,1.83-.56.19-.28-.06-.42-.46-.36.44-.19.89-.4,1.43-.33Z"/>
        <path class="cls-147" d="M153.89,38.91c.04.17.24.23.43.19l.07,15.28.1,42.15.04,17.11c0,1.55.11,3-.28,4.39-.37-.14-.33.66-.75.89s-.53-.58-1.27-.99l-.06-2.02c.48.15.62-1.85.61-1.88-.15-.47.04-.84.06-1.3,0-.23,0-.36-.16-.53.12.03.38-.01.39-.2,0-.07-.19-.19-.2-.26s-.02-.21.03-.25c.24-.19.12-.48.13-.76.03-.01.14-.01.21.04l.05,1.79c.02.66.13,1.78.07,2.43,0-.11.34,1.2.34,1.2.47.28.06-.89.63-1.83v-11.21c-.16-.05-.19-.17-.2-.22.2-.04.24-.14.2-.36l-.09-2.09-.12-4.12-.71-12.35-.07-14.59c-.16-.05-.3-.24-.28-.39.01-.08.16-.19.26-.28l-.09-4.04c-.01-.45.05-1,.04-1.5v-15.94s.12-3.17.12-3.17l.12-4.68v-.56c0-.09.35.02.37.05Z"/>
        <path class="cls-142" d="M134.58,119.47c.14.33.42.35.79.41l5.24.95-1.9.09c-.48-.62-1.91-.44-2.91-.01h-6.18c-.05-.26-.43-.25-.66-.26l-2.68-.12c-.09-.16-.17-.29-.1-.42.14-.25.49-.41.55-.68l4.34-.16c1.09-.04,2.13-.08,3.18.32.06-.07.17-.12.32-.13Z"/>
        <path class="cls-116" d="M138.71,120.93h-2.91c1-.44,2.43-.62,2.91,0Z"/>
        <path class="cls-166" d="M92.19,10.55c.28.65,1.02,1.05,1.55,1.5l.19.17c1,.87,1.92,1.83,2.96,2.7l1.59,1.47.18.18,5.1,5.04,1.18,1.1c.18.17.23.67.65.55.05.29.37.4.52.57.45.5.83,1.05,1.5,1.47l1.23,1.39.88.78c-.06.25.19.27.26.38.27.43,1.04.92,1.45,1.36.81.89,1.47,1.7,2.32,2.39.22.18.4.66.84.71-.11.12.03.28.1.4l-3.15.08-4.88.04-30.49.06-8.09-.03,1.91-2.36c4.86-6.58,9.8-12.98,15.1-19.19.25-.29.48-.58.7-.54.34.06.54.2.78.39,1.74,1.38,4.12,1.04,5.39-.65.07.02.14.02.23.03Z"/>
        <path class="cls-161" d="M114.7,32.72c.02.12.19.13.36.32l-5.23.1-6.43.28-18.7.72c-1.47.06-2.9-.21-4.37-.29-5.28-.3-10.44-.74-15.65-.57v-.38s1.32,0,1.32,0h2.07s8.09.02,8.09.02l30.49-.06,4.88-.04,3.15-.08Z"/>
        <path class="cls-9" d="M148.7,43.31c-.07,0-.23.03-.26-.03l-.2-.44c-.11-.24-.32-.02-.36.06l-.25.52-1.48-1.29c-.28-.24-.64.08-.34.32.31.35.74.79.87,1.24-.21,1.15-1.5.56-1.56,1.04-.17-.03-.31-.21-.07-.43-.61-.48-1.22-.88-2.05-.94l-1.02-.53-.23.79c-.62-.19-1.17-.11-1.43-.67-.49.57-1.19.33-1.63-.18-.62.19-1.15.03-1.58-.45-.53.3-1.04.16-1.54-.12-.29.39-.75.03-.99.08-.43.08-.74-.04-1.12-.09l-4.72-.56-6.73-.43-1.63-.11c-1.28-.09-2.25-.26-3.75.05l-.72.15c-.41-.61-.96-.08-1.27-.13-.44-.07-.91-.36-1.33-.11-.1.02-.24-.27-.31-.33-.14-.13-.56-.03-.31.3-.25.02-.67-.09-.85-.35l-2.24.21c-.3.03-.41.28-.76.03-.65-.45-1.7-.23-2.56-.34-.33-.04-.21.13-.24.24-.03.13-.34.02-.33-.21-.46.14-1.03-.21-1.42-.15-.62.09-1.11-.06-1.73-.09l.17.25s-.13.16-.19.18c-.13.05-.59-.77-1.38-.33-.08-.03-.21-.18-.24-.23-.07-.12-.27.05-.36.08-.3-.05-.65-.39-1.06-.26l-.14-1.21,4.48.07,8.46-.12c.37,0,.89,0,1.28-.02l1.33-.09c.71.33,1.19.08,1.82.08h1.83c1.26,0,2.4-.04,3.65-.04l9.63-.06,3.99-.09,4.4-.02,7,.17c.82.02,1.38.66,1.41,1.4l.11,3.14Z"/>
        <path class="cls-61" d="M39.64,119.83s-.04.1-.12.17c-.59-.07-1.5.17-1.99-.06-.53-.25-.77.06-1.19.07l-3.41.13-11.68.16c.05-.16.02-.32.09-.29.09.04.31-.03.27-.09-.05-.07-.23-.15-.43-.04-.25,0-.58-.26-.86-.45-.24.32-.44.18-.55-.06-.06-.12.04-.24.1-.43-.33.22-.54.02-.5-.22,3.29-.3,6.41-.13,9.67-.08l4.6.4,2.21.16c1.49.11,2.57.53,3.79.64Z"/>
        <path class="cls-153" d="M19.39,43.47c-.15-.02-.42-.02-.63-.03-.14,0,0,.4.04.47-.29.26-.38.76-.17,1.1-.32.1-.31.42-.04.53-.1.21-.3.28-.27.66.14-.16.27-.18.35-.13.28.18-.05.56-.41,1.24-.03.06.14.14.15.23.02.14,0,.2-.07.24-.12.09-.32-.03-.25-.08.37-.26-.15-.08-.54-.7-.01-.12.31-.46-.14-.45l.04-3.98.19-4.29c.05-1.2.09-2.38.68-3.64.46.55.9,1,1.5,1.5l-.35,5.38-.1,1.93Z"/>
        <path class="cls-6" d="M19.79,116.54c0,.31.11.61.41.91l-1.87,1.81c-.4-.51-.43-.89-.27-1.45.14-.14.07-.44-.2-.26-.46-1.21-.33-2.52-.35-3.84l-.12-5.7c.2-.11.41.09.27.25-.05.05-.11.27.18.28.13,0-.07.37,0,.47.07.12.4.16.57.11.14-.04.46-.3,0-.45.01-.11.13-.44.3-.69.07-.05.39,0,.49.09v3.94s.04,1.83.04,1.83l.13,2.18c.01.25.01.4.16.46.07.02.11.11.25.08Z"/>
        <path class="cls-94" d="M153.05,110.73l.02-.95c.12.08.34.04.38-.06.02-.07.03-.34-.09-.55-.1.07-.22.06-.3-.03s-.08-.21,0-.3c.07-.15.21-.17.38-.12-.02-.59.19-1.36-.12-1.79-.21-.28-.18-.44-.08-.77.27-.04.29-.42.28-.67l-.06-1.16c.13.04.36.13.46.06.37-.26-.14-1.4.24-1.48,0,.05.04.18.21.22v11.21c-.57.95-.16,2.11-.63,1.83,0,0-.33-1.3-.34-1.2.05-.65-.06-1.77-.07-2.43l-.05-1.79c-.07-.05-.18-.05-.21-.04Z"/>
        <g>
          <path class="cls-11" d="M154.35,37.06l-.02,2.05c-.19.04-.39-.02-.43-.19-.01-.06-.03-.16-.01-.23.01-.06-.1-.21-.37-.09.07-.32.06-.71,0-.99-.43.06-.19-.23-.11-.26.07-.03-.4-.2-.44-.33-.37.18-.14.65-.14.97v2.65c-.15.38-.35,1.2.24,1.54l-.45.44v.59c.01.25-.08.61.44.81-.25.24-.55.55-.7.91.06.13.21.35.22.45.02.15-.3.39-.24.51.07.15.25.26.3.3.1.07.05.16-.02.18-.19.06-.39,0-.42-.23.09-.38.18-.91-.21-1.06-.13.34-.13-.4-.37-.42-.28,1.57-.13,3.01-.15,4.48l-.07,6.17c-.21-.48-.33-1.1-.21-1.57.14-.55-.02-.99-.03-1.46l-.03-2.62-.2-4.58c-.04-.89.36-1.93.07-2.88-.27.31-.35-.04-.4-.15-.04-.09-.16.24-.16.37l.13,4.17c-.59,0-.51-.46-.68-.75s.14-.69.45-.97c-.09-.18-.38-.13-.5-.12-.08-.33.1-.65.39-.76.25-.1-.07-.72-.4-.77.18-.19.27-.37.3-.52.02-.12-.5-.29-.17-.24.25-.42.36-1.07-.07-1.44.22-.07.29-.34.12-.47-.48.25-.42-.44.03-.14l.22-.91c-.08.18.09-.11-.28.26-.15.02-.29-.07-.33-.21.15-.56.23-.8.43-1.1-.38-.29-.06-.66-.08-1-.66.26-.99.82-.98,1.47l.11,8.53c.31-.03.36.26-.04.2.2.47-.02.82-.02,1.3l.08,22.98.05,5.08c.38.04.56.03.16.04-.22.49.04,1.36-.02,1.75l-.12.76c-.02.16-.02.41.32.37-.48.25-.35.75-.27,1.25.34-.06.44.37,0,.33l-.1,9.36c0,.7-.28,1.73.1,2.32-.03.28-.18.73-.18,1.22l.02,12.34-.21,7.78,1.46,1.48.11-1.69v-6.92c.06,0,.14-.06.21-.1l.14,4c.35.02.3.31.28.46-.03.25-.15.27-.47.45.44.04.57.41.03.43.33.73.1,1.23.08,1.97l-.04,1.62c0,.12.23.38.3.33s.13-.24.23-.42c-.02-.05-.12-.13-.16-.19-.07-.1.03-.31.19-.2.2.13.19-.08.19-.15s.26.09.5.08c-.28-.43-.11-1.02-.08-1.42-.4-.17-.06-.16.02-.18.13-.03.01-.5-.29-.47.13-.02.33-.09.3-.22-.02-.07,0-.62,0-1.28v-2.77c-.42-.05-.33-.49.09-.41-.02-.36-.1-.82.15-1.08.21.1.28.47.2.87l.63-.32c.15-.42.28-.96.33-1.41.31.43.11,1.2.12,1.79-.17-.05-.31-.03-.38.12-.07.09-.07.21,0,.3s.2.1.3.03c.12.2.11.47.09.55-.03.1-.25.14-.38.06-.13.02-.2.05-.28.04-.12-.02-.2-.25-.13-.28l.31-.11c.09-.03.04-.41,0-.34-.04.07-.3.12-.46.09-.39.63-.5,1.65-.04,2.39l-.11.19c-.12.2.22.37.36.21.06-.07-.06-.28-.03-.39.02-.08.08-.14.23-.09-.05.04-.04.18-.03.25s.21.19.2.26c-.02.19-.27.23-.39.2-.23-.05-.33.07-.33.25,0,.11.01.37.2.38.09,0,.17-.01.28-.1-.02.46-.21.83-.06,1.3-.08-.06-.42-.12-.56-.01-.2.16.07,1.45.06,1.45l-.11.43.06,2.02c.74.41.86,1.23,1.27.99s.38-1.04.75-.89c-.29,2-2.77,2.72-5.01,2.74l-8.64.07-5.24-.95c-.38-.06-.65-.08-.79-.41-.03-.16.16-.22.32-.11.3-.16.14-.29,0-.37s-.25.06-.33.08c-.05-.04.01-.35-.03-.42-.03-.05-.59,0-.8-.11-.09-.05-.14-.22-.13-.35.01-.18.16-.22.35-.18l4.8.06,6.31-.14c.42,0,1.05-.05,1.43-.24l.63.14c.12.03.25-.06.21-.35.29.64.6,0,.73.04.99.27,1.92-.08,3.14-.12l-1.6-1.71c-.39.06-.73.19-1.09.09-.53-.14-.96.08-1.45.08l-1.61.03-.33.32s-.27-.05-.34-.21c-.94.1-1.92,0-2.84-.06,0-.04.02-.11.09-.14.3.06.61-.05.94-.07l6.16-.28c-.06-.31-.28-.49-.51-.74l-7.39.04-4.91.07-37.57.19-11.41.18-9.34.16-4.62.08-3.84-.1c.39.07.82-.19,1.19-.19l12.22-.17,7.4-.17,6.86-.08,20.76-.11,8.01-.13c.21,0,.31.02.5-.13,0,.08.03.18.19.18l11.72-.1c.78,0,1.49-.02,2.18-.02h3.44s1.49-.14,1.49-.14c.27-.03.76.23.98-.25-.24-.01-.47.03-.74-.11.06-.11.18-.13.3-.11.24.04-.42-.74-1.35-1.16.14-.08.28-.09.27-.25l-.04-.47c.06-.41-.51-.26-.15.12-.23.08-.52.2-.63.39.29.21.06.32-.05.36-.19.06-.36.13-.54-.04l-.23-.23c-.21-.21-.55.57-.84.31-.14-.12-.15-.32.13-.49l-.04-.44c-.03-.33.95-.29.73-1.12.08,0,.32.07.41.03.22-.08.21-.41-.09-.43l-.88-.05c-.13.11-.09.36-.07.44.03.11-.21.23-.38.3.17.51-.17.99-.65,1.23-.2.54-.72-.04-.14-.17.05-.18.13-.41.44-.41.05-.56.15-1.09.5-1.49-.37-.21-.26-.41-.17-.45.21-.08.51-.08.7.18.11-.32.15-.63.17-.91-.38.08-.34.27-.4.35-.11.16-.49.08-.43-.12l.76-.95c.28.14.28-.17.34-.24.16-.17.33-.11.44,0l.78-.86c.16.09.38-.02.38-.12-.29-.18-.47-.44-.37-.69l.3-.74.52-2.13c.05-.22.49-.36.23-1.01l.4.56c.2-.12.37.06.25.25-.05.08.22-.02.31-.11.23-.13.43-.21.63-.25.17-.04.44.23.45.51,0,.17-.26.34-.54.53.75.49,1.09,1.2,1.21,1.17.58-.12.17-2.66.27-4.12l.02-.36.05-1.4c.01-.42-.2-.85,0-1.44s0-1.53.01-2.22l.04-2.18.03-2.2c-.21.03-.37-.05-.37-.24.03.05.33.06.35,0l.12-4.97c0-.33-.02-.58-.02-.89l-.03-7.57-.12-11.32-.09-10.66-.02-12.34-.11-3.14c-.03-.74-.59-1.38-1.41-1.4l-7-.17-4.4.02-3.99.09-9.63.06c-1.25,0-2.39.05-3.65.05h-1.83c-.63,0-1.11.24-1.82-.09l-1.33.09c-.39.03-.91.02-1.28.02l-8.46.12-4.48-.07-2.85.14-31.82.16-33.33.16-4.02.14c-1.02.04-2.31-.24-3.19.19-.69.33-.75,1-.73,1.58.05,1.55,0,2.96-.07,4.46l-.36,8.46c-.02.52.13,1.04.07,1.38-.29,1.64-.18,3.3-.08,4.87.03.46-.1.94-.26,1.48l.03,47.15c0,1.55.09,2.9.48,4.28.35,1.28,1.57,1.94,2.99,1.94l32.54-.06c2.27,0,4.42-.17,6.64-.55.97-.17,1.97-.24,2.84.17-.63.26-1.19.2-1.75.35l-8.81.4-30.73.07-3.82-.06c-.67,0-1.22.93-1.54,1.47,2.14-.07,4.09-.26,6.07-.08l-1.29.28c-1.58.11-3.31-.18-4.66.33-.14.05-.36.38-.59-.33-.36.23-.63.46-.88.73.47.68,1.06.13,1.54.14l9.15.16,3.28.5c.71.11,1.44.17,2.08.23l1.79.18,1.56.28c.03.1.13.22.06.36-1.22-.11-2.3-.54-3.79-.64l-2.21-.16-4.6-.4c-3.26-.05-6.38-.21-9.67.08-.04.24.17.44.5.22-.06.18-.15.3-.1.43.11.24.31.38.55.06.28.19.6.44.86.45.2-.11.38-.03.43.04.04.06-.19.13-.27.09-.07-.03-.04.13-.09.29-.9.01-1.93-.36-1.87-.18l-.13-.4.38-.35c-.03-.33-.7-.23-.88-.05-.78.8,1.12,2.03,3.2,2v.32c-1.47-.05-3.3-.59-3.98-2.01-.53-1.11-.62-2.33-.67-3.49l-.16-3.84-.14-8.68c-.29-7.04-.14-13.97.06-20.93l.48,1.74c.02.2-.35.49-.24.99.18-.24.18-.15.32-.05.34.27.17.61,0,.58-.35-.07-.42.22-.41.51,0,.2-.12.57.45.48.08-.14.03-.13-.03-.22-.07-.11.03-.28.11-.27.41.08,0,.5.27,1.57.28-.26.18-.73.23-1.17.04-.34.76-.63.42-1.2.04-.1.08-.2.05-.26s-.21-.2-.3-.23c-.07-.02-.17.24-.11.3-.11,0-.14-.05-.15-.12-.09-.38.49-.2.57-.52.05-.2.04-.4-.15-.54.39-.64.47-1.4.24-2.04l.31-1.33c.09-.39.2-.84.04-1.28-.02-.04-.04-.08,0-.12,0-.04.05-.19.16-.22.24-.07.19.03.18.21l-.16,2.46-1.12,11-.33,1.61c-.3,3-.51,5.88-.5,8.91,0,.84-.34,1.6-.04,2.45.22.64.06,1.44.07,2.1l.12,5.7c.03,1.32-.1,2.64.35,3.84.27-.18.35.13.2.26-.16.56-.13.94.27,1.45l1.87-1.81c-.31-.29-.42-.59-.41-.91l-.14-2.06-.15-5.27-.19-7.5-.12-3.37c0-.25-.49-.72.17-.99l.14,2.72.17,4.72.17,6.59.11,3.16c.03,1.01.03,1.92.48,2.78l1.66-1.54c.07-.07-.15-.21-.25-.19-.09.02.05-.25.15-.25.15,0,.22.18.25.22.29-.06.25-.49.18-.44-.17.11-.44-.25.01-.2v-5.65s0-11.9,0-11.9c0-.84-.25-1.61.04-2.47.24-.71-.11-1.56-.11-2.26l.05-15.84.02-8.72-.05-1.25v-4.79s.07-3.51.07-3.51l.23-10.17c.07-3.05.04-5.98.31-8.97l-1.45-1.44-.24,2.23-.13,5.2c-.49-.37-.38-1.06-.13-1.47l-.02-5.63c.23-.18.35-.7,0-.96-.37-.15-.59-.4-.82-.67-.35,1.1,0,2.07-.17,2.99l-.21,1.13-.12,6.05.1,4.09c0,.15.24.37.09.54-.06.08-.21.25-.3.05.04-.36-.13-.61-.07-.82.14-.49-.04-.97-.06-1.49l-.15-5.02c-.29-.11.05-.49.09-.69l.1-1.93.35-5.38c-.59-.5-1.04-.95-1.5-1.5-.59,1.25-.63,2.44-.68,3.64l-.19,4.29-.04,3.98c.45-.01.12.33.14.45,0,.86.06,1.61.29,2.43.36-.32.19-.62.16-.88.06-.14.49.1.47.25-.02.09-.31.11-.16.44.31-.07.42.21.1.36.06.72-.12,1.53.15,2.21.4.98.19,3.23.35,4.12l.39,3.03.18,2.57v8.21c0,1.35-.22,2.7,0,3.99.07.44.06.87.12,1.37.07.61.4,1.26-.03,1.88l-.27-2.89v-5.87c-.01-1.51.06-3.05-.02-4.54l-.17-3.45-.19-1.97c-.06-.6-.12-1.26-.24-1.93l-.59-3.26c.54-.08.35-.47-.11-.2l-.57-3.99c-.18-.03-.31.03-.35.04l.06-4.45.18-5.83c.04-1.29-.04-2.72.64-3.93.56-1.01,1.76-1.33,2.74-1.4l1.71-.13c.31-.02.53-.17.81-.09.06.14,0,.34-.1.34h-.44c-.8-.01-1.5.17-2.26.3-.62.11-1.26.09-1.89.66.28.38.89,1.12,1.33,1.08,1.07-.3,1.99-.18,3-.21l9.01-.29,4.14-.17,4.85-.07v.17c-.67-.01-1.35.07-2.08.1l-4.16.17-3.91.16-6.95.29c-1.2.05-2.28-.07-3.58.18.06.28.38.67.63.67l2.44-.04c.56,0,1.05.2,1.69.02.9-.25,1.97-.02,3-.1.17-.01.35.22.35.34l-5.45.09c-.64.01-1.27-.15-1.82.29.99.41,1.82.25,2.68.27l8.15.2,3,.12c.02.06-.05.17-.1.17l-9.93-.12h-2.99s1.26,1.35,1.26,1.35l23.34-.07,29.61-.15c.66,0,1.21-.28,1.92.04.45.2,1.11-.13,1.53-.13l22.22-.1,1.83-.1,10.74-.05c1.37,0,2.71.1,4.12-.11-.36-.52-.52-.91-.62-1.57l-13.13.17-6.65.16-7.91.19-5.24.07c0-.07.03-.13.1-.17l2.71-.09,6.16-.18,6.63-.17,7.57-.18,9.59-.13c.36,0,.39-.45.42-.73.24.31.4.38.53.34.24-.06.18-.36.07-.43-.08-.05-.1.07-.32.02.02-.09.12-.09.29-.05.18-.46,0-1.09-.59-1.18l.3,1.23c-.11-.07-.28-.11-.31-.2l-.1-.38c-.08-1.02-.63-2-1.49-2.75-.08,1.03.2,1.95.9,2.91-.53-.25-.82-.29-1.35-.26l-2.79.15-4.62.17-7.37.19-9.32.2-4.72.15c-.6.02-1.19.23-1.73.02.2-.08.31-.07.45-.3.24.41.62.1.9.09l3.47-.15,7.51-.19,7.19-.19,5.89-.18,3.8-.17,1.53-.12c.4-.03.27-.32.22-.46-.07-.2-.16-.58-.5-.27-.08-.29-.4-.47-.4-.9.17.12.19.49.62.49.12-1.46-1.18-2.3-.63-2.5l1.76,1.7,15.01-.12,18.94-.06c.96,0,2.1.61,2.53,1.3.63,1,.67,2.12.66,3.18Z"/>
          <g>
            <path class="cls-160" d="M144.89,36.36c-.08.22-.23.41-.63.4.22.73.98.66,1.53.86.7.25,1.23-.09,2.07.06-.21.11-.29.29-.3.5l-10.58-.02-5.02.16-9.92.09-1.33.06.51-.69c-.07-.35.28-.79.32-1.05-.14-.91-1.18-1.31-2.02-1.61l2.28-.28c-.31-.2-.62-.06-.94-.07l-2.14-.07-1.22-1.52,9.44-.17,12.72-.18,10.16-.02c1.06,0,2.08.2,2.94.78-.16.34-.3.51-.5.73l-1.89.05c.09-.42-.35-.38-.24,0l-3.32-.08-5.87-.17c-1.64-.05-3.49-.36-5.16.22l7.06.12,9.07.19c-.38.53-.8,1.2-1.29,1.23l-1.59.09-20.14.06c-.55,0-1.1.16-1.66.31l17.66.04Z"/>
            <path class="cls-123" d="M147.56,38.18c0-.21.09-.38.3-.5-.84-.15-1.37.19-2.07-.06-.55-.19-1.31-.13-1.53-.86.39.01.54-.18.63-.4,1.86,0,3.53,0,5.44-.17-.46,1.01-1.18,1.33-1.79,2.08-.32-.11-.63-.1-.97-.1Z"/>
            <path class="cls-151" d="M152.13,37.62c.08.23.25.22.3.26-.51-.34-.09,1.24-.85,1.4.18-.94-.28-1.81.06-2.56.11-.25-.15-.52-.55-.68l1.29-1.38c-.01.48-.27.79-.04,1.19.18-.02.11.13.02.1-.17-.06-.25.18-.19.22.15.11.36-.08.6,0-.28.24-.39.2-.54.39-.18.24-.16.4.08.63-.23.05-.27.19-.18.43Z"/>
            <path class="cls-78" d="M152.06,44.81c-.11-.43-.19-.47-.55-.23l.08-2.08c.5.06.4-.21,0-.36.04-.14.16-.22.3-.21-.46-.02-.4-.21-.41-.36-.01-.24.23-.5.42-.25.41.21.67.61.42.8-.06.2-.12.56-.23.73.13.56.28,1.47-.03,1.98Z"/>
            <path class="cls-169" d="M153.06,109.78l-.02.95c0,.28.11.57-.13.76-.15-.05-.21.02-.23.09-.03.11.09.32.03.39-.14.16-.47-.01-.36-.21l.11-.19c-.46-.74-.35-1.76.04-2.39.15.03.41-.03.46-.09.04-.06.09.31,0,.34l-.31.11c-.07.03.01.26.13.28.08.01.15-.02.28-.04Z"/>
            <path class="cls-17" d="M153.2,33.97c.31-.03.47,1.65-.27,2.49l.02-2.24c0-.11.18-.25.25-.25Z"/>
            <path class="cls-127" d="M150.42,41.21c-.02-.27.19-.22.24-.25.1-.05-.37-1.13.26-2.12l.06,1.82-.12.49c-.03.13-.44.17-.45.06Z"/>
            <path class="cls-21" d="M152.8,114.03s-.13,2.02-.61,1.88l.11-.43s-.26-1.3-.06-1.45c.14-.11.47-.05.56.01Z"/>
            <path class="cls-85" d="M119.64,36.38c0,.2-.62.3-.67.12-.15-.49-.13-.9-.08-1.47.44.33.75.76.75,1.34Z"/>
            <path class="cls-26" d="M19.15,79.63c.16.43.05.88-.04,1.28l-.36-.38c-.07-.08.18-.33.1-.52l-.13-.3c-.03-.08.12-.22.23-.19.07.02.12.05.2.11Z"/>
            <path class="cls-158" d="M150.89,37.33c-.28.14-.43-.34-.46-.51s.24-.5.43-.44c.3.1.28.82.03.94Z"/>
            <path class="cls-131" d="M118.31,35.71l-.3-1.23c.58.09.78.72.59,1.18-.17-.04-.27-.04-.29.05Z"/>
            <path class="cls-26" d="M18.79,82.23c-.11.01-.27-.06-.3-.16-.05-.21.01-.45.28-.6.1-.1-.05-.53.33-.57l-.31,1.33Z"/>
            <path class="cls-68" d="M148.32,110.12c-.26-.43-.2-.76-.1-1.21.22.31.56.67.1,1.21Z"/>
            <path class="cls-5" d="M145.94,104.67c-.15-.2-.23-.37-.35-.68.36-.06.47-.17.73-.37-.09.37-.08.51-.38,1.05Z"/>
            <path class="cls-163" d="M152.7,112.2c.17.17.17.3.16.53-.11.09-.19.1-.28.1-.19,0-.2-.26-.2-.38,0-.18.1-.3.33-.25Z"/>
            <path class="cls-112" d="M143.48,111.68c.05-.06.31-.06.4-.04.07.02.18.13.1.27-.09.16-.2.09-.28.11-.16.04-.39-.12-.22-.34Z"/>
            <path class="cls-30" d="M145.43,108.14c-.14.1-.29-.1-.18-.21l.28-.28c.11.11.14.32-.1.5Z"/>
            <path class="cls-146" d="M151.52,117.17c0-.07.22-.12.36-.07.06.02.11.11.03.18-.04.04-.13.17-.19.18-.06,0-.21-.15-.2-.29Z"/>
            <path class="cls-125" d="M18.22,52.62c-.15-.26-.13-.43-.01-.64.18.18.15.46.01.64Z"/>
            <circle class="cls-170" cx="146.01" cy="110.58" r=".18"/>
            <path class="cls-168" d="M18.65,85.64l-.36-.19c-.05-.07.04-.33.11-.3.09.02.26.16.3.23s0,.17-.05.26Z"/>
          </g>
        </g>
        <path class="cls-99" d="M126.73,119.44c-.06.28-.42.43-.55.68-.07.13,0,.26.1.42l-1.65-.06h-3.75s3.84-.79,3.84-.79l2.02-.25Z"/>
        <path class="cls-143" d="M91.53,10.04c.18.16.41.29.42.48-1.26,1.69-3.64,2.03-5.39.65-.24-.19-.44-.33-.78-.39-.23-.04-.45.25-.7.54-5.31,6.21-10.24,12.61-15.1,19.19l-1.91,2.36h-2.07c-.23-.19-.46-.23-1.25-.14,5.74-7.5,11.92-15.06,18.4-22.4l.99-1.43c1.46,1.28,3.92.78,5.13-.79l2.25,1.93Z"/>
        <path class="cls-119" d="M84.15,8.91l-.99,1.43c-6.48,7.34-12.67,14.9-18.4,22.4.79-.09,1.02-.05,1.25.15h-1.33c-1.52.02-3.11.35-4.52-.13,0-.06.13,0,.17-.03.45-.33.81-.8,1.19-1.22l.98-1.09,1.41-1.4c.95-.97,1.75-2.01,2.7-2.88.39-.35.68-.8,1.04-1.18l2.77-2.91,1.22-1.29c.27-.29.53-.59.8-.88l1.93-2.05,1.69-1.79c.05-.06.09-.12.1-.17.2-.04.28-.3.39-.41l3.07-3.17,3.2-3.27c.27-.27.41-.64.74-.84l.6.72Z"/>
        <path class="cls-14" d="M87.11,4.36c-.37.3-.77.53-1.23.82-.04.34-.25.47-.42.54l-.2,2.65c-.17-.03-.4-.15-.57-.28-.13-.1-.06-.37-.17-.7.06-1.09.48-2.28.94-3.19.14-.12.33-.44.58-.52.43-.13.88.32,1.08.67Z"/>
        <path class="cls-93" d="M81.84,5.08c.11.23.24.46.41.45.37-.03.47-.43.44-.68,1.28-.35.77-1.32,1.38-1.19-.47,1.3.26,2.75-1.26,3.62-.65-.54-.86-1.4-.97-2.2Z"/>
        <path class="cls-34" d="M81.79,8.25c.21-.19.45-.41.65-.56.39-.34.87-.41,1.4-.09-.11-.88-.05-1.54.68-1.84l-.43,1.86c-.73.32-1.55.56-2.3.64Z"/>
        <path class="cls-25" d="M79.45,12.17c-.26.49-.94.28-1.63.57-.05-.02-.13-.02-.22-.12.42-.54,1.23-.96,2-.8l-.15.35Z"/>
        <path class="cls-110" d="M85.45,4.2c-.24.11-.41.28-.5.3-.06.02-.16-.17-.08-.25l.26-.26c.14-.33.46-.04.31.21Z"/>
        <g>
          <path class="cls-28" d="M91.22,2.79c-.29.02-.59.26-.91.44v2.4s-.16,1.09-.16,1.09c-.2,0-.26-.21-.18-.39-.37-.42.37-1.37.17-2.87-.6.32-1.1.51-1.42.89-.16-.17-.2-.4-.4-.28-.16.1-.45.33-.15.51-.16.06-.54.12-.7.33-.15.21.08.32.19.29l.57-.18c.16.08-.05.56-.3.62-.27-.31-1.02-.1-1.31.12-.14.11-.55-.1-.68.07s-.2.36-.15.73c-.18.06-.08.21-.02.2.09-.03.24-.4.48-.03.15-.37.6-.26.44.12-.13-.03-.19.09-.16.16.06.14.19.19.34.17.48-.05.54-.18.63-.46.54.42,1.33.86,1.39,1.39-.46.8-1.41.63-2.01.32-.52-.27-1.18.02-1.61-.05l.2-2.65c.18-.07.38-.19.42-.54.46-.29.86-.52,1.23-.82l.62-.5c-.27.1-.49.13-.52.04l-.11-.35c.1-.24.44-.42.69-.49.01.22.42.32.86.15-.16-.3-.53-.25-.86-.15-.02-.27-.45-.35-.83-.38,0-.05.2-.3.03-.42.38,0,.71-.05.89.38.2-.21.4-.02.49-.03.12-.01.16-.32.31-.42l.42-.3c.25-.18-.77-.48-.7-1.05.48.35.86.74,1.38,1.31.46-.72,1.04-1.35,1.73-1.37.31,0,.56.27.62.43.19.52-.65.97-.92,1.6Z"/>
          <g>
            <path class="cls-71" d="M89.97,6.32c-.2.08-.25.28-.34.41-.22-.14-.35-.24-.62-.19-.23-.25-.82-.6-1.09-.92.25-.05.47-.53.3-.62l-.57.18c-.11.03-.33-.08-.19-.29.16-.21.54-.27.7-.33.23-.08.38-.03.54-.23.32-.38.82-.58,1.42-.89.2,1.5-.54,2.45-.17,2.87Z"/>
            <path class="cls-133" d="M89.41,3.53c-.09.17-.86.58-.69.18.08-.19.15-.21.27-.33s.21-.09.27-.05c.05.03.17.15.15.2Z"/>
            <path class="cls-128" d="M86.19,7.54c-.07.34-.18.41-.29.44-.2.06-.33-.14-.29-.26.03-.1.2-.19.39-.29.1-.28.44-.11.19.11Z"/>
            <path class="cls-59" d="M88.72,4.35c-.17.2-.31.15-.54.23-.3-.18,0-.41.15-.51.2-.13.23.11.4.28Z"/>
            <path class="cls-7" d="M87.79,3.05c.33-.09.7-.15.86.15-.44.16-.85.07-.86-.15Z"/>
          </g>
        </g>
        <path class="cls-102" d="M102.2,17.93l-.06.61c-.01.39.36.68-.02,1.26-.5-.67-1.24-1.12-1.52-1.8.05-.16.11-.48.03-.64-.04-.1.12-.3.41-.17.32.25.61.82,1.15.74Z"/>
        <path class="cls-92" d="M105.79,22.16c.06.37.13.86-.19,1.11-.65-.89-1.32-1.32-1.05-2.58.61.14.99.69.95,1.23.21-.27.44,0,.29.24Z"/>
        <g>
          <path class="cls-155" d="M87.93,5.63c.27.31.86.67,1.09.92l.31.34c.12.14.23-.05.31-.16.09-.13.15-.32.34-.41-.08.18-.02.38.18.39-.15.42.33.33.56.7.08.31.38.61.74.54l.37.36c-.15.14-.23.39-.12.39h.47c.02.25.28.44.53.36l.36.16c.1.31.35.53.58.72l-.02,1.43c.27.19.2.48.12.68-.52-.46-1.27-.85-1.55-1.5l-.25-1.66c-.55.34.17,1-.41,1.15l-2.25-1.93-1.87-2.11c-.11-.12-.16-.39-.25-.38-.47.04.25,1.19-.49,1.21.16-.38-.29-.49-.44-.12-.23-.36-.39,0-.48.03-.06.02-.15-.14.02-.2-.05-.37.01-.55.15-.73s.55.04.68-.07c.29-.23,1.04-.43,1.31-.12Z"/>
          <g>
            <path class="cls-63" d="M94.57,10.71c-.07.21-.18.18-.28.07l-.23-.25c-.43-.47-.07.58-.13,1.7l-.19-.17c.09-.2.15-.48-.12-.68l.02-1.43.93.76Z"/>
            <path class="cls-70" d="M91.45,7.95c-.36.07-.65-.23-.74-.54.34-.03.55.36.74.54Z"/>
            <path class="cls-77" d="M92.7,9.07c-.25.07-.51-.11-.53-.37.22,0,.48.1.53.37Z"/>
            <path class="cls-162" d="M92.17,8.69h-.47c-.11.01-.03-.24.12-.38.1.09.29.25.35.38Z"/>
            <path class="cls-87" d="M92.19,10.55c-.09-.01-.16,0-.23-.03-.01-.2-.24-.33-.42-.48.58-.15-.15-.81.41-1.15l.25,1.66Z"/>
            <path class="cls-24" d="M90.17,8.13c.13-.23.22-.01.27.02.11.08.1.32,0,.35-.08.02-.34-.23-.26-.37Z"/>
            <path class="cls-150" d="M89.63,6.73c-.07.11-.18.29-.31.16l-.31-.34c.27-.06.4.05.62.19Z"/>
          </g>
        </g>
        <path class="cls-84" d="M71.64,20.76c-.11,0-.25-.1-.22-.14l.23-.22c.24-.23.45-.58.78-.52-.27.28-.53.59-.8.88Z"/>
        <g>
          <path class="cls-175" d="M79.62,12.29l-3.07,3.17c-.08-.13-.11-.24-.05-.29l.35-.29c.13-.2-.05-.38-.19-.17-.64-.09-1.26.13-1.54.64l1.43.11c-.11.11-.18.37-.39.41-.03-.11-.22-.3-.3-.24l-.27.23c-.41.11-.91.28-1.14-.11l2.91-3.1c.03.16.09.22.15.24.22.07.22-.11.31-.15.69-.29,1.38-.08,1.63-.57.05,0,.13.03.16.12Z"/>
          <path class="cls-62" d="M77.2,13.84c-.22-.02-.35.13-.11.41-.27.1-.57.14-1.04.03.85-.85,1.26-1.36,2.43-1.13-.3.46-.69.77-1.27.69Z"/>
          <path class="cls-27" d="M76.55,15.46l-1.43-.11c.28-.51.9-.73,1.54-.64.14-.21.32-.03.19.17l-.35.29c-.06.05-.03.16.05.29Z"/>
        </g>
        <g>
          <path class="cls-49" d="M19.79,116.54c-.14.03-.18-.05-.25-.08-.15-.05-.15-.21-.16-.46l-.13-2.18-.06-1.83v-3.94c-.09-.08-.41-.14-.48-.09-.16.25-.29.58-.3.69.46.15.14.41,0,.45-.17.05-.49.01-.57-.11-.07-.11.13-.47,0-.47-.3-.01-.23-.23-.18-.28.13-.15-.08-.36-.27-.25-.01-.65.15-1.46-.07-2.1-.3-.85.04-1.6.04-2.45,0-3.03.2-5.91.5-8.91l.33-1.61,1.12-11,.16-2.46c.01-.18.06-.28-.18-.21-.11.03-.16.19-.16.22-.18,0-.2-.12-.21-.25,0-.08.04-.19.14-.32-.06-.51-.17-.83-.12-1.25.58-4.6-1.17-5.88-1.21-6.06l-.47-1.99-.06-12.35c0-.18-.1-.2-.22-.19l.09-8.14s.17-.06.35-.04l.57,3.99c.47-.27.66.12.11.2l.59,3.26c.12.67.18,1.33.24,1.93l.19,1.97.17,3.45c.07,1.49,0,3.03,0,4.54v5.87s.28,2.89.28,2.89c.43-.63.1-1.28.03-1.88-.06-.51-.05-.93-.12-1.37-.22-1.29,0-2.64,0-3.99v-8.21s-.18-2.57-.18-2.57l-.39-3.03c-.16-.89.04-3.14-.35-4.12-.27-.68-.09-1.49-.15-2.21.32-.15.21-.42-.1-.36-.15-.33.14-.35.16-.44.02-.15-.41-.39-.47-.25.03.26.21.55-.16.88-.22-.82-.29-1.57-.29-2.43.38.63.9.45.54.7-.07.05.13.17.25.08.06-.05.09-.1.07-.24-.01-.09-.18-.16-.15-.23.36-.69.69-1.06.41-1.24-.09-.06-.21-.03-.35.13-.03-.38.16-.45.27-.66-.26-.11-.28-.43.04-.53-.21-.34-.12-.84.17-1.1-.03-.07-.18-.48-.04-.47.2.01.48,0,.63.03-.03.2-.38.57-.09.69l.15,5.02c.02.52.2,1,.06,1.49-.06.22.1.46.07.82.08.2.23.03.3-.05.15-.17-.09-.39-.09-.54l-.1-4.09.12-6.05.21-1.13c.17-.92-.18-1.88.17-2.99.23.28.45.52.82.67.35.26.23.77,0,.96l.02,5.63c-.25.41-.36,1.1.13,1.47l.13-5.2.24-2.23,1.45,1.44c-.27,2.98-.24,5.91-.31,8.97l-.23,10.17-.07,3.51v4.79s.05,1.25.05,1.25l-.02,8.72-.05,15.84c0,.7.34,1.55.11,2.26-.28.86-.04,1.63-.04,2.47v11.9s0,5.65,0,5.65c-.45-.05-.18.3-.01.2.07-.04.1.38-.18.44-.02-.04-.09-.21-.25-.22-.1,0-.23.27-.15.25.1-.02.32.12.25.19l-1.66,1.54c-.45-.85-.45-1.77-.48-2.78l-.11-3.16-.17-6.59-.17-4.72-.14-2.72c-.66.27-.18.74-.17.99l.12,3.37.19,7.5.15,5.27.14,2.06Z"/>
          <path class="cls-88" d="M20.88,98.96l-.39-.04v-17.39c-.01-.12-.22-.39-.12-.42.06-.02.26-.15.26-.24v-2.69c.17-1.51.24-3.04.31-4.73v5.85c-.01.73-.12,1.46-.16,2.18l-.06.97v15.48s.17,1.03.17,1.03Z"/>
          <path class="cls-89" d="M20.88,98.96l.07,3.13.07,7.56c-.17-.22-.3-.62-.3-.8l-.07-9.4-.16-.53.39.04Z"/>
          <path class="cls-107" d="M20.67,116.55c-.29-.07-.38-.27-.37-.53l.09-4.02c.1.51.25.99.25,1.45l.04,3.11Z"/>
          <path class="cls-48" d="M20.68,54.18c-.03,1.46.27,2.2-.22,1.34-.19-.15-.24-.35.03-.52-.13-.09-.2-.19-.19-.37s.07-.38.38-.45Z"/>
        </g>
        <g>
          <path class="cls-135" d="M62.5,30.43l-.98,1.09c-.52.17-1.08.67-1.19,1.22-.04.03-.18-.03-.17.03-.73-.25-.44.54-1.46,1.42l-1.06.92c.14-.13-.14-.59-.35-.16-.25-.12-.36,0-.43.05-.12.1.05.29.11.24.15-.12.24-.2.67-.13-.65.56-1.28,1.2-1.97,1.76-.22-.13-.36-.3-.37-.45-.05-.46.45-.71.45-1.01.06,0,.18-.09.22-.12.16.02.46.06.55-.18.27-.76,1.11-.94,1.06-1.34-.01-.11.21-.26.29-.35.07-.07-.05-.23-.13-.33.47.02.6-.41.91-.74.02.21.23.24.26.05.22-.17.48-.37.53-.59.38.05.74-.17,1.09-.25v-.25c-.25.1-.48.21-.79.1l1.68-1.82c-.01.47.61.01,1.53.08-.34.23-.43.47-.41.76Z"/>
          <g>
            <path class="cls-103" d="M59.42,31.8c.02-.18.19-.29.29-.4.31.1.54,0,.78-.1v.25c-.34.09-.7.3-1.08.25Z"/>
            <path class="cls-104" d="M59.42,31.8c-.04.22-.3.41-.53.59-.03.19-.24.16-.26-.05.22-.24.41-.59.78-.54Z"/>
            <path class="cls-113" d="M57.57,33.76c.05.4-.79.58-1.06,1.34-.09.24-.4.21-.55.18l.73-.95c.23-.28.58-.47.88-.57Z"/>
            <path class="cls-16" d="M60.34,32.73c.11-.55.67-1.05,1.19-1.22-.37.41-.74.88-1.19,1.22Z"/>
            <path class="cls-139" d="M57.64,35.1c-.43-.07-.52.01-.67.13-.06.05-.22-.14-.11-.24.06-.06.17-.16.43-.05.21-.42.49.03.35.16Z"/>
            <path class="cls-138" d="M58.5,33.8c.23.02.16.27-.04.22-.41.06-.3-.37.04-.22Z"/>
          </g>
        </g>
        <g>
          <path class="cls-53" d="M99.31,38.88l.14,1.21c.42-.13.76.21,1.06.26.09-.03.29-.2.36-.08.03.05.16.2.24.23.78-.45,1.25.37,1.38.33.06-.02.21-.14.19-.18l-.17-.25c.62.02,1.11.18,1.73.09.39-.06.96.29,1.42.15-.01.23.3.34.33.21.02-.11-.1-.28.24-.24.86.11,1.92-.11,2.56.34.35.24.46,0,.76-.03l2.24-.21c.18.25.6.37.85.35-.25-.33.17-.43.31-.3.07.06.21.35.31.33.42-.25.9.03,1.33.11.31.05.86-.48,1.27.13l.72-.15c1.5-.3,2.47-.14,3.75-.05l1.63.11,6.73.43,4.72.56c.39.05.69.17,1.12.09.24-.04.71.32.99-.08.5.28,1.01.41,1.54.12.42.47.96.64,1.58.45.44.51,1.14.75,1.63.18.27.56.82.49,1.43.67l.23-.79,1.02.53c.83.06,1.44.47,2.05.94-.24.22-.1.4.07.43l-.22.29c-.12.16-.05.36.23.41.18.03.43.32.68.2-.06.52.16,1.02.51,1.39-.3.32.01.71.17.67-.08.18.14.31.22.52.03.07-.29.18-.09.37.07.07.28.25.27-.02v-.6c0-.14-.24-.31-.41-.26.05-.18.24-.38.35-.51-.35-.23-.42-.44-.32-.71-.13-.19-.57-.54-.71-.83.01-.13.11-.29-.01-.44s-.36-.12-.48-.14c-.09-.02-.14-.35-.21-.31.06-.48,1.35.11,1.56-1.04-.13-.45-.56-.89-.87-1.24-.29-.24.07-.56.34-.32l1.48,1.29.25-.52c.04-.08.25-.31.36-.06l.2.44c.03.06.19.03.26.03l.02,12.34c-.1-.03-.36-.05-.39.18-1.11,8.44-3.43,16.45-6.4,24.33l-1.38,3.68-1.97,4.77-1.17,2.49c-.09.19-.22.5-.22.66,0,.56,2.36-.34,2.36,1.09,0,.67-.24,1.38-.67,1.94-3.23,4.25-6.98,8.06-11.23,11.2l-1.03.7c-.73.5-1.51,1.04-2.33,1.46l-3.17,1.61c-.78.4-1.4,1.06-2.4,1l-.08.56c-.57-.03-1.08.2-1.61.34l-1.25.32-4.85.83-5.19.76c-.06,0-.19.29-.23.25s-.15-.18-.27-.17l-7.27.76-.61-.03c-.11,0-.18.22-.11.38l-6.86.08-7.4.17-12.22.17c-.37,0-.81.26-1.19.19l-3.14-.18c.56-.16,1.12-.09,1.75-.35-.87-.41-1.87-.33-2.84-.17-2.22.38-4.37.55-6.64.55l-32.54.06c-1.41,0-2.63-.66-2.99-1.94-.38-1.38-.47-2.73-.48-4.28l-.03-47.15c.16-.55.29-1.02.26-1.48.54-.03.53-.63.64-.89l.57-1.37c.16-.39.6-.8.36-1.25.14-.03.19-.13.25-.31l.8-2.46c.03-.08-.16-.3-.08-.33.05-.02.3-.04.34-.27-.15-.1-.39-.23-.32-.53l.33-1.42c.15.46.39.4.44.02.37-.13.53-.52.61-.78l-.15-.13c-.2.31-.34.74-.81.87-.12-.86.42-1.67.56-2.24.07-.3-.34-.77.29-1.15-.18-.14-.36-.35-.33-.46.26-.9-.11-1.49.6-1.63-.18-.02-.21-.29-.11-.28.12,0,.2.02.3-.12-.49.04-.51-.49-.03-.46-.19-.29-.11-.51.16-.75.12-.1.23-.08.54.17-.1-.57-.38-.52-.68-.63.11.35-.27.46-.33.2.14-.23.04-.46-.01-.69.26.2.5-.05.31-.37.13.04.26-.05.28-.18.01-.08-.02-.17-.09-.21-.04-.07-.23-.07-.32-.07.01-.25.03-.46-.22-.64-.11.37.03.61-.08.67-.07.04-.33.01-.52-.04-.11-.03-.04-.24.06-.27.14-.03.32.07.4-.25-.28.11-.51.19-.63-.17.59-.08,1.06.03,1.42.25.12-.25.35-.59.1-.23-.43-.31-.76-.44-1.15-.14l-.44-.75c-.46.04-.74.12-1.04.07-.03-.2-.34-.25-.31-.17.07.17-.07.42-.31.29.14-.63.32-1.04.59-1.55.12.21.15.55.16.39.7-.06,1.26-.18,1.74-.02.89.33,1.62.13,1.26-.04l-.35-.17c-.13-.06-.39.07-.39-.03,0-.12-.06-.34-.09-.4l4.02-.14,33.33-.16,31.82-.16,2.85-.14Z"/>
          <g>
            <path class="cls-148" d="M115.5,43.33l-2.54.02c-.99,0-1.72.16-1.87,0-.06-.07-.03-.41.05-.36s.42.18.47.02c-.18-.78-1.51-.11-1.26-.59.06-.11.17-.16.31-.15l.77.05.3-.32.56.11c1.03-.15,2.19-.47,3.23-.19.14.04.24-.13.28-.22.06-.12,1.91.21,2.26.19,1.41-.08,2.66.28,3.99,1.08.01.59-1.56.41-2.91.39h-1.03c-.33-.02-1,.29-1.21-.32-.39-.37-1.09-.22-1.38.3Z"/>
            <path class="cls-126" d="M55.69,58.01l-7.61-.13-10.49-.09.43-.35,6.79.08,5.92.2,4.96.1c.12.01.11.18,0,.19Z"/>
            <path class="cls-109" d="M111.79,49.21c-.75.11-1.52,0-2.33-.02l-5.58-.12c-.08-.03-.1-.1-.1-.15l7.59-.02.42.31Z"/>
            <path class="cls-164" d="M103.25,49.06l-7.76.04c-.33.35-.84.24-.99-.19h8.65c.06,0,.12.1.1.15Z"/>
            <path class="cls-79" d="M30.56,43.4c-.34.27-.58.27-.82.16s-.51-.28-.34-.63.62-.62.93-.49c.38.17.7.6.23.96Z"/>
            <path class="cls-41" d="M146.95,53.24c.55.88.68,1.89.23,1.87-.49-.02-.48-.87-.23-1.87Z"/>
            <path class="cls-51" d="M146.48,47.68c-.15.04-.46-.35-.17-.67-.35-.37-.57-.87-.51-1.39.14.29.57.64.71.83-.1.28-.03.49.32.71-.1.14-.3.33-.35.51Z"/>
            <path class="cls-37" d="M145.81,45.62c-.25.13-.5-.17-.68-.2-.29-.04-.35-.25-.23-.41l.22-.29c.07-.05.12.29.21.31.12.03.36,0,.48.14s.02.31.01.44Z"/>
            <path class="cls-69" d="M42.86,41.15c.29-.07.47.19.44.38-.03.18-.16.36-.37.39-.18.03-.36-.09-.42-.23-.09-.24.04-.47.35-.55Z"/>
            <path class="cls-1" d="M34.15,43.43c.15-.26.42-.16.52-.08s.21.27.11.49c-.04.09-.25.16-.36.13-.15-.04-.41-.3-.27-.54Z"/>
            <path class="cls-38" d="M38.6,113.28c-.37-.09-.69-.28-1.05-.49.41-.34.91-.03,1.05.49Z"/>
            <path class="cls-117" d="M29.79,112.09c.18-.07.34.12.34.22,0,.17-.08.32-.17.38-.14.1-.37.03-.41-.08-.06-.16-.05-.42.23-.53Z"/>
            <path class="cls-167" d="M132.33,78.91c.13-.51.31-.71.66-1,.02.48-.23.79-.66,1Z"/>
            <path class="cls-51" d="M146.48,47.68c.17-.05.4.12.4.26v.6c0,.28-.2.09-.27.02-.2-.19.12-.3.09-.37-.08-.2-.3-.34-.22-.52Z"/>
            <path class="cls-98" d="M26.38,59.46c-.18-.43-.07-.74.24-.93.18.43.07.74-.24.93Z"/>
            <path class="cls-50" d="M41.45,108.61c.13-.1.25-.06.37,0,.13.06.21.23.07.38-.12.13-.29.14-.39.09-.18-.08-.23-.33-.05-.46Z"/>
            <path class="cls-32" d="M27.12,47.87c0-.06.23-.11.36-.07.06.02.12.1.03.18-.04.04-.13.17-.19.18-.06,0-.21-.13-.2-.29Z"/>
            <path class="cls-115" d="M27.27,108.42c.12-.04.19.1.23.14.08.05.08.17-.02.18-.11.01-.25.02-.36,0-.08-.02-.07-.25.15-.32Z"/>
            <path class="cls-20" d="M26.9,54.2c.04.22-.12.38-.24.27-.03-.33.06-.4.1-.47.08-.13.4.03.14.2Z"/>
            <path class="cls-52" d="M25.05,104.71c.13-.22.24-.03.28.02.09.13.02.21-.1.3s-.31-.08-.18-.32Z"/>
            <path class="cls-97" d="M29.58,97.4c.13-.24.34-.11.38-.03.04.11,0,.22-.09.28-.07.04-.32.03-.29-.25Z"/>
            <circle class="cls-54" cx="25.61" cy="103.12" r=".18"/>
            <circle class="cls-74" cx="33.38" cy="43.79" r=".18"/>
            <path class="cls-42" d="M26.69,56.55c.15.34-.28.45-.22.04-.05-.2.19-.27.22-.04Z"/>
            <path class="cls-108" d="M28.7,43.76c.11-.21.24,0,.27.04.07.09.03.16-.03.2-.14.08-.34-.06-.25-.24Z"/>
          </g>
        </g>
        <g>
          <path class="cls-22" d="M133.62,118.2l-10.18-.44c-7.38-.32-13.35,1.82-18.37,1.82l-14.18.02-11.09.28-7.53.03-13.94.14c-5.13.05-10.1.06-15.11-.24.14-.18-.07-.54-.31-.4-.2.12-.34-.12-.31-.21l.1-.28,11.19-.08,2.82-.08c.11,0,.28-.13.42-.14l2.78-.13,2.02-.17,6.84-.77c.92-.1,1.87,0,2.67-.44l.75-.41c.25.49.63,0,.26-.24.23-.23.45-.12.46-.16l.1-.35s.38-.03.42-.2c.02-.07,0-.19,0-.28l4.62-.08,9.34-.16,11.41-.18,37.57-.19,4.91-.07,7.39-.04c.24.26.45.44.51.74l-6.16.28c-.33.02-.64.13-.94.07-.07.03-.1.1-.09.14.92.06,1.9.15,2.84.06.08.15.29.25.34.21l.33-.32,1.61-.03c.49,0,.92-.23,1.45-.08.36.1.7-.03,1.09-.09l1.6,1.71c-1.22.04-2.15.39-3.14.12-.13-.04-.44.6-.73-.04.03.29-.09.38-.21.35l-.63-.14c-.38.19-1.01.23-1.43.24l-6.31.14-4.8-.06c-.19-.04-.34,0-.35.18Z"/>
          <path class="cls-33" d="M97.11,117.37l-5.99.16c-.29,0-.63.31-.81-.28l3.19-.07,9.1-.11c.07,0,.12.13.1.15l-5.59.13Z"/>
        </g>
        <g>
          <path class="cls-149" d="M148.72,55.65l.09,10.66.12,11.32.03,7.57c0,.3.03.56.02.89l-.12,4.97c-.02.07-.31.06-.35,0-.53.24-.55.92-.79,1.33l-1.58,2.71-1.9,3.14-.86,1.15c-.03.13.03.43-.08.53-.06.05-.33.11-.37.18-.47.72-1.1,1.53-1.82,2.13-.09.07-.06.41-.16.45-.07.03-.26-.19-.5.07.17.26.52.26.57.5-.35-.02-.65-.3-.74-.2l-.34.35c-.6.21-.99.83-.95,1.27-.07-.28-.16-.24-.42-.21s-.7.46-.97.82c-.45.01-2.87,1.28-2.76,1.16-.19.21.26.94-.09,1.09,0-.24-.19-.32-.31-.3s.24-.35.18-.55l-1.41.62c-.15.07-.3.19-.48.19-.24,0-.46.15-.61.24-.33.19-.29.56-.13.82-.22-.08-.38-.23-.47-.38-.34.12-.94.19-.84.42l.2.46c.04.08-.35.24-.44.04l-.17-.38c-.33.51-.99.27-1.41.4-.78.25-2.1.84-2.34.77-.36-.1-.58-.01-.77.25-1.09.38-1.92-.01-3.81.36l-1.25.25c-.47.09-1.03.66-1.57.16-.03.14-.03.32-.15.39-.1.06-.25.03-.33.03l.08-.56c1,.06,1.62-.6,2.4-1l3.17-1.61c.82-.42,1.6-.96,2.33-1.46l1.03-.7c4.25-3.14,8-6.95,11.23-11.2.43-.57.67-1.28.67-1.94,0-1.43-2.36-.52-2.36-1.09,0-.15.13-.46.22-.66l1.17-2.49,1.97-4.77,1.38-3.68c2.97-7.88,5.29-15.89,6.4-24.33.03-.22.29-.21.39-.18Z"/>
          <path class="cls-56" d="M144.97,88.59c.13-.04.17.43.02.49-.05.02-.17-.12-.21-.16-.06-.06-.06-.26.19-.33Z"/>
        </g>
        <g>
          <path class="cls-152" d="M153.89,38.91s-.37-.14-.37-.05v.56s-.12,4.68-.12,4.68l-.12,3.17v15.94c0,.5-.05,1.05-.04,1.5l.09,4.04c-.1.09-.25.2-.26.28-.03.14.11.34.28.39l.07,14.59.71,12.35.12,4.12.09,2.09c.03.22,0,.32-.2.36-.39.08.12,1.22-.24,1.48-.1.07-.33-.02-.46-.06-.08-1.62-.06-3.32-.1-5l-.09-3.98c0-.06-.11-.12-.17-.1l.07,9.21c0,.56.22,1.18.06,1.69-.1.33-.13.48.08.77-.05.45-.18,1-.33,1.41l-.63.32c.08-.4.01-.77-.2-.87-.25.26-.17.72-.15,1.08-.42-.08-.51.37-.08.41v2.77c-.02.66-.04,1.21-.02,1.28.03.13-.17.2-.3.22.31-.03.42.44.29.47-.08.02-.43,0-.02.18-.03.39-.21.98.08,1.42-.24.01-.5-.15-.5-.08s0,.28-.19.15c-.17-.11-.27.1-.19.2.04.06.14.14.16.19-.1.19-.16.37-.23.42s-.3-.21-.3-.33l.04-1.62c.02-.73.25-1.23-.08-1.97.54-.02.42-.38-.03-.43.32-.17.44-.2.47-.45.02-.15.06-.44-.28-.46l-.14-4c-.07.04-.15.1-.21.1v6.92s-.11,1.69-.11,1.69l-1.46-1.48.21-7.78-.02-12.34c0-.49.15-.95.18-1.22-.38-.59-.1-1.62-.1-2.32l.1-9.36c.43.04.34-.39,0-.33-.08-.5-.21-1,.27-1.25-.34.05-.34-.2-.32-.37l.12-.76c.06-.39-.2-1.26.02-1.75.39,0,.22,0-.16-.04l-.05-5.08-.08-22.98c0-.47.23-.83.02-1.3.4.06.35-.23.04-.2l-.11-8.53c0-.65.32-1.21.98-1.47.02.33-.3.71.08,1-.2.3-.29.53-.43,1.1.04.14.18.23.33.21.38-.37.2-.08.28-.26l-.22.91c-.45-.3-.51.4-.03.14.17.13.11.4-.12.47.43.38.32,1.02.07,1.44-.32-.05.2.12.17.24-.03.14-.13.33-.3.52.33.05.65.67.4.77-.28.11-.47.43-.39.76.12-.01.42-.06.5.12-.31.28-.62.68-.45.97s.1.75.68.75l-.13-4.17c0-.13.11-.46.16-.37.05.1.13.45.4.15.29.95-.11,1.99-.07,2.88l.2,4.58.03,2.62c0,.47.17.91.03,1.46-.12.47,0,1.09.21,1.57l.07-6.17c.02-1.46-.13-2.91.15-4.48.24.02.24.76.37.42.39.15.3.68.21,1.06.02.23.23.29.42.23.08-.02.12-.12.02-.18-.05-.03-.23-.14-.3-.3-.06-.12.26-.37.24-.51-.01-.1-.16-.32-.22-.45.15-.37.45-.67.7-.91-.52-.21-.43-.56-.44-.81v-.59s.44-.44.44-.44c-.59-.33-.38-1.15-.23-1.54v-2.65c0-.32-.23-.79.14-.97.03.13.51.3.44.33-.08.03-.32.32.11.26.05.28.06.67,0,.99.27-.11.38.03.37.09-.01.07,0,.17.01.23Z"/>
          <g>
            <path class="cls-106" d="M153.44,104.35l.06,1.16c.01.25-.01.63-.28.67.15-.52-.06-1.13-.06-1.69l-.07-9.21c.06-.02.17.04.17.1l.09,3.98c.04,1.68.02,3.38.1,5Z"/>
            <path class="cls-3" d="M151.97,90.57c-.52-.48-.23-1.07-.27-1.58l-.11-1.17.08-1.79c-.32-.22-.09-.57.02-1.07.76.88,0,1.8.53,2.03-.55.69-.33,1.62-.12,2.25-.32.46-.15.84-.12,1.32Z"/>
            <path class="cls-3" d="M151.91,84.38c-.41.6-.05-.55-.64-1.01.58-.24.4-.96.15-1.29.22-.17.19-.29.2-.36.01-.14.32-.15.31-.06l-.13,2.37c0,.08.22.16.1.34Z"/>
            <path class="cls-176" d="M151.67,77.2c0,.07.22.23.13.34-.04.05-.11.14-.31.28l-.05-1.91c.03-.08.09-.09.12-.09l.11,1.38Z"/>
            <path class="cls-129" d="M150.41,96.03c-.1-.39-.08-.58-.03-.92.19.02.4.28.32.43l-.29.49Z"/>
          </g>
        </g>
        <g>
          <path class="cls-30" d="M148.74,100.74c-.16-.13-.41-.21-.57.04-.08.12-.06.35.2.42.11.03.2,0,.34-.1-.1,1.46.31,4-.27,4.12-.12.03-.46-.68-1.21-1.17.27-.18.54-.35.54-.53,0-.27-.27-.54-.45-.51-.2.04-.4.12-.63.25-.09.09-.37.19-.31.11.12-.18-.05-.37-.25-.25l-.4-.56c.26.66-.18.79-.23,1.01l-.52,2.13-.3.74c-.1.25.08.51.37.69,0,.1-.22.21-.38.12l-.78.86c-.12-.12-.28-.18-.44,0-.07.07-.06.38-.34.24l-.76.95c0-.08.05-.21,0-.3-.03-.07-.13-.14-.27-.1-.07.02-.17.12-.1.27.05.12.25.29.37.14-.06.19.32.28.43.12.06-.09.02-.27.4-.35-.03.28-.06.59-.17.91-.19-.25-.49-.25-.7-.18-.1.03-.2.24.17.45-.35.4-.45.93-.5,1.49-.31,0-.39.23-.44.41-.58.13-.06.71.14.17.48-.24.82-.72.65-1.23.17-.07.41-.19.38-.3-.02-.07-.06-.32.07-.44l.88.05c.3.02.31.35.09.43-.09.03-.33-.03-.41-.03.22.83-.76.78-.73,1.12l.04.44c-.29.17-.27.37-.13.49.29.25.63-.52.84-.31l.23.23c.18.17.35.11.54.04.11-.04.34-.15.05-.36.11-.19.4-.31.63-.39-.35-.38.22-.53.15-.12l.04.47c.01.16-.12.17-.27.25.93.42,1.6,1.2,1.35,1.16-.11-.02-.24,0-.3.11.27.14.5.1.74.11-.22.48-.71.22-.98.25l-1.49.15h-3.44c-.69-.01-1.4,0-2.18.01l-11.72.1c-.16,0-.19-.1-.19-.18,0-.21-.15-.19-.27-.2-.21-.02-.32.08-.24.33l-8.01.13-20.76.11c-.07-.16,0-.38.11-.38l.61.03,7.27-.76c.13-.01.23.13.27.17s.17-.24.23-.25l5.19-.76,4.85-.83,1.25-.32c0,.15.14.22.2.3.16.19.45-.06.57-.17.46.01.75-.06,1.41-.18-.3.35-.57.54-.48.98.4-.34.65-.62,1.3-.69-.19-.4-.44-.38-.85-.49.26-.26.76-.09,1.21,0l-.03.19c-.02.11.36.28.51.16.17-.15.27-.19.41-.2s.23.17.24.32c.28.08.29.13.36.17.11.07.28.02.28-.12,0-.21-.15-.31-.38-.29-.17-.21.04-.36.16-.43.2-.12.46-.08.71-.1.14-.09.21-.2.23-.26.04-.11.39-.11.41,0,.02.1-.31.38-.25.43.3.1.82.09,1.1-.03.11-.04-.15-.41-.26-.4-.09,0,.27-.25.36-.27s.28.25.2.3c-.18.11-.13.24-.04.29.09.05.26.06.36,0,.12-.08.07-.22-.08-.46.49.29.75.27,1.14.16.23-.06.48.2.7-.2.16-.29.24-.53-.04-.78.24.07,1.56-.52,2.34-.77-.13.2.08.5.32.18-.06.41.29.43.38.11-.05.62.51.52.33.07.03-.12.33-.21.51.03.22-.31.78-.17.96-.38s.47-.11.58.36c.18-.2.48-.28.62-.19.07.05.07.27.32.17.08-.18-.21-.56-.35-.6-.19.07-.49.09-.55-.01-.04-.06.06-.27,0-.3.12.12.21,0,.28.03.57.21.05-.55.53-.73.12-.04.04-.26-.07-.37.18,0,.33-.12.48-.19l-.09.3v.46c.07.29.52.16.35-.23l1.28-.31c.35-.15-.1-.87.09-1.09-.11.12,2.32-1.14,2.76-1.16l.62-.02c.14,0,.24-.27.37-.6,0,0,.14.19.2.24.05.04.2-.16.19-.24-.04-.43.35-1.06.95-1.27l.34-.35c.1-.1.4.18.74.2-.04-.24-.39-.24-.57-.5.23-.27.43-.05.5-.07.1-.04.07-.37.16-.45.72-.61,1.35-1.41,1.82-2.13.04-.07.31-.12.37-.18.11-.09.06-.4.08-.53l.86-1.15,1.9-3.14,1.58-2.71c.24-.41.26-1.08.79-1.33,0,.19.16.27.37.24l-.03,2.2-.04,2.18c-.01.69.21,1.6-.01,2.22s0,1.02,0,1.44l-.05,1.4Z"/>
          <g>
            <path class="cls-100" d="M148.74,100.74l-.02.36c-.14.1-.23.13-.34.1-.26-.07-.28-.3-.2-.42.15-.25.41-.17.57-.04Z"/>
            <path class="cls-40" d="M126.52,114.38c-.2.15-.3.13-.5.13-.08-.25.02-.36.24-.33.12.01.28,0,.27.2Z"/>
            <path class="cls-132" d="M125.76,110.11c.03.24,0,.46.1.73-.39.11-.65.13-1.14-.16.14.24.2.38.08.46-.09.06-.27.05-.36,0-.1-.05-.15-.18.04-.29.08-.05-.11-.31-.2-.3s-.45.28-.36.27c.11,0,.37.36.26.4-.28.11-.8.13-1.1.03-.05-.05.27-.33.25-.43-.02-.12-.37-.12-.41,0-.02.06-.09.17-.23.26-.25.02-.52-.02-.71.1-.11.07-.33.22-.16.43.23-.02.39.08.38.29,0,.14-.18.19-.28.12-.07-.04-.07-.1-.36-.17-.02-.15-.09-.32-.24-.32s-.24.05-.41.2c-.14.12-.52-.04-.51-.16l.03-.19c-.46-.09-.95-.25-1.21,0,.4.11.65.08.85.49-.65.07-.9.35-1.3.69-.1-.44.18-.62.48-.98-.66.12-.96.19-1.41.18-.13.11-.42.37-.57.17-.06-.08-.2-.14-.2-.3.53-.14,1.04-.37,1.61-.34.08,0,.23.03.33-.03.12-.07.12-.25.15-.39.55.5,1.1-.07,1.57-.16l1.25-.25c1.89-.38,2.72.01,3.81-.36Z"/>
            <path class="cls-76" d="M131.99,108.54c.06.03-.04.24,0,.3.06.1.36.09.55.01.14.04.43.42.35.6-.25.09-.24-.13-.32-.17-.14-.09-.44,0-.62.19-.11-.47-.39-.57-.58-.36s-.74.06-.96.38c-.18-.24-.48-.15-.51-.03.18.45-.38.55-.33-.07-.09.32-.44.3-.38-.11-.24.32-.45.02-.32-.18.42-.13,1.07.11,1.41-.4l.17.38c.08.19.48.04.44-.04l-.2-.46c-.1-.23.5-.3.84-.42.09.15.25.3.47.38Z"/>
            <path class="cls-124" d="M134.74,107.52l-1.28.31c.17.39-.28.52-.34.23v-.46s.09-.3.09-.3l1.41-.62c.06.2-.3.56-.18.55s.32.06.31.3Z"/>
            <path class="cls-36" d="M126.53,109.87c.28.25.2.48.04.78-.22.4-.48.13-.7.2-.11-.27-.07-.49-.1-.73.19-.26.41-.34.77-.25Z"/>
            <path class="cls-156" d="M131.99,108.54c-.16-.26-.2-.63.13-.82.16-.09.37-.24.61-.24.11.1.19.32.07.37-.48.18.04.94-.53.73-.07-.03-.16.09-.28-.03Z"/>
            <path class="cls-122" d="M138.98,104.67c0,.08-.14.27-.19.24-.06-.05-.2-.24-.2-.24-.13.32-.22.59-.37.6l-.62.02c.27-.36.7-.78.97-.82s.35-.07.42.21Z"/>
            <path class="cls-173" d="M134.37,110.72c.08-.04.19-.1.24.01l.13.3c.05.11.36.12.41.07l.34-.41.36.83c-.04.32-.22.35-.3-.01-.27.88-1.28.3-1.13.93-.41.02-.3-.2-.33-.3s-.04-.33.44-.38c-.19-.06-.3-.14-.32-.27-.04-.23.08-.51.18-.78Z"/>
            <path class="cls-67" d="M138.86,112.64c.06.12,1.51-.38.97.1l-.34.3s-1.12-.15-1.32-.93c.33-.34.78-.35,1.18.07-.2.21-.31.17-.38.18s-.16.2-.12.27Z"/>
            <path class="cls-173" d="M133.62,111.17c.02.28-.26.47-.45.53.36.09.08.53-.02.47l-.41-.29c-.14-.1-.34,0-.46-.06-.14-.24.18-.49.38-.18.13.2.36.22.39.1.02-.1.14-.22.1-.61.1.09.31.13.47.03Z"/>
            <path class="cls-65" d="M142.37,113.58c-.39.24-.47-.4-.96-.38.19-.14.58-.23.78-.18.12.03.22.21.26.25.08.09.01.25-.08.31Z"/>
            <path class="cls-12" d="M131,112c-.27-.04-.35-.1-.41-.15-.11-.08-.04-.17.02-.19l.34-.13c.08-.03.31.07.39.1.11.04-.05.42-.35.38Z"/>
            <path class="cls-101" d="M140.34,110.94c-.2-.03-.29-.5-.12-.73.24.04.52.46.12.73Z"/>
            <path class="cls-118" d="M138.39,110.51c.07-.28.39-.27.45-.03.03.11.1.21-.12.37-.11.08-.42.04-.33-.34Z"/>
            <path class="cls-173" d="M134.37,110.72l-.75.45c-.06-.31,0-.36.25-.48.19-.09.29-.2.5.02Z"/>
            <path class="cls-171" d="M139.5,106.59c.07-.02.18.09.22.14.14.18-.4.38-.47.26s.09-.34.25-.4Z"/>
            <path class="cls-2" d="M142.35,109.32c-.12.15-.32-.01-.37-.14-.06-.15.03-.25.1-.27.13-.04.23.03.27.1.05.09,0,.23,0,.3Z"/>
            <path class="cls-165" d="M137.15,110.78c.13-.04.17.43.02.49-.05.02-.16-.12-.2-.16-.06-.06-.06-.26.19-.33Z"/>
            <path class="cls-47" d="M132.29,111.83c.18.18-.03.22-.11.28-.15.12-.37-.09-.33-.23.04-.08.36-.1.44-.05Z"/>
            <circle class="cls-44" cx="125.27" cy="111.49" r=".18"/>
            <path class="cls-57" d="M146.97,97.73c.02-.17.25-.12.28,0,.02.07.03.2-.07.27-.06.04-.23-.12-.21-.26Z"/>
            <path class="cls-39" d="M139.45,105.5c.11.37-.33.37-.22,0-.05-.24.26-.24.22,0Z"/>
          </g>
        </g>
        <g>
          <path class="cls-55" d="M66.43,115.18l3.14.18,3.84.1c0,.09.02.2,0,.28-.04.17-.4.15-.42.2l-.1.35s-.23-.07-.46.16c.37.24-.01.73-.26.24l-.75.41c-.38.07-.78-.04-1.11,0l-7.49.86-1.91.15-2.46.19c-.72.06-1.47-.04-2.13.07l-.8.14-4.37.14-8.46.05c-.14,0-.33-.12-.37-.06-.04.07-.02.24.08.29.06.03.19.01.28.01l-.1.28c-.03.09.11.32.31.21.24-.14.45.22.31.4l-3.62-.34-1.56-.28-1.79-.18c-.64-.06-1.38-.12-2.08-.23l-3.28-.5-9.15-.16c-.47,0-1.06.54-1.54-.14.25-.27.52-.51.88-.73.22.71.45.38.59.33,1.35-.51,3.08-.21,4.66-.33l1.29-.28c-1.99-.19-3.93,0-6.07.08.33-.54.87-1.48,1.54-1.47l3.82.06,30.73-.07,8.81-.4Z"/>
          <path class="cls-72" d="M71.43,117.1c-.8.44-1.75.33-2.67.44l-6.84.77-2.02.17-2.78.13c-.14,0-.31.14-.42.14l-.37-.4c.66-.11,1.41-.02,2.13-.07l2.46-.19,1.91-.15,7.49-.86c.33-.04.72.07,1.11,0Z"/>
          <path class="cls-140" d="M56.32,118.36l.37.4-2.82.08-11.19.08c-.09,0-.22.02-.28-.01-.1-.05-.12-.23-.08-.29.04-.06.23.06.37.06l8.46-.05,4.37-.14.8-.14Z"/>
          <path class="cls-8" d="M40.52,117.89c-.38.26-1.03-.02-1.55-.23.34-.63,1.03-.71,1.72-.71.42,0,.69.32.87.66-.1.19-.39.26-.54.31s-.29-.31-.5-.02Z"/>
        </g>
        <g>
          <path class="cls-60" d="M27.3,39.48c.03.06.08.28.09.4,0,.1.26-.03.39.03l.35.17c.36.17-.37.37-1.26.04-.49-.16-1.04-.04-1.74.02,0,.17-.04-.17-.16-.39-.28.51-.45.92-.59,1.55.24.13.38-.12.31-.29-.04-.09.27-.03.31.17.3.06.58-.02,1.04-.07l.44.75c.39-.29.72-.16,1.15.14.25-.36.01-.02-.1.23-.37-.21-.84-.33-1.42-.25.12.35.35.28.63.17-.08.32-.26.22-.4.25-.11.03-.18.23-.06.27.19.05.45.08.52.04.11-.06-.03-.3.08-.67.24.18.23.39.22.64.09,0,.28,0,.32.07.07.05.1.13.09.21-.02.13-.15.21-.28.18.2.31-.05.56-.31.37.05.22.15.45.01.69.06.26.44.15.33-.2.3.1.58.05.68.63-.31-.25-.43-.28-.54-.17-.27.24-.34.47-.16.75-.48-.03-.47.5.03.46-.09.14-.17.13-.3.12-.1,0-.08.27.11.28-.71.14-.35.73-.6,1.63-.03.11.15.32.33.46-.63.38-.22.85-.29,1.15-.14.57-.68,1.38-.56,2.24.47-.13.6-.56.81-.87l.15.13c-.08.27-.24.65-.61.78-.05.38-.3.44-.44-.02l-.33,1.42c-.07.31.18.44.32.53-.04.23-.29.25-.34.27-.08.03.11.25.08.33l-.8,2.46c-.06.18-.11.28-.25.31-.35.07-.73.95-.7,1.15.02.12.22.14.33.1l-.57,1.37c-.11.26-.11.87-.64.89-.1-1.57-.21-3.23.08-4.87.06-.35-.09-.86-.07-1.38l.36-8.46c.06-1.5.12-2.91.07-4.46-.02-.58.05-1.25.73-1.58.88-.43,2.17-.15,3.19-.19Z"/>
          <path class="cls-58" d="M24.15,58.16c-.11.04-.31.02-.33-.1-.03-.2.35-1.09.7-1.15.24.44-.2.85-.36,1.25Z"/>
          <path class="cls-46" d="M25.51,42.91c.06.07-.33.96-.59.58-.2-.28.5-.37.32-.65-.05-.07.21,0,.27.07Z"/>
          <path class="cls-134" d="M23.85,46.03c.13-.04.18.41.02.49-.06.03-.16-.12-.2-.16-.06-.07-.06-.26.19-.33Z"/>
          <path class="cls-4" d="M25.97,48.13c.11-.21.23,0,.27.04.08.1.02.17-.02.2-.14.08-.34-.06-.24-.24Z"/>
        </g>
        <g>
          <path class="cls-172" d="M107.62,23.25c-.32-.02-.17.33.15.94l.05-.77c.43.31.98.85,1.25,1.26.03.12-.12.43.09.58.08.06.31.01.31-.22l2.15,2.18.06,1.33c.2-.2.13-.45.12-.63,0-.11.25-.18.41-.15l1.26,1.29c-.17.22-.07.69.24.93.14-.15.12-.36.1-.53.67.39,1.11,1.07,1.65,1.59-.55.2.76,1.04.63,2.5-.43,0-.45-.36-.62-.49,0,.42.32.61.4.9.34-.31.43.07.5.27.05.14.17.43-.22.46l-1.53.12-3.8.17-5.89.18-7.19.19-7.51.19-3.47.15c-.28.01-.66.31-.9-.09-.14.23-.25.22-.45.3.54.21,1.14,0,1.73-.02l4.72-.15,9.32-.2,7.37-.19,4.62-.17,2.79-.15c.53-.03.82.01,1.35.26-.71-.96-.98-1.88-.9-2.91.86.76,1.41,1.73,1.49,2.75l.1.38c.03.1.2.13.31.2.22.05.24-.07.32-.02.11.07.17.37-.07.43-.13.03-.29-.04-.53-.34-.03.28-.05.72-.42.73l-9.59.13-7.57.18-6.63.17-6.16.18-2.71.09c-.07.04-.1.1-.1.17l5.24-.07,7.91-.19,6.65-.16,13.13-.17c.1.66.25,1.04.62,1.57-1.41.21-2.74.1-4.12.11l-10.74.05-1.83.1-22.22.1c-.42,0-1.08.33-1.53.13-.71-.32-1.26-.04-1.92-.04l-29.61.15-23.34.07-1.26-1.34h2.99s9.93.1,9.93.1c.05,0,.12-.11.1-.17l-3-.12-8.15-.2c-.86-.02-1.7.15-2.68-.27.55-.44,1.18-.28,1.82-.29l5.45-.09c0-.13-.18-.35-.35-.34-1.02.07-2.1-.16-3,.1-.64.18-1.13-.03-1.69-.02l-2.44.04c-.25,0-.57-.39-.63-.67,1.29-.26,2.38-.13,3.58-.18l6.95-.29,3.91-.16,4.16-.17c.73-.03,1.4-.11,2.08-.1l4.48.1,3.45.17,2.51.19c1.32.1,2.68-.08,3.98.32-.55.38-1.14.84-1,1.33.26.91.89,1.22,1.58,1.31.78-.13,1.43-.51,1.59-1.29l3.93-3.81,3.3.06c5.21-.17,10.36.27,15.65.57,1.47.08,2.91.35,4.37.29l18.7-.72,6.43-.28,5.23-.1c-.18-.2-.34-.21-.36-.32-.07-.12-.21-.28-.1-.4-.06-.4-.49-.61-.73-.88-.07.06-.1.11-.11.17-.86-.69-1.52-1.49-2.32-2.39-.4-.45-1.18-.93-1.45-1.36.24-.1.12-.2.07-.26-.1-.12-.2-.2-.33-.13l-.88-.78-1.23-1.39c-.67-.42-1.05-.97-1.5-1.47l.03-1.28c0-.25.05-.5.04-.79.48.46,1.09.9,1.43,1.48Z"/>
          <g>
            <path class="cls-121" d="M112.2,27.77c-.16-.03-.42.04-.41.15,0,.17.08.43-.12.63l-.06-1.33.59.55Z"/>
            <path class="cls-144" d="M113.8,29.46c.02.17.03.38-.1.53-.31-.25-.41-.71-.24-.93.14.14.16.3.35.41Z"/>
            <path class="cls-145" d="M107.82,23.42l-.05.77c-.32-.61-.47-.97-.15-.94.11,0,.17.11.2.18Z"/>
            <path class="cls-13" d="M109.46,25.03c0,.24-.23.28-.31.22-.2-.15-.06-.46-.09-.58.16.06.33.23.39.35Z"/>
            <path class="cls-90" d="M60.16,32.76c1.41.48,3,.14,4.52.13v.38s-3.3-.06-3.3-.06l-3.93,3.81c-.16.77-.81,1.15-1.59,1.29-.69-.09-1.32-.4-1.58-1.31-.14-.49.45-.95,1-1.33-1.3-.4-2.66-.22-3.98-.32l-2.51-.19-3.45-.17-4.48-.1v-.17s5.93.09,5.93.09l3.21.18,2.81.15,2.93.24c0,.31-.5.55-.45,1.01.02.15.16.31.37.45.7-.57,1.33-1.2,1.97-1.76l1.06-.92c1.02-.88.74-1.67,1.46-1.42Z"/>
            <path class="cls-73" d="M59.75,36.95l1.91-.15,2.43-.15,5.86-.71,7.91-1.27c.02.08.08.14.12.19l-4.81.85-7.57,1.05-2.3.23-3.25.1c-.14,0-.22,0-.29-.13Z"/>
            <path class="cls-66" d="M52.5,36.71c-.08-.03-.39.19-.32.28.08.12.21.33.19.51-.2.17-.49.09-.88.06-.39.06-.31-.37.04-.16.32,0,.14-.22.05-.25-.21-.08-.31-.06-.57.03-.18.06-.26-.38-.09-.47.07-.04.09-.17.36-.12.17-.31.45-.4.75-.29.17.07.43.1.47.4Z"/>
            <path class="cls-80" d="M106.15,22.56l-.03,1.28c-.15-.17-.48-.27-.52-.57.32-.26.25-.74.19-1.11.3.01.02.39.36.4Z"/>
            <path class="cls-29" d="M114.6,32.32c-.44-.05-.62-.53-.84-.71,0-.06.03-.11.11-.17.25.27.67.48.73.88Z"/>
            <path class="cls-86" d="M52.36,37.51c.02-.18-.11-.39-.19-.51-.07-.1.24-.32.32-.28.03.22.1.6-.13.8Z"/>
            <path class="cls-130" d="M109.99,27.86c-.07-.11-.32-.13-.26-.38.13-.07.24,0,.33.13.05.06.17.16-.07.26Z"/>
          </g>
        </g>
      </g>
    </g>
  </g>
</svg>