<?xml version="1.0" encoding="UTF-8"?>
<svg id="Layer_2" data-name="Layer 2" xmlns="http://www.w3.org/2000/svg" viewBox="0 0 72.75 80.97" xmlns:c2pa="http://c2pa.org/manifest"><metadata><c2pa:manifest>AABtPmp1bWIAAAAeanVtZGMycGEAEQAQgAAAqgA4m3EDYzJwYQAAADU9anVtYgAAAEdqdW1kYzJtYQARABCAAACqADibcQN1cm46YzJwYTo3YTkyNjZjOS1jNThmLTQxMTgtYTgyZC1kZDk4MTllNjE2Y2EAAAAC6Wp1bWIAAAApanVtZGMyYXMAEQAQgAAAqgA4m3EDYzJwYS5hc3NlcnRpb25zAAAAAfVqdW1iAAAAQWp1bWRjYm9yABEAEIAAAKoAOJtxE2MycGEuYWN0aW9ucy52MgAAAAAYYzJzaFrG0voX6mKePIDBkHNhyIsAAAGsY2JvcqJnYWN0aW9uc4GlZmFjdGlvbmxjMnBhLmNyZWF0ZWRkd2hlbsB4GzIwMjYtMDktMjBUMTY6NDA6MDAuMzg1NjM5Wm1zb2Z0d2FyZUFnZW50cEZpcmVmbHkgVmVjdG9yIDRqcGFyYW1ldGVyc6J4G2NvbS5hZG9iZS5kaWdpdGFsU291cmNlVHlwZXhGaHR0cDovL2N2LmlwdGMub3JnL25ld3Njb2Rlcy9kaWdpdGFsc291cmNldHlwZS90cmFpbmVkQWxnb3JpdGhtaWNNZWRpYXFjb20uYWRvYmUuZ2VuQWlJZHgkMjBlY2JlN2EtZDhhZi00MTM5LThhMTAtY2MxMjIzZDc2YTQ2cWRpZ2l0YWxTb3VyY2VUeXBleEZodHRwOi8vY3YuaXB0Yy5vcmcvbmV3c2NvZGVzL2RpZ2l0YWxzb3VyY2V0eXBlL3RyYWluZWRBbGdvcml0aG1pY01lZGlhaXRlbXBsYXRlc4GiZmFjdGlvbmEqcnRlbXBsYXRlUGFyYW1ldGVyc6F1Y29tLmFkb2JlLmFwcEVuZm9yY2Vk9QAAAMNqdW1iAAAAQGp1bWRjYm9yABEAEIAAAKoAOJtxE2MycGEuaGFzaC5kYXRhAAAAABhjMnNo6dlHF9p49aiKwwT/e8Y0jQAAAHtjYm9ypWpleGNsdXNpb25zgaJlc3RhcnQYIWZsZW5ndGgZNW9kbmFtZW5qdW1iZiBtYW5pZmVzdGNhbGdmc2hhMjU2ZGhhc2hYIDNSNrzsuqL3W+VSdqspKd0EOUKGHfKqI3FCZSq+kqsEY3BhZEgAAAAAAAAAAAAAAfVqdW1iAAAAJ2p1bWRjMmNsABEAEIAAAKoAOJtxA2MycGEuY2xhaW0udjIAAAABxmNib3Kmamluc3RhbmNlSUR4LHhtcDppaWQ6YjgxYjgzZDYtMzkyMy00YjY4LTk5OTItYmUyZWViMTM4MDI4dGNsYWltX2dlbmVyYXRvcl9pbmZvomRuYW1lbUFkb2JlIEZpcmVmbHl3b3JnLmNvbnRlbnRhdXRoLmMycGFfcnNmMC44Ni4xaXNpZ25hdHVyZXhNc2VsZiNqdW1iZj0vYzJwYS91cm46YzJwYTo3YTkyNjZjOS1jNThmLTQxMTgtYTgyZC1kZDk4MTllNjE2Y2EvYzJwYS5zaWduYXR1cmVyY3JlYXRlZF9hc3NlcnRpb25zgaJjdXJseClzZWxmI2p1bWJmPWMycGEuYXNzZXJ0aW9ucy9jMnBhLmhhc2guZGF0YWRoYXNoWCAoiwi4FV+Nhq691jrg4YHVZRVIXMAQKNm75lbiedLMcXNnYXRoZXJlZF9hc3NlcnRpb25zgaJjdXJseCpzZWxmI2p1bWJmPWMycGEuYXNzZXJ0aW9ucy9jMnBhLmFjdGlvbnMudjJkaGFzaFggePBSg4GwviUuIVIGzN2GUmMwigzKZfLlIrD532yEIkVjYWxnZnNoYTI1NgAAMBBqdW1iAAAAKGp1bWRjMmNzABEAEIAAAKoAOJtxA2MycGEuc2lnbmF0dXJlAAAAL+BjYm9y0oRZDRuiATgkGCGCWQanMIIGozCCBIugAwIBAgIUDmr8FKDzKXhm/XQmRsCCL6pq1uswDQYJKoZIhvcNAQELBQAwdTELMAkGA1UEBhMCVVMxIzAhBgNVBAoTGkFkb2JlIFN5c3RlbXMgSW5jb3Jwb3JhdGVkMR0wGwYDVQQLExRBZG9iZSBUcnVzdCBTZXJ2aWNlczEiMCAGA1UEAxMZQWRvYmUgUHJvZHVjdCBTZXJ2aWNlcyBHNDAeFw0yNjA4MjAxNjM0MTZaFw0yNzA4MjAxNjM0MTZaMIGyMRowGAYDVQQDDBFBZG9iZSBJbGx1c3RyYXRvcjEoMCYGA1UECwwfQ29udGVudCBBdXRoZW50aWNpdHkgSW5pdGlhdGl2ZTETMBEGA1UECgwKQWRvYmUgSW5jLjERMA8GA1UEBwwIU2FuIEpvc2UxEzARBgNVBAgMCkNhbGlmb3JuaWExCzAJBgNVBAYTAlVTMSAwHgYJKoZIhvcNAQkBFhFjYWktb3BzQGFkb2JlLmNvbTCCASIwDQYJKoZIhvcNAQEBBQADggEPADCCAQoCggEBANokiSVjjpV8aRWNKu+rcALDOzUGfQZ4TAiDgdAGm9weHHd7WrYZgUyXww0jUH4L/oQk7kge3bTJt/OUrs4H45vDdaKQd6rIfEh0IWdS0CkimxaacnIHJgY2YqGQSspJLXRNJUR1QmTZAhR2sipM1IURisN+U7Lw/t5JeTR7MsiQ+UMKQwB85gJJUj/P1IG3tljmui1JJlQAuuQzaeZeynIVYGhH1w8kgCpqQnJpCqaksXl1RWa3lFU1K4avIDmGJhGI3J3gTkB+qCKGT7h0p/WjCsRKD9qq+4UwipChSQdK/CiIRB5U1dG2I0maEH7CcYr0sKUkqcueBdcxazhKa88CAwEAAaOCAeswggHnMA4GA1UdDwEB/wQEAwIHgDAqBgNVHSUEIzAhBgkqhkiG9y8BAQwGCisGAQQBg+heAgEGCCsGAQUFBwMEMB0GA1UdDgQWBBQunfsQtEpnOejuivgOBCc/BmimZDAfBgNVHSMEGDAWgBTQrUKK8HoUByXGl8BDqCOF6LUtIzCBjgYDVR0gBIGGMIGDMIGABgkqhkiG9y8BAgMwczBxBggrBgEFBQcCAjBlDGNZb3UgYXJlIG5vdCBwZXJtaXR0ZWQgdG8gdXNlIHRoaXMgTGljZW5zZSBDZXJ0aWZpY2F0ZSBleGNlcHQgYXMgcGVybWl0dGVkIGJ5IHRoZSBsaWNlbnNlIGFncmVlbWVudC4wDAYDVR0TAQH/BAIwADCBgAYIKwYBBQUHAQEEdDByMCgGCCsGAQUFBzABhhxodHRwOi8vb2NzcC5vbmUuZGlnaWNlcnQuY29tMEYGCCsGAQUFBzAChjpodHRwOi8vY2FjZXJ0cy5vbmUuZGlnaWNlcnQuY29tL0Fkb2JlUHJvZHVjdFNlcnZpY2VzRzQuY3J0MEcGA1UdHwRAMD4wPKA6oDiGNmh0dHA6Ly9jcmwub25lLmRpZ2ljZXJ0LmNvbS9BZG9iZVByb2R1Y3RTZXJ2aWNlc0c0LmNybDANBgkqhkiG9w0BAQsFAAOCAgEAFJK+2Fb3/UAuBJ8I/t7/djCK/MFJThIX5AWrm6Xy8p/m9tzvScX+iOaX+AJWqJWtZ79C7gOwMBZutTjRFvwNpoR1RSjH5VnAY0FgU2Z71m9BSNn8yR3usxGu4E4Lo81HAs5uM7k1MqVzJr8WN6nj1y6qw8dMGerKeI+mIEsPFcwrjClOFXw+ib+B6X6ianw42UJfBwFsQLHTwQaFiGe/c/5Nn+6F+2MQkALo4FgDBXb78xO0lyRyddpdSR3w5f2mJi7T6LiqiOsJaPpBylzYoLU+Cz2cpgIixi9fz/CNJhpCnJYY2JHylQGwQL0W2/EK0I7gCS8wb007tYfTdW37Zt/pI6sC9tz0PBPoKajmIEYYP/BP+ZPFIhROUak/QLKZDSUYgZQIHG/8At4ZA6GGW6CPmda5Z5mpTNPEGWVHb+ntvS4qBjF7Wt1SKepng8c7xF3wgj3GAGYTTMi+6NElqIbAV7tny3E3p1PmJFvAiv/eB8LQ9HfOiKYn7WE+zIxOUriD6De+ISs+gIReaeeE0wnU4dEbzPtkdyGnOr68cDEDZUU1IlryJPznp4ojKFBisLNbl/lsH3liUIQlkR9kcvmavEhQyrhPaZp9RDiaS3cqJ1x2sVlNTQmwKUJObCReE6LcfARPseb4Ynv5J4/nC7a3Cj7LFWJrZtAdQh0FwzRZBmcwggZjMIIES6ADAgECAhAO4brfrXiubya9USWYB4gvMA0GCSqGSIb3DQEBCwUAMGwxCzAJBgNVBAYTAlVTMSMwIQYDVQQKExpBZG9iZSBTeXN0ZW1zIEluY29ycG9yYXRlZDEdMBsGA1UECxMUQWRvYmUgVHJ1c3QgU2VydmljZXMxGTAXBgNVBAMTEEFkb2JlIFJvb3QgQ0EgRzIwHhcNMjQxMTIwMDAwMDAwWhcNNDQxMTE5MjM1OTU5WjB1MQswCQYDVQQGEwJVUzEjMCEGA1UEChMaQWRvYmUgU3lzdGVtcyBJbmNvcnBvcmF0ZWQxHTAbBgNVBAsTFEFkb2JlIFRydXN0IFNlcnZpY2VzMSIwIAYDVQQDExlBZG9iZSBQcm9kdWN0IFNlcnZpY2VzIEc0MIICIjANBgkqhkiG9w0BAQEFAAOCAg8AMIICCgKCAgEArEX4gLFYSLzO6YKZ4sKJTtqzpEMSSAH/LqcVd5x4wBALlp/ILNd5bJAmiU7sKaLg3Dm+17F0PfNULAbtxQCfeQes1os22QZL6qnuMIbdCm8BKR1H66M6nJaI4H+IGXJZH7x2MWmO/c3fbe1HgOif3N5nbf4Zy2WZ34Pkq8jXMpB1Zgcq0zEUlpEpfCt5s4TiK3iVWg99jzje9703ty4mUXKPZW7c0uuvVGAQX6N1QAATKdOEYpVWhQobVpua6+YurfguW4BxEgwTRMTwS4Yw2+iZMsBgjZzgxJfGGsmpOGVZGj4yxeL4nlL9Viyb6G93gWXC6z6oXhwD7VAQM0yKJ3E9MyOLc5c0CGycVY0UUG3RHNM1IWw5A5sMpOj3RgG8R9PokaqPCSvuER+PzuBw1VeTOglIcQAMniQ2cm7muB5/Yu9inh0bUSlCyQYytlqrnmANxspWbiudjkz3eUewbgMS6x//diKF0851zSwOCYMMmK5BHoaVvV8rhJ7Qn2+iZdJJbWncgK/dNSl4p38ZFvcKEMWkx8cO/RSN8JGH155EFcUYJaQHoNS9IzPq4AcWkO5eJHJ6ZGOOzMlNbDHSnocHIx229FCGED8l+ARwsS1RxvkxOgKv4PAg7hlqg1qS0m8k5Ae0bRNBsCuEiD7/flStNtU9tmDunGZCeNOBs+8CAwEAAaOB9zCB9DASBgNVHRMBAf8ECDAGAQH/AgEAMDUGA1UdHwQuMCwwKqAooCaGJGh0dHA6Ly9jcmwuYWRvYmUuY29tL2Fkb2Jlcm9vdGcyLmNybDAOBgNVHQ8BAf8EBAMCAYYwVwYDVR0gBFAwTjBMBgkqhkiG9y8BAgMwPzA9BggrBgEFBQcCARYxaHR0cHM6Ly93d3cuYWRvYmUuY29tL21pc2MvcGtpL3Byb2Rfc3ZjZV9jcHMuaHRtbDAdBgNVHQ4EFgQU0K1CivB6FAclxpfAQ6gjhei1LSMwHwYDVR0jBBgwFoAUphzhbVQkTKiPSHK/bqmM1eTsMdQwDQYJKoZIhvcNAQELBQADggIBAJGWqENTTs5YuaFrb5im1gQwWve0QT2+EEuWeU3uh4pFb1LxRUQYlQ3AafDgczLYgh4YZzqmfaH6zplXrEnwJ2OAxPxmnk61o017k7+offsQROwPE3v2VQOiVYCc70ZPUufV9PbnPuf6KVI9DkQxTMqxNGyWokxVB5M5hY1hfzT54V6hPz/Szo1kuzGh3DiX6kFF3K8jmDaD++DFNg9CN2MF6ogg8Fl9bk8jpYnB6wlbrm1dqp3UY2aSQM+U7dlxLyqPRM43GkJ+sOyNOb46lf2TZi/KWO7P8YuyybD2GnDA5r2BIg6FWtHWFIKhaSsdDUpZ5p509ESLQB2VDQ1cKU+Z/sDEJk3x7h+Q2i9249fJOcjjec3w8UyxSbJJTFv1G3JY4fzsq4mMFWSBfY9shG8LGdDpGvMSUxvMp/D+gNGzw+yr+abc6pXEYTwmoQfvKXeYtrs5ASTpsAyOoSg5GTG50ZN/Rt7JXvYi7kyWSUhn0vcntcsg5uZRGBWEl/OYF+5svB9EabVppJx97IIv/fxPSMq0qpiSUOLUDdVtY8FIyfywJxLtw6ttEtC2bVjqoRL7MTku+38eexUB4HVxpC7E/4VuVztrjFBvqxGbLoWZVYVurALXLN5dtKj2SLb7N3c57ODJ82ZaCgSPczCVtBcw2L1WryQD0d/itrIuzbx+o2dzaWdUc3QyoWl0c3RUb2tlbnOBoWN2YWxZDlAwgg5MBgkqhkiG9w0BBwKggg49MIIOOQIBAzEPMA0GCWCGSAFlAwQCAQUAMIGCBgsqhkiG9w0BCRABBKBzBHEwbwIBAQYJYIZIAYb9bAcBMDEwDQYJYIZIAWUDBAIBBQAEIFyefMVxLO9khGQTBVBNW+OXjt/0fxdhF8agG+qBkmg3AhEAo2iyGnXmPy042k2imIq3/hgPMjAyNjA5MjAxNjQwMDBaAghXF/j/fXWxsqCCC9owggUeMIIDBqADAgECAhADYpL+b9qxJLpvQsseCRgWMA0GCSqGSIb3DQEBCwUAMGkxCzAJBgNVBAYTAlVTMRcwFQYDVQQKEw5EaWdpQ2VydCwgSW5jLjFBMD8GA1UEAxM4RGlnaUNlcnQgVHJ1c3RlZCBHNCBUaW1lU3RhbXBpbmcgUlNBNDA5NiBTSEEyNTYgMjAyNSBDQTEwHhcNMjYwODA1MDAwMDAwWhcNMzcxMTA0MjM1OTU5WjBfMQswCQYDVQQGEwJVUzEXMBUGA1UEChMORGlnaUNlcnQsIEluYy4xNzA1BgNVBAMTLkFkb2JlIFNIQTI1NiBFQ0MyNTYgVGltZXN0YW1wIFJlc3BvbmRlciAyMDI2IDEwWTATBgcqhkjOPQIBBggqhkjOPQMBBwNCAASzFO3J88vcWKQeZ3eOcX3KdXoiCDK0ZgJcalds3840+dEM28WV/oLt4T++qYlCoQ/qxlHQXXwjzn+8ruUjL8wEo4IBlTCCAZEwDAYDVR0TAQH/BAIwADAdBgNVHQ4EFgQUoZ8/6qjq6oj7ODmRMYNVxx6xYQYwHwYDVR0jBBgwFoAU729TSunkBnx6yuKQVvYv1Ensy04wDgYDVR0PAQH/BAQDAgeAMBYGA1UdJQEB/wQMMAoGCCsGAQUFBwMIMIGVBggrBgEFBQcBAQSBiDCBhTAkBggrBgEFBQcwAYYYaHR0cDovL29jc3AuZGlnaWNlcnQuY29tMF0GCCsGAQUFBzAChlFodHRwOi8vY2FjZXJ0cy5kaWdpY2VydC5jb20vRGlnaUNlcnRUcnVzdGVkRzRUaW1lU3RhbXBpbmdSU0E0MDk2U0hBMjU2MjAyNUNBMS5jcnQwXwYDVR0fBFgwVjBUoFKgUIZOaHR0cDovL2NybDMuZGlnaWNlcnQuY29tL0RpZ2lDZXJ0VHJ1c3RlZEc0VGltZVN0YW1waW5nUlNBNDA5NlNIQTI1NjIwMjVDQTEuY3JsMCAGA1UdIAQZMBcwCAYGZ4EMAQQCMAsGCWCGSAGG/WwHATANBgkqhkiG9w0BAQsFAAOCAgEAshb9hLwGuuw76cOfW/HsV3LmYZnItVSjaxxp1wOl5Zh2KF9f6mkw/6/OVAv3e0dbOvOcRyoNmsXlC2t1XJ48SI8t64XAHw5mQowcm2LndS3LL9Z4YB1A4S+7z0F3iD24rW6c5xScq8idPHlMW0O9ZpHNhBFRW9LFtR3/o5VgaTapO5kU8khcWShNxPPt7sC6J04Ys7Vzcv2idy8MnqSAzeE4hS0urKvKN8Mwbt8kFrakfb4UkHTUSsUP+IsAo5AuqrHmYyJ/ansc1RYtcmpjzGqCwoxa5spFbDT7jQFG8CtgK7T3D6QXE8WoAquCyr0rzfsWjfiPnTJ/TdYt3Lh9phW468AqTG8mNBl+n1XX5KWocQMIdO0Npc3nA6K7HTnwDNJekqVGsRUDXcQtT93Skqd3V36tcs4Z+1iX5x74TtShz+D6/V26Em0l1GxrlJTJuEykey9C5zTopxMQyLN9qxoPFc3T7588+EvgbEFchumQJQaG8nzIVcEwtSOYUmkX1wpooC3xkHwHd89r/d9Ku+oB3kLDUmTnuXYQjslDWrK6d34Bs8Dc67oZQr9iugwVpkNFtShMFzp9V5pXnClb8t4Xju7Jp4bgzK60Hgr+lvdhnxcHqBvnQ5WGWO4DM6GzdPnBOalz0vmf0ygbNNzceboREkf8l8ojE6bE9TiCGsYwgga0MIIEnKADAgECAhANx6xXBf8hmS5AQyIMOkmGMA0GCSqGSIb3DQEBCwUAMGIxCzAJBgNVBAYTAlVTMRUwEwYDVQQKEwxEaWdpQ2VydCBJbmMxGTAXBgNVBAsTEHd3dy5kaWdpY2VydC5jb20xITAfBgNVBAMTGERpZ2lDZXJ0IFRydXN0ZWQgUm9vdCBHNDAeFw0yNTA1MDcwMDAwMDBaFw0zODAxMTQyMzU5NTlaMGkxCzAJBgNVBAYTAlVTMRcwFQYDVQQKEw5EaWdpQ2VydCwgSW5jLjFBMD8GA1UEAxM4RGlnaUNlcnQgVHJ1c3RlZCBHNCBUaW1lU3RhbXBpbmcgUlNBNDA5NiBTSEEyNTYgMjAyNSBDQTEwggIiMA0GCSqGSIb3DQEBAQUAA4ICDwAwggIKAoICAQC0eDHTCphBcr48RsAcrHXbo0ZodLRRF51NrY0NlLWZloMsVO1DahGPNRcybEKq+RuwOnPhof6pvF4uGjwjqNjfEvUi6wuim5bap+0lgloM2zX4kftn5B1IpYzTqpyFQ/4Bt0mAxAHeHYNnQxqXmRinvuNgxVBdJkf77S2uPoCj7GH8BLuxBG5AvftBdsOECS1UkxBvMgEdgkFiDNYiOTx4OtiFcMSkqTtF2hfQz3zQSku2Ws3IfDReb6e3mmdglTcaarps0wjUjsZvkgFkriK9tUKJm/s80FiocSk1VYLZlDwFt+cVFBURJg6zMUjZa/zbCclF83bRVFLeGkuAhHiGPMvSGmhgaTzVyhYn4p0+8y9oHRaQT/aofEnS5xLrfxnGpTXiUOeSLsJygoLPp66bkDX1ZlAeSpQl92QOMeRxykvq6gbylsXQskBBBnGy3tW/AMOMCZIVNSaz7BX8VtYGqLt9MmeOreGPRdtBx3yGOP+rx3rKWDEJlIqLXvJWnY0v5ydPpOjL6s36czwzsucuoKs7Yk/ehb//Wx+5kMqIMRvUBDx6z1ev+7psNOdgJMoiwOrUG2ZdSoQbU2rMkpLiQ6bGRinZbI4OLu9BMIFm1UUl9VnePs6BaaeEWvjJSjNm2qA+sdFUeEY0qVjPKOWug/G6X5uAiynM7Bu2ayBjUwIDAQABo4IBXTCCAVkwEgYDVR0TAQH/BAgwBgEB/wIBADAdBgNVHQ4EFgQU729TSunkBnx6yuKQVvYv1Ensy04wHwYDVR0jBBgwFoAU7NfjgtJxXWRM3y5nP+e6mK4cD08wDgYDVR0PAQH/BAQDAgGGMBMGA1UdJQQMMAoGCCsGAQUFBwMIMHcGCCsGAQUFBwEBBGswaTAkBggrBgEFBQcwAYYYaHR0cDovL29jc3AuZGlnaWNlcnQuY29tMEEGCCsGAQUFBzAChjVodHRwOi8vY2FjZXJ0cy5kaWdpY2VydC5jb20vRGlnaUNlcnRUcnVzdGVkUm9vdEc0LmNydDBDBgNVHR8EPDA6MDigNqA0hjJodHRwOi8vY3JsMy5kaWdpY2VydC5jb20vRGlnaUNlcnRUcnVzdGVkUm9vdEc0LmNybDAgBgNVHSAEGTAXMAgGBmeBDAEEAjALBglghkgBhv1sBwEwDQYJKoZIhvcNAQELBQADggIBABfO+xaAHP4HPRF2cTC9vgvItTSmf83Qh8WIGjB/T8ObXAZz8OjuhUxjaaFdleMM0lBryPTQM2qEJPe36zwbSI/mS83afsl3YTj+IQhQE7jU/kXjjytJgnn0hvrV6hqWGd3rLAUt6vJy9lMDPjTLxLgXf9r5nWMQwr8Myb9rEVKChHyfpzee5kH0F8HABBgr0UdqirZ7bowe9Vj2AIMD8liyrukZ2iA/wdG2th9y1IsA0QF8dTXqvcnTmpfeQh35k5zOCPmSNq1UH410ANVko43+Cdmu4y81hjajV/gxdEkMx1NKU4uHQcKfZxAvBAKqMVuqte69M9J6A47OvgRaPs+2ykgcGV00TYr2Lr3ty9qIijanrUR3anzEwlvzZiiyfTPjLbnFRsjsYg39OlV8cipDoq7+qNNjqFzeGxcytL5TTLL4ZaoBdqbhOhZ3ZRDUphPvSRmMThi0vw9vODRzW6AxnJll38F0cuJG7uEBYTptMSbhdhGQDpOXgpIUsWTjd6xpR6oaQf/DJbg3s6KCLPAlZ66RzIg9sC+NJpud/v4+7RWsWCiKi9EOLLHfMR2ZyJ/+xhCx9yHbxtl5TPau1j/1MIDpMPx0LckTetiSuEtQvLsNz3Qbp7wGWqbIiOWCnb5WqxL3/BAPvIXKUjPSxyZsq8WhbaM2tszWkPZPubdcMYIBvjCCAboCAQEwfTBpMQswCQYDVQQGEwJVUzEXMBUGA1UEChMORGlnaUNlcnQsIEluYy4xQTA/BgNVBAMTOERpZ2lDZXJ0IFRydXN0ZWQgRzQgVGltZVN0YW1waW5nIFJTQTQwOTYgU0hBMjU2IDIwMjUgQ0ExAhADYpL+b9qxJLpvQsseCRgWMA0GCWCGSAFlAwQCAQUAoIHRMBoGCSqGSIb3DQEJAzENBgsqhkiG9w0BCRABBDAcBgkqhkiG9w0BCQUxDxcNMjYwOTIwMTY0MDAwWjArBgsqhkiG9w0BCRACDDEcMBowGDAWBBSiHCGqNYU6fpWMZ6uopm6Q8kfZxDAvBgkqhkiG9w0BCQQxIgQgf4MjMWhPscRelnINUXDxT8xnfJYGh7VfkGUH45z2Z5cwNwYLKoZIhvcNAQkQAi8xKDAmMCQwIgQggIlstwcBstnDmn9I4JAjM65m1aTW1vzIHcazFbdf5wUwCgYIKoZIzj0EAwIERzBFAiANeVSS5VPIekGBzxrZQNMZG34dvnem4Qsb1A3KyVIETgIhAMT2Wfflc/54fKtDdwSLH7Dw3AQkM4lCF6w3pSxc9DzEZXJWYWxzoWhvY3NwVmFsc4FZAtswggLXCgEAoIIC0DCCAswGCSsGAQUFBzABAQSCAr0wggK5MIGiohYEFNCtQorwehQHJcaXwEOoI4XotS0jGA8yMDI2MDkxOTE2NDI1N1owdzB1ME0wCQYFKw4DAhoFAAQUiu+yARBva2UVTcGjt1Gpi3OSyxYEFNCtQorwehQHJcaXwEOoI4XotS0jAhQOavwUoPMpeGb9dCZGwIIvqmrW64AAGA8yMDI2MDkxOTE2NDI1N1qgERgPMjAyNjA5MjYxNjQyNTdaMA0GCSqGSIb3DQEBCwUAA4ICAQCUV8NjvaNRlc0ANAODWpoxrYW1ulcZJdmlNx+4r3Jj4R56hjK042OLhP5lsrjMeWeIkCxjoonA+FtyjvQMAC5f+RcbIzjx+mU6Ohw4KjTgPIielxIU29mxefS9G3AqBmSgedzNmQs0RyXiWkeyD2XVlhfAg4QB4AOtisfbAdYlyI8QN8x1YxmSVDvHERR173sfExucEr7D8e8E4q9gQI8s5Y3uggklOGvBcYyl6GhCCfnfo8OZv93aIY/tQYQLMkkCmtf2jk6o5y+YG3Gy5XPeyiig1r9wyRcklNHvTqsMHYJhfVz522dSl6swWl3spAUMBIPA7pMt2mWqcDfzwluX6FNB6+4qb8/8ei1vVKUmeNjTqPNqXNfetzcDGPJG0C3JKmMihceW07tqw+sKPHoMzWlgEQJK8cuHCi8JaOjLGBCBni2AgqXVAJ5VaWEbbVmIVg9hQ+hu3+Dzh2L6u+uGVAu1IOhOvVeWlztIbQjGkVqoeMuofSWW/b5hU805iJ/s+6hAnWEQ9ijP6vXA3WAnaOpx4hn2dSz3YbRcpj41TzAUU82GNstBw328U2dd6hNTZcmlosk0XUj/GbxTaw1D95am8F5pj69zq6MslDbC6LQi0IiHlBj28mIfuOBEc2fuHQI/mnoKZx/jmyZ6Bov2Bi/fNs0VdhZUhimUYkG2+GNwYWRZEFEAAAAAAAAAAAAAAAAAAAAAAAAAAAAAAAAAAAAAAAAAAAAAAAAAAAAAAAAAAAAAAAAAAAAAAAAAAAAAAAAAAAAAAAAAAAAAAAAAAAAAAAAAAAAAAAAAAAAAAAAAAAAAAAAAAAAAAAAAAAAAAAAAAAAAAAAAAAAAAAAAAAAAAAAAAAAAAAAAAAAAAAAAAAAAAAAAAAAAAAAAAAAAAAAAAAAAAAAAAAAAAAAAAAAAAAAAAAAAAAAAAAAAAAAAAAAAAAAAAAAAAAAAAAAAAAAAAAAAAAAAAAAAAAAAAAAAAAAAAAAAAAAAAAAAAAAAAAAAAAAAAAAAAAAAAAAAAAAAAAAAAAAAAAAAAAAAAAAAAAAAAAAAAAAAAAAAAAAAAAAAAAAAAAAAAAAAAAAAAAAAAAAAAAAAAAAAAAAAAAAAAAAAAAAAAAAAAAAAAAAAAAAAAAAAAAAAAAAAAAAAAAAAAAAAAAAAAAAAAAAAAAAAAAAAAAAAAAAAAAAAAAAAAAAAAAAAAAAAAAAAAAAAAAAAAAAAAAAAAAAAAAAAAAAAAAAAAAAAAAAAAAAAAAAAAAAAAAAAAAAAAAAAAAAAAAAAAAAAAAAAAAAAAAAAAAAAAAAAAAAAAAAAAAAAAAAAAAAAAAAAAAAAAAAAAAAAAAAAAAAAAAAAAAAAAAAAAAAAAAAAAAAAAAAAAAAAAAAAAAAAAAAAAAAAAAAAAAAAAAAAAAAAAAAAAAAAAAAAAAAAAAAAAAAAAAAAAAAAAAAAAAAAAAAAAAAAAAAAAAAAAAAAAAAAAAAAAAAAAAAAAAAAAAAAAAAAAAAAAAAAAAAAAAAAAAAAAAAAAAAAAAAAAAAAAAAAAAAAAAAAAAAAAAAAAAAAAAAAAAAAAAAAAAAAAAAAAAAAAAAAAAAAAAAAAAAAAAAAAAAAAAAAAAAAAAAAAAAAAAAAAAAAAAAAAAAAAAAAAAAAAAAAAAAAAAAAAAAAAAAAAAAAAAAAAAAAAAAAAAAAAAAAAAAAAAAAAAAAAAAAAAAAAAAAAAAAAAAAAAAAAAAAAAAAAAAAAAAAAAAAAAAAAAAAAAAAAAAAAAAAAAAAAAAAAAAAAAAAAAAAAAAAAAAAAAAAAAAAAAAAAAAAAAAAAAAAAAAAAAAAAAAAAAAAAAAAAAAAAAAAAAAAAAAAAAAAAAAAAAAAAAAAAAAAAAAAAAAAAAAAAAAAAAAAAAAAAAAAAAAAAAAAAAAAAAAAAAAAAAAAAAAAAAAAAAAAAAAAAAAAAAAAAAAAAAAAAAAAAAAAAAAAAAAAAAAAAAAAAAAAAAAAAAAAAAAAAAAAAAAAAAAAAAAAAAAAAAAAAAAAAAAAAAAAAAAAAAAAAAAAAAAAAAAAAAAAAAAAAAAAAAAAAAAAAAAAAAAAAAAAAAAAAAAAAAAAAAAAAAAAAAAAAAAAAAAAAAAAAAAAAAAAAAAAAAAAAAAAAAAAAAAAAAAAAAAAAAAAAAAAAAAAAAAAAAAAAAAAAAAAAAAAAAAAAAAAAAAAAAAAAAAAAAAAAAAAAAAAAAAAAAAAAAAAAAAAAAAAAAAAAAAAAAAAAAAAAAAAAAAAAAAAAAAAAAAAAAAAAAAAAAAAAAAAAAAAAAAAAAAAAAAAAAAAAAAAAAAAAAAAAAAAAAAAAAAAAAAAAAAAAAAAAAAAAAAAAAAAAAAAAAAAAAAAAAAAAAAAAAAAAAAAAAAAAAAAAAAAAAAAAAAAAAAAAAAAAAAAAAAAAAAAAAAAAAAAAAAAAAAAAAAAAAAAAAAAAAAAAAAAAAAAAAAAAAAAAAAAAAAAAAAAAAAAAAAAAAAAAAAAAAAAAAAAAAAAAAAAAAAAAAAAAAAAAAAAAAAAAAAAAAAAAAAAAAAAAAAAAAAAAAAAAAAAAAAAAAAAAAAAAAAAAAAAAAAAAAAAAAAAAAAAAAAAAAAAAAAAAAAAAAAAAAAAAAAAAAAAAAAAAAAAAAAAAAAAAAAAAAAAAAAAAAAAAAAAAAAAAAAAAAAAAAAAAAAAAAAAAAAAAAAAAAAAAAAAAAAAAAAAAAAAAAAAAAAAAAAAAAAAAAAAAAAAAAAAAAAAAAAAAAAAAAAAAAAAAAAAAAAAAAAAAAAAAAAAAAAAAAAAAAAAAAAAAAAAAAAAAAAAAAAAAAAAAAAAAAAAAAAAAAAAAAAAAAAAAAAAAAAAAAAAAAAAAAAAAAAAAAAAAAAAAAAAAAAAAAAAAAAAAAAAAAAAAAAAAAAAAAAAAAAAAAAAAAAAAAAAAAAAAAAAAAAAAAAAAAAAAAAAAAAAAAAAAAAAAAAAAAAAAAAAAAAAAAAAAAAAAAAAAAAAAAAAAAAAAAAAAAAAAAAAAAAAAAAAAAAAAAAAAAAAAAAAAAAAAAAAAAAAAAAAAAAAAAAAAAAAAAAAAAAAAAAAAAAAAAAAAAAAAAAAAAAAAAAAAAAAAAAAAAAAAAAAAAAAAAAAAAAAAAAAAAAAAAAAAAAAAAAAAAAAAAAAAAAAAAAAAAAAAAAAAAAAAAAAAAAAAAAAAAAAAAAAAAAAAAAAAAAAAAAAAAAAAAAAAAAAAAAAAAAAAAAAAAAAAAAAAAAAAAAAAAAAAAAAAAAAAAAAAAAAAAAAAAAAAAAAAAAAAAAAAAAAAAAAAAAAAAAAAAAAAAAAAAAAAAAAAAAAAAAAAAAAAAAAAAAAAAAAAAAAAAAAAAAAAAAAAAAAAAAAAAAAAAAAAAAAAAAAAAAAAAAAAAAAAAAAAAAAAAAAAAAAAAAAAAAAAAAAAAAAAAAAAAAAAAAAAAAAAAAAAAAAAAAAAAAAAAAAAAAAAAAAAAAAAAAAAAAAAAAAAAAAAAAAAAAAAAAAAAAAAAAAAAAAAAAAAAAAAAAAAAAAAAAAAAAAAAAAAAAAAAAAAAAAAAAAAAAAAAAAAAAAAAAAAAAAAAAAAAAAAAAAAAAAAAAAAAAAAAAAAAAAAAAAAAAAAAAAAAAAAAAAAAAAAAAAAAAAAAAAAAAAAAAAAAAAAAAAAAAAAAAAAAAAAAAAAAAAAAAAAAAAAAAAAAAAAAAAAAAAAAAAAAAAAAAAAAAAAAAAAAAAAAAAAAAAAAAAAAAAAAAAAAAAAAAAAAAAAAAAAAAAAAAAAAAAAAAAAAAAAAAAAAAAAAAAAAAAAAAAAAAAAAAAAAAAAAAAAAAAAAAAAAAAAAAAAAAAAAAAAAAAAAAAAAAAAAAAAAAAAAAAAAAAAAAAAAAAAAAAAAAAAAAAAAAAAAAAAAAAAAAAAAAAAAAAAAAAAAAAAAAAAAAAAAAAAAAAAAAAAAAAAAAAAAAAAAAAAAAAAAAAAAAAAAAAAAAAAAAAAAAAAAAAAAAAAAAAAAAAAAAAAAAAAAAAAAAAAAAAAAAAAAAAAAAAAAAAAAAAAAAAAAAAAAAAAAAAAAAAAAAAAAAAAAAAAAAAAAAAAAAAAAAAAAAAAAAAAAAAAAAAAAAAAAAAAAAAAAAAAAAAAAAAAAAAAAAAAAAAAAAAAAAAAAAAAAAAAAAAAAAAAAAAAAAAAAAAAAAAAAAAAAAAAAAAAAAAAAAAAAAAAAAAAAAAAAAAAAAAAAAAAAAAAAAAAAAAAAAAAAAAAAAAAAAAAAAAAAAAAAAAAAAAAAAAAAAAAAAAAAAAAAAAAAAAAAAAAAAAAAAAAAAAAAAAAAAAAAAAAAAAAAAAAAAAAAAAAAAAAAAAAAAAAAAAAAAAAAAAAAAAAAAAAAAAAAAAAAAAAAAAAAAAAAAAAAAAAAAAAAAAAAAAAAAAAAAAAAAAAAAAAAAAAAAAAAAAAAAAAAAAAAAAAAAAAAAAAAAAAAAAAAAAAAAAAAAAAAAAAAAAAAAAAAAAAAAAAAAAAAAAAAAAAAAAAAAAAAAAAAAAAAAAAAAAAAAAAAAAAAAAAAAAAAAAAAAAAAAAAAAAAAAAAAAAAAAAAAAAAAAAAAAAAAAAAAAAAAAAAAAAAAAAAAAAAAAAAAAAAAAAAAAAAAAAAAAAAAAAAAAAAAAAAAAAAAAAAAAAAAAAAAAAAAAAAAAAAAAAAAAAAAAAAAAAAAAAAAAAAAAAAAAAAAAAAAAAAAAAAAAAAAAAAAAAAAAAAAAAAAAAAAAAAAAAAAAAAAAAAAAAAAAAAAAAAAAAAAAAAAAAAAAAAAAAAAAAAAAAAAAAAAAAAAAAAAAAAAAAAAAAAAAAAAAAAAAAAAAAAAAAAAAAAAAAAAAAAAAAAAAAAAAAAAAAAAAAAAAAAAAAAAAAAAAAAAAAAAAAAAAAAAAAAAAAAAAAAAAAAAAAAAAAAAAAAAAAAAAAAAAAAAAAAAAAAAAAAAAAAAAAAAAAAAAAAAAAAAAAAAAAAAAAAAAAAAAAAAAAAAAAAAAAAAAAAAAAAAAAAAAAAAAAAAAAAAAAAAAAAAAAAAAAAAAAAAAAAAAAAAAAAAAAAAAAAAAAAAAAAAAAAAAAAAAAAAAAAAAAAAAAAAAAAAAAAAAAAAAAAAAAAAAAAAAAAAAAAAAAAAAAAAAAAAAAAAAAAAAAAAAAAAAAAAAAAAAAAAAAAAAAAAAAAAAAAAAAAAAAAAAAAAAAAAAAAAAAAAAAAAAAAAAAAAAAAAAAAAAAAAAAAAAAAAAAAAAAAAAAAAAAAAAAAAAAAAAAAAAAAAAAAAAAAAAAAAAAAAAAAAAAAAAAAAAAAAAAAAAAAAAAAAAAAAAAAAAAAAAAAAAAAAAAAAAAAAAAAAAAAAAAAAAAAAAAAAAAAAAAAAAAAAAAAAAAAAAAAAAAAAAAAAAAAAAAAAAAAAAAAAAAAAAAAAAAAAAAAAAAAAAAAAAAAAAAAAAAAAAAAAAAAAAAAAAAAAAAAAAAAAAAAAAAAAAAAAAAAAAAAAAAAAAAAAAAAAAAAAAAAAAAAAAAAAAAAAAAAAAAAAAAAAAAAAAAAAAAAAAAAAAAAAAAAAAAAAAAAAAAAAAAAAAAAAAAAAAAAAAAAAAAAAAAAAAAAAAAAAAAAAAAAAAAAAAAAAAAAAAAAAAAAAAAAAAAAAAAAAAAAAAAAAAAAAAAAAAAAAAAAAAAAAAAAAAAAAAAAAAAAAAAAAAAAAAAAAAAAAAAAAAAAAAAAAAAAAAAAAAAAAAAAAAAAAAAAAAAAAAAAAAAAAAAAAAAAAAAAAAAAAAAAAAAAAAAAAAAAAAAAAAAAAAAAAAAAAAAAAAAAAAAAAAAAAAAAAAAAAAAAAAAAAAAAAAAAAAAAAAAAAAAAAAAAAAAAAAAAAAAAAAAAAAAAAAAAAAAAAAAAAAAAAAAAAAAAAAAAAAAAAAAAAAAAAAAAAAAAAAAAAAAAAAAAAAAAAAAAAAAAAAAAAAAAAAAAAAAAAAAAAAAAAAAAAAAAAAAAAAAAAAAAAAAAAAAAAAAAAAAAAAAAAAAAAAAAAAAAAAAAAAAAAAAAAAAAAAAAAAAAAAAAAAAAAAAAAAAAAAAAAAAAAAAAAAAAAAAAAAAAAAAAAAAAAAAAAAAAAAAAAAAAAAAAAAAAAAAAAAAAAAAAAAAAAAAAAAAAAAAAAAAAAAAAAAAAAAAAAAAAAAAAAAAAAAAAAAAAAAAAAAAAAAAAAAAAAAAAAAAAAAA9lkBADZ0zZdUGepdUWNdrXeEfyQ+UjURwBL/9oK5l5hQEKrakH9NQT6gR3t4Oopay6L2X6B0yUIg19VaWu9V0rxlXcnjlYuOWWsA4RcKcY1gTcYFRPt3JdGmcqKLttU4tdtIES6+yNiamKL4tqYRqm2mXoBWRTC4fT//M6J5gA/rC/eajosthl0yx87Tz+lQTPlkj/AaNxDGPl7w83z+jknvFOvMjVTnMEQayHR6EsL+lONsbsQUImnFzk0qqrjxv5sfdk9Be5qgX8avoHfL3t9Y4XUh0zvu1JtUAAqzBqyxPlQbei6Q04vZlUyKQMZaFE3U4v7bPGyqzorpKjYOdTC0SsIAADfbanVtYgAAAEdqdW1kYzJtYQARABCAAACqADibcQN1cm46YzJwYTpjNWRlZWU4My04M2FkLTQyOWUtODlkNi04MDI4MTFmYjcyZDYAAAAF72p1bWIAAAApanVtZGMyYXMAEQAQgAAAqgA4m3EDYzJwYS5hc3NlcnRpb25zAAAAAjxqdW1iAAAARGp1bWRjYm9yABEAEIAAAKoAOJtxE2MycGEuaW5ncmVkaWVudC52MwAAAAAYYzJzaOqDKTKOhRKPqliM6sHGOygAAAHwY2JvcqdscmVsYXRpb25zaGlwa2NvbXBvbmVudE9maGRjOnRpdGxld0FJIEdlbmVyYXRlZCBJbmdyZWRpZW50aWRjOmZvcm1hdGlpbWFnZS9wbmdxdmFsaWRhdGlvblJlc3VsdHOhbmFjdGl2ZU1hbmlmZXN0o2dzdWNjZXNzgG1pbmZvcm1hdGlvbmFsgGdmYWlsdXJlgGppbnN0YW5jZUlEeC11cm46dXVpZDo5MzM2NTRmMy1iNDdkLTQ0MTgtYTM2MS01ZGY1ZTVkM2ExYTluYWN0aXZlTWFuaWZlc3SjY3VybHg+c2VsZiNqdW1iZj0vYzJwYS91cm46YzJwYTo3YTkyNjZjOS1jNThmLTQxMTgtYTgyZC1kZDk4MTllNjE2Y2FjYWxnZnNoYTI1NmRoYXNoWCAPEmnUWeVza1otTFxi/ffJuI6fi/6B3/XikWQMcVisNW5jbGFpbVNpZ25hdHVyZaNjdXJseE1zZWxmI2p1bWJmPS9jMnBhL3VybjpjMnBhOjdhOTI2NmM5LWM1OGYtNDExOC1hODJkLWRkOTgxOWU2MTZjYS9jMnBhLnNpZ25hdHVyZWNhbGdmc2hhMjU2ZGhhc2hYICslB2g+bDb3N5Ol+GspP39Gdv1RktZRyshhW4btaK3RAAACvmp1bWIAAABBanVtZGNib3IAEQAQgAAAqgA4m3ETYzJwYS5hY3Rpb25zLnYyAAAAABhjMnNouoj6kTOSqygG+Os4MOm7KAAAAnVjYm9yomdhY3Rpb25zgqJmYWN0aW9ubGMycGEuY3JlYXRlZHFkaWdpdGFsU291cmNlVHlwZXgnaHR0cDovL2MycGEub3JnL2RpZ2l0YWxzb3VyY2V0eXBlL2VtcHR5pWZhY3Rpb25rYzJwYS5wbGFjZWRkd2hlbsB0MjAyNi0wOS0yMFQxNjo0MDoxOFptc29mdHdhcmVBZ2VudHBGaXJlZmx5IFZlY3RvciA0anBhcmFtZXRlcnOja2luZ3JlZGllbnRzgaJjdXJseC1zZWxmI2p1bWJmPWMycGEuYXNzZXJ0aW9ucy9jMnBhLmluZ3JlZGllbnQudjNkaGFzaFggvADaumiLwaFG68bvb3sqCqM5q38iP5BGh3gL4kGtztV4G2NvbS5hZG9iZS5kaWdpdGFsU291cmNlVHlwZXhTaHR0cDovL2N2LmlwdGMub3JnL25ld3Njb2Rlcy9kaWdpdGFsc291cmNldHlwZS9jb21wb3NpdGVXaXRoVHJhaW5lZEFsZ29yaXRobWljTWVkaWFxY29tLmFkb2JlLmdlbkFpSWR4JDA1M2YxZTBiLTQ1ZWEtNDcwZi1hZWYzLTYzZDMxN2QwOTA5ZHFkaWdpdGFsU291cmNlVHlwZXhTaHR0cDovL2N2LmlwdGMub3JnL25ld3Njb2Rlcy9kaWdpdGFsc291cmNldHlwZS9jb21wb3NpdGVXaXRoVHJhaW5lZEFsZ29yaXRobWljTWVkaWFpdGVtcGxhdGVzgaJmYWN0aW9uYSpydGVtcGxhdGVQYXJhbWV0ZXJzoXVjb20uYWRvYmUuYXBwRW5mb3JjZWT1AAAAxGp1bWIAAABAanVtZGNib3IAEQAQgAAAqgA4m3ETYzJwYS5oYXNoLmRhdGEAAAAAGGMyc2ifdw3yPfl6Bo8PzvD7HOyFAAAAfGNib3KlamV4Y2x1c2lvbnOBomVzdGFydBjJZmxlbmd0aBmRqGRuYW1lbmp1bWJmIG1hbmlmZXN0Y2FsZ2ZzaGEyNTZkaGFzaFggONlUUgRXUoL5HWUeA6+QtJf/TR0wpk4sn4VKW2y5akZjcGFkSQAAAAAAAAAAAAAAAmFqdW1iAAAAJ2p1bWRjMmNsABEAEIAAAKoAOJtxA2MycGEuY2xhaW0udjIAAAACMmNib3Kmamluc3RhbmNlSUR4LHhtcDppaWQ6NTQ2YjM2NzAtNGQ0Yi00ZDUyLWJmNmQtYzAxOTVhOGQwNjc4dGNsYWltX2dlbmVyYXRvcl9pbmZvo2RuYW1lcUFkb2JlIElsbHVzdHJhdG9yZ3ZlcnNpb25kMzAuOXdvcmcuY29udGVudGF1dGguYzJwYV9yc2YwLjg2LjFpc2lnbmF0dXJleE1zZWxmI2p1bWJmPS9jMnBhL3VybjpjMnBhOmM1ZGVlZTgzLTgzYWQtNDI5ZS04OWQ2LTgwMjgxMWZiNzJkNi9jMnBhLnNpZ25hdHVyZXJjcmVhdGVkX2Fzc2VydGlvbnOBomN1cmx4KXNlbGYjanVtYmY9YzJwYS5hc3NlcnRpb25zL2MycGEuaGFzaC5kYXRhZGhhc2hYIIOayGqEG+jk5tdKn+u7Y5bsVjtrhhSvKpcD0LXf1L9yc2dhdGhlcmVkX2Fzc2VydGlvbnOComN1cmx4LXNlbGYjanVtYmY9YzJwYS5hc3NlcnRpb25zL2MycGEuaW5ncmVkaWVudC52M2RoYXNoWCBKaCxTHUVTyoQk3XGDMzFyNAx9My5+lSZlHmgJpnMtJaJjdXJseCpzZWxmI2p1bWJmPWMycGEuYXNzZXJ0aW9ucy9jMnBhLmFjdGlvbnMudjJkaGFzaFggYlE0fa19a28E8jFS1nr3aOTN+cI8MVEhUIutBC4vPiZjYWxnZnNoYTI1NgAALzxqdW1iAAAAKGp1bWRjMmNzABEAEIAAAKoAOJtxA2MycGEuc2lnbmF0dXJlAAAALwxjYm9y0oRZBACiAScYIYJZAjowggI2MIIB6KADAgECAgdPTJjlXewGMAUGAytlcDBgMSAwHgYDVQQDExdjMnBhLWVwaGVtZXJhbC1jYS5sb2NhbDE8MDoGA1UEChMzU2VsZi1zaWduZWQgZXBoZW1lcmFsIENBIChDb250ZW50IEF1dGhlbnRpY2l0eSBTREspMB4XDTI2MDkxOTIyMTYzOVoXDTI3MDkyMDIyMTYzOVowezEgMB4GA1UEAxMXQWRvYmUgQ29tcGxpYW5jZSBTaWduZXIxVzBVBgNVBAoTTlNlbGYtc2lnbmVkIGVwaGVtZXJhbCBjZXJ0aWZpY2F0ZSAoQ29udGVudCBBdXRoZW50aWNpdHkgU0RLKSAtLSBMT0NBTCBVU0UgT05MWTAqMAUGAytlcAMhAHncUaGQmpxaHZDbZPCU5EauxIhQ7nAzdNLB7KDHOiT2o4GlMIGiMA8GA1UdEwEB/wQFMAMBAQAwDgYDVR0PAQH/BAQDAgCAMB0GA1UdJQQWMBQGCCsGAQUFBwMEBggrBgEFBQcDADAbBgNVHQ4EFFMyikFladq4Dye3g3WZNM98NuvXMB8GA1UdIwQYMBaAFK3YxriL4chjXXpcUqwGowZpYd8xMCIGA1UdEQQbMBmCF0Fkb2JlIENvbXBsaWFuY2UgU2lnbmVyMAUGAytlcANBANaq/aLsZajJSttRV4B0fbiGdKqayscA2aCooto2uuH14UWNkRAG3KmpjGay8WYTwOPMrfQ4JEbWNAW/b9BPrAtZAbowggG2MIIBaKADAgECAggArNqNrZTxVDAFBgMrZXAwYDEgMB4GA1UEAxMXYzJwYS1lcGhlbWVyYWwtY2EubG9jYWwxPDA6BgNVBAoTM1NlbGYtc2lnbmVkIGVwaGVtZXJhbCBDQSAoQ29udGVudCBBdXRoZW50aWNpdHkgU0RLKTAeFw0yNjA5MTkyMjE2MzlaFw0yNzA5MjAyMjE2MzlaMGAxIDAeBgNVBAMTF2MycGEtZXBoZW1lcmFsLWNhLmxvY2FsMTwwOgYDVQQKEzNTZWxmLXNpZ25lZCBlcGhlbWVyYWwgQ0EgKENvbnRlbnQgQXV0aGVudGljaXR5IFNESykwKjAFBgMrZXADIQCWDb1te1FCTRlFdz4cI6gclG8cPd3YHP8vIAhUDtg5IqNAMD4wDwYDVR0TAQH/BAUwAwEB/zAOBgNVHQ8BAf8EBAMCAIYwGwYDVR0OBBSt2Ma4i+HIY116XFKsBqMGaWHfMTAFBgMrZXADQQANmgNR7H2NGyDxi7+1CUhFbQCdGn5Olw0GtT20EcfOsOTvwRckK/1kNWwAERHYOlLNgZkDcuWMu4e5/Q+zJYADoWNwYWRZKrQAAAAAAAAAAAAAAAAAAAAAAAAAAAAAAAAAAAAAAAAAAAAAAAAAAAAAAAAAAAAAAAAAAAAAAAAAAAAAAAAAAAAAAAAAAAAAAAAAAAAAAAAAAAAAAAAAAAAAAAAAAAAAAAAAAAAAAAAAAAAAAAAAAAAAAAAAAAAAAAAAAAAAAAAAAAAAAAAAAAAAAAAAAAAAAAAAAAAAAAAAAAAAAAAAAAAAAAAAAAAAAAAAAAAAAAAAAAAAAAAAAAAAAAAAAAAAAAAAAAAAAAAAAAAAAAAAAAAAAAAAAAAAAAAAAAAAAAAAAAAAAAAAAAAAAAAAAAAAAAAAAAAAAAAAAAAAAAAAAAAAAAAAAAAAAAAAAAAAAAAAAAAAAAAAAAAAAAAAAAAAAAAAAAAAAAAAAAAAAAAAAAAAAAAAAAAAAAAAAAAAAAAAAAAAAAAAAAAAAAAAAAAAAAAAAAAAAAAAAAAAAAAAAAAAAAAAAAAAAAAAAAAAAAAAAAAAAAAAAAAAAAAAAAAAAAAAAAAAAAAAAAAAAAAAAAAAAAAAAAAAAAAAAAAAAAAAAAAAAAAAAAAAAAAAAAAAAAAAAAAAAAAAAAAAAAAAAAAAAAAAAAAAAAAAAAAAAAAAAAAAAAAAAAAAAAAAAAAAAAAAAAAAAAAAAAAAAAAAAAAAAAAAAAAAAAAAAAAAAAAAAAAAAAAAAAAAAAAAAAAAAAAAAAAAAAAAAAAAAAAAAAAAAAAAAAAAAAAAAAAAAAAAAAAAAAAAAAAAAAAAAAAAAAAAAAAAAAAAAAAAAAAAAAAAAAAAAAAAAAAAAAAAAAAAAAAAAAAAAAAAAAAAAAAAAAAAAAAAAAAAAAAAAAAAAAAAAAAAAAAAAAAAAAAAAAAAAAAAAAAAAAAAAAAAAAAAAAAAAAAAAAAAAAAAAAAAAAAAAAAAAAAAAAAAAAAAAAAAAAAAAAAAAAAAAAAAAAAAAAAAAAAAAAAAAAAAAAAAAAAAAAAAAAAAAAAAAAAAAAAAAAAAAAAAAAAAAAAAAAAAAAAAAAAAAAAAAAAAAAAAAAAAAAAAAAAAAAAAAAAAAAAAAAAAAAAAAAAAAAAAAAAAAAAAAAAAAAAAAAAAAAAAAAAAAAAAAAAAAAAAAAAAAAAAAAAAAAAAAAAAAAAAAAAAAAAAAAAAAAAAAAAAAAAAAAAAAAAAAAAAAAAAAAAAAAAAAAAAAAAAAAAAAAAAAAAAAAAAAAAAAAAAAAAAAAAAAAAAAAAAAAAAAAAAAAAAAAAAAAAAAAAAAAAAAAAAAAAAAAAAAAAAAAAAAAAAAAAAAAAAAAAAAAAAAAAAAAAAAAAAAAAAAAAAAAAAAAAAAAAAAAAAAAAAAAAAAAAAAAAAAAAAAAAAAAAAAAAAAAAAAAAAAAAAAAAAAAAAAAAAAAAAAAAAAAAAAAAAAAAAAAAAAAAAAAAAAAAAAAAAAAAAAAAAAAAAAAAAAAAAAAAAAAAAAAAAAAAAAAAAAAAAAAAAAAAAAAAAAAAAAAAAAAAAAAAAAAAAAAAAAAAAAAAAAAAAAAAAAAAAAAAAAAAAAAAAAAAAAAAAAAAAAAAAAAAAAAAAAAAAAAAAAAAAAAAAAAAAAAAAAAAAAAAAAAAAAAAAAAAAAAAAAAAAAAAAAAAAAAAAAAAAAAAAAAAAAAAAAAAAAAAAAAAAAAAAAAAAAAAAAAAAAAAAAAAAAAAAAAAAAAAAAAAAAAAAAAAAAAAAAAAAAAAAAAAAAAAAAAAAAAAAAAAAAAAAAAAAAAAAAAAAAAAAAAAAAAAAAAAAAAAAAAAAAAAAAAAAAAAAAAAAAAAAAAAAAAAAAAAAAAAAAAAAAAAAAAAAAAAAAAAAAAAAAAAAAAAAAAAAAAAAAAAAAAAAAAAAAAAAAAAAAAAAAAAAAAAAAAAAAAAAAAAAAAAAAAAAAAAAAAAAAAAAAAAAAAAAAAAAAAAAAAAAAAAAAAAAAAAAAAAAAAAAAAAAAAAAAAAAAAAAAAAAAAAAAAAAAAAAAAAAAAAAAAAAAAAAAAAAAAAAAAAAAAAAAAAAAAAAAAAAAAAAAAAAAAAAAAAAAAAAAAAAAAAAAAAAAAAAAAAAAAAAAAAAAAAAAAAAAAAAAAAAAAAAAAAAAAAAAAAAAAAAAAAAAAAAAAAAAAAAAAAAAAAAAAAAAAAAAAAAAAAAAAAAAAAAAAAAAAAAAAAAAAAAAAAAAAAAAAAAAAAAAAAAAAAAAAAAAAAAAAAAAAAAAAAAAAAAAAAAAAAAAAAAAAAAAAAAAAAAAAAAAAAAAAAAAAAAAAAAAAAAAAAAAAAAAAAAAAAAAAAAAAAAAAAAAAAAAAAAAAAAAAAAAAAAAAAAAAAAAAAAAAAAAAAAAAAAAAAAAAAAAAAAAAAAAAAAAAAAAAAAAAAAAAAAAAAAAAAAAAAAAAAAAAAAAAAAAAAAAAAAAAAAAAAAAAAAAAAAAAAAAAAAAAAAAAAAAAAAAAAAAAAAAAAAAAAAAAAAAAAAAAAAAAAAAAAAAAAAAAAAAAAAAAAAAAAAAAAAAAAAAAAAAAAAAAAAAAAAAAAAAAAAAAAAAAAAAAAAAAAAAAAAAAAAAAAAAAAAAAAAAAAAAAAAAAAAAAAAAAAAAAAAAAAAAAAAAAAAAAAAAAAAAAAAAAAAAAAAAAAAAAAAAAAAAAAAAAAAAAAAAAAAAAAAAAAAAAAAAAAAAAAAAAAAAAAAAAAAAAAAAAAAAAAAAAAAAAAAAAAAAAAAAAAAAAAAAAAAAAAAAAAAAAAAAAAAAAAAAAAAAAAAAAAAAAAAAAAAAAAAAAAAAAAAAAAAAAAAAAAAAAAAAAAAAAAAAAAAAAAAAAAAAAAAAAAAAAAAAAAAAAAAAAAAAAAAAAAAAAAAAAAAAAAAAAAAAAAAAAAAAAAAAAAAAAAAAAAAAAAAAAAAAAAAAAAAAAAAAAAAAAAAAAAAAAAAAAAAAAAAAAAAAAAAAAAAAAAAAAAAAAAAAAAAAAAAAAAAAAAAAAAAAAAAAAAAAAAAAAAAAAAAAAAAAAAAAAAAAAAAAAAAAAAAAAAAAAAAAAAAAAAAAAAAAAAAAAAAAAAAAAAAAAAAAAAAAAAAAAAAAAAAAAAAAAAAAAAAAAAAAAAAAAAAAAAAAAAAAAAAAAAAAAAAAAAAAAAAAAAAAAAAAAAAAAAAAAAAAAAAAAAAAAAAAAAAAAAAAAAAAAAAAAAAAAAAAAAAAAAAAAAAAAAAAAAAAAAAAAAAAAAAAAAAAAAAAAAAAAAAAAAAAAAAAAAAAAAAAAAAAAAAAAAAAAAAAAAAAAAAAAAAAAAAAAAAAAAAAAAAAAAAAAAAAAAAAAAAAAAAAAAAAAAAAAAAAAAAAAAAAAAAAAAAAAAAAAAAAAAAAAAAAAAAAAAAAAAAAAAAAAAAAAAAAAAAAAAAAAAAAAAAAAAAAAAAAAAAAAAAAAAAAAAAAAAAAAAAAAAAAAAAAAAAAAAAAAAAAAAAAAAAAAAAAAAAAAAAAAAAAAAAAAAAAAAAAAAAAAAAAAAAAAAAAAAAAAAAAAAAAAAAAAAAAAAAAAAAAAAAAAAAAAAAAAAAAAAAAAAAAAAAAAAAAAAAAAAAAAAAAAAAAAAAAAAAAAAAAAAAAAAAAAAAAAAAAAAAAAAAAAAAAAAAAAAAAAAAAAAAAAAAAAAAAAAAAAAAAAAAAAAAAAAAAAAAAAAAAAAAAAAAAAAAAAAAAAAAAAAAAAAAAAAAAAAAAAAAAAAAAAAAAAAAAAAAAAAAAAAAAAAAAAAAAAAAAAAAAAAAAAAAAAAAAAAAAAAAAAAAAAAAAAAAAAAAAAAAAAAAAAAAAAAAAAAAAAAAAAAAAAAAAAAAAAAAAAAAAAAAAAAAAAAAAAAAAAAAAAAAAAAAAAAAAAAAAAAAAAAAAAAAAAAAAAAAAAAAAAAAAAAAAAAAAAAAAAAAAAAAAAAAAAAAAAAAAAAAAAAAAAAAAAAAAAAAAAAAAAAAAAAAAAAAAAAAAAAAAAAAAAAAAAAAAAAAAAAAAAAAAAAAAAAAAAAAAAAAAAAAAAAAAAAAAAAAAAAAAAAAAAAAAAAAAAAAAAAAAAAAAAAAAAAAAAAAAAAAAAAAAAAAAAAAAAAAAAAAAAAAAAAAAAAAAAAAAAAAAAAAAAAAAAAAAAAAAAAAAAAAAAAAAAAAAAAAAAAAAAAAAAAAAAAAAAAAAAAAAAAAAAAAAAAAAAAAAAAAAAAAAAAAAAAAAAAAAAAAAAAAAAAAAAAAAAAAAAAAAAAAAAAAAAAAAAAAAAAAAAAAAAAAAAAAAAAAAAAAAAAAAAAAAAAAAAAAAAAAAAAAAAAAAAAAAAAAAAAAAAAAAAAAAAAAAAAAAAAAAAAAAAAAAAAAAAAAAAAAAAAAAAAAAAAAAAAAAAAAAAAAAAAAAAAAAAAAAAAAAAAAAAAAAAAAAAAAAAAAAAAAAAAAAAAAAAAAAAAAAAAAAAAAAAAAAAAAAAAAAAAAAAAAAAAAAAAAAAAAAAAAAAAAAAAAAAAAAAAAAAAAAAAAAAAAAAAAAAAAAAAAAAAAAAAAAAAAAAAAAAAAAAAAAAAAAAAAAAAAAAAAAAAAAAAAAAAAAAAAAAAAAAAAAAAAAAAAAAAAAAAAAAAAAAAAAAAAAAAAAAAAAAAAAAAAAAAAAAAAAAAAAAAAAAAAAAAAAAAAAAAAAAAAAAAAAAAAAAAAAAAAAAAAAAAAAAAAAAAAAAAAAAAAAAAAAAAAAAAAAAAAAAAAAAAAAAAAAAAAAAAAAAAAAAAAAAAAAAAAAAAAAAAAAAAAAAAAAAAAAAAAAAAAAAAAAAAAAAAAAAAAAAAAAAAAAAAAAAAAAAAAAAAAAAAAAAAAAAAAAAAAAAAAAAAAAAAAAAAAAAAAAAAAAAAAAAAAAAAAAAAAAAAAAAAAAAAAAAAAAAAAAAAAAAAAAAAAAAAAAAAAAAAAAAAAAAAAAAAAAAAAAAAAAAAAAAAAAAAAAAAAAAAAAAAAAAAAAAAAAAAAAAAAAAAAAAAAAAAAAAAAAAAAAAAAAAAAAAAAAAAAAAAAAAAAAAAAAAAAAAAAAAAAAAAAAAAAAAAAAAAAAAAAAAAAAAAAAAAAAAAAAAAAAAAAAAAAAAAAAAAAAAAAAAAAAAAAAAAAAAAAAAAAAAAAAAAAAAAAAAAAAAAAAAAAAAAAAAAAAAAAAAAAAAAAAAAAAAAAAAAAAAAAAAAAAAAAAAAAAAAAAAAAAAAAAAAAAAAAAAAAAAAAAAAAAAAAAAAAAAAAAAAAAAAAAAAAAAAAAAAAAAAAAAAAAAAAAAAAAAAAAAAAAAAAAAAAAAAAAAAAAAAAAAAAAAAAAAAAAAAAAAAAAAAAAAAAAAAAAAAAAAAAAAAAAAAAAAAAAAAAAAAAAAAAAAAAAAAAAAAAAAAAAAAAAAAAAAAAAAAAAAAAAAAAAAAAAAAAAAAAAAAAAAAAAAAAAAAAAAAAAAAAAAAAAAAAAAAAAAAAAAAAAAAAAAAAAAAAAAAAAAAAAAAAAAAAAAAAAAAAAAAAAAAAAAAAAAAAAAAAAAAAAAAAAAAAAAAAAAAAAAAAAAAAAAAAAAAAAAAAAAAAAAAAAAAAAAAAAAAAAAAAAAAAAAAAAAAAAAAAAAAAAAAAAAAAAAAAAAAAAAAAAAAAAAAAAAAAAAAAAAAAAAAAAAAAAAAAAAAAAAAAAAAAAAAAAAAAAAAAAAAAAAAAAAAAAAAAAAAAAAAAAAAAAAAAAAAAAAAAAAAAAAAAAAAAAAAAAAAAAAAAAAAAAAAAAAAAAAAAAAAAAAAAAAAAAAAAAAAAAAAAAAAAAAAAAAAAAAAAAAAAAAAAAAAAAAAAAAAAAAAAAAAAAAAAAAAAAAAAAAAAAAAAAAAAAAAAAAAAAAAAAAAAAAAAAAAAAAAAAAAAAAAAAAAAAAAAAAAAAAAAAAAAAAAAAAAAAAAAAAAAAAAAAAAAAAAAAAAAAAAAAAAAAAAAAAAAAAAAAAAAAAAAAAAAAAAAAAAAAAAAAAAAAAAAAAAAAAAAAAAAAAAAAAAAAAAAAAAAAAAAAAAAAAAAAAAAAAAAAAAAAAAAAAAAAAAAAAAAAAAAAAAAAAAAAAAAAAAAAAAAAAAAAAAAAAAAAAAAAAAAAAAAAAAAAAAAAAAAAAAAAAAAAAAAAAAAAAAAAAAAAAAAAAAAAAAAAAAAAAAAAAAAAAAAAAAAAAAAAAAAAAAAAAAAAAAAAAAAAAAAAAAAAAAAAAAAAAAAAAAAAAAAAAAAAAAAAAAAAAAAAAAAAAAAAAAAAAAAAAAAAAAAAAAAAAAAAAAAAAAAAAAAAAAAAAAAAAAAAAAAAAAAAAAAAAAAAAAAAAAAAAAAAAAAAAAAAAAAAAAAAAAAAAAAAAAAAAAAAAAAAAAAAAAAAAAAAAAAAAAAAAAAAAAAAAAAAAAAAAAAAAAAAAAAAAAAAAAAAAAAAAAAAAAAAAAAAAAAAAAAAAAAAAAAAAAAAAAAAAAAAAAAAAAAAAAAAAAAAAAAAAAAAAAAAAAAAAAAAAAAAAAAAAAAAAAAAAAAAAAAAAAAAAAAAAAAAAAAAAAAAAAAAAAAAAAAAAAAAAAAAAAAAAAAAAAAAAAAAAAAAAAAAAAAAAAAAAAAAAAAAAAAAAAAAAAAAAAAAAAAAAAAAAAAAAAAAAAAAAAAAAAAAAAAAAAAAAAAAAAAAAAAAAAAAAAAAAAAAAAAAAAAAAAAAAAAAAAAAAAAAAAAAAAAAAAAAAAAAAAAAAAAAAAAAAAAAAAAAAAAAAAAAAAAAAAAAAAAAAAAAAAAAAAAAAAAAAAAAAAAAAAAAAAAAAAAAAAAAAAAAAAAAAAAAAAAAAAAAAAAAAAAAAAAAAAAAAAAAAAAAAAAAAAAAAAAAAAAAAAAAAAAAAAAAAAAAAAAAAAAAAAAAAAAAAAAAAAAAAAAAAAAAAAAAAAAAAAAAAAAAAAAAAAAAAAAAAAAAAAAAAAAAAAAAAAAAAAAAAAAAAAAAAAAAAAAAAAAAAAAAAAAAAAAAAAAAAAAAAAAAAAAAAAAAAAAAAAAAAAAAAAAAAAAAAAAAAAAAAAAAAAAAAAAAAAAAAAAAAAAAAAAAAAAAAAAAAAAAAAAAAAAAAAAAAAAAAAAAAAAAAAAAAAAAAAAAAAAAAAAAAAAAAAAAAAAAAAAAAAAAAAAAAAAAAAAAAAAAAAAAAAAAAAAAAAAAAAAAAAAAAAAAAAAAAAAAAAAAAAAAAAAAAAAAAAAAAAAAAAAAAAAAAAAAAAAAAAAAAAAAAAAAAAAAAAAAAAAAAAAAAAAAAAAAAAAAAAAAAAAAAAAAAAAAAAAAAAAAAAAAAAAAAAAAAAAAAAAAAAAAAAAAAAAAAAAAAAAAAAAAAAAAAAAAAAAAAAAAAAAAAAAAAAAAAAAAAAAAAAAAAAAAAAAAAAAAAAAAAAAAAAAAAAAAAAAAAAAAAAAAAAAAAAAAAAAAAAAAAAAAAAAAAAAAAAAAAAAAAAAAAAAAAAAAAAAAAAAAAAAAAAAAAAAAAAAAAAAAAAAAAAAAAAAAAAAAAAAAAAAAAAAAAAAAAAAAAAAAAAAAAAAAAAAAAAAAAAAAAAAAAAAAAAAAAAAAAAAAAAAAAAAAAAAAAAAAAAAAAAAAAAAAAAAAAAAAAAAAAAAAAAAAAAAAAAAAAAAAAAAAAAAAAAAAAAAAAAAAAAAAAAAAAAAAAAAAAAAAAAAAAAAAAAAAAAAAAAAAAAAAAAAAAAAAAAAAAAAAAAAAAAAAAAAAAAAAAAAAAAAAAAAAAAAAAAAAAAAAAAAAAAAAAAAAAAAAAAAAAAAAAAAAAAAAAAAAAAAAAAAAAAAAAAAAAAAAAAAAAAAAAAAAAAAAAAAAAAAAAAAAAAAAAAAAAAAAAAAAAAAAAAAAAAAAAAAAAAAAAAAAAAAAAAAAAAAAAAAAAAAAAAAAAAAAAAAAAAAAAAAAAAAAAAAAAAAAAAAAAAAAAAAAAAAAAAAAAAAAAAAAAAAAAAAAAAAAAAAAAAAAAAAAAAAAAAAAAAAAAAAAAAAAAAAAAAAAAAAAAAAAAAAAAAAAAAAAAAAAAAAAAAAAAAAAAAAAAAAAAAAAAAAAAAAAAAAAAAAAAAAAAAAAAAAAAAAAAAAAAAAAAAAAAAAAAAAAAAAAAAAAAAAAAAAAAAAAAAAAAAAAAAAAAAAAAAAAAAAAAAAAAAAAAAAAAAAAAAAAAAAAAAAAAAAAAAAAAAAAAAAAAAAAAAAAAAAAAAAAAAAAAAAAAAAAAAAAAAAAAAAAAAAAAAAAAAAAAAAAAAAAAAAAAAAAAAAAAAAAAAAAAAAAAAAAAAAAAAAAAAAAAAAAAAAAAAAAAAAAAAAAAAAAAAAAAAAAAAAAAAAAAAAAAAAAAAAAAAAAAAAAAAAAAAAAAAAAAAAAAAAAAAAAAAAAAAAAAAAAAAAAAAAAAAAAAAAAAAAAAAAAAAAAAAAAAAAAAAAAAAAAAAAAAAAAAAAAAAAAAAAAAAAAAAAAAAAAAAAAAAAAAAAAAAAAAAAAAAAAAAAAAAAAAAAAAAAAAAAAAAAAAAAAAAAAAAAAAAAAAAAAAAAAAAAAAAAAAAAAAAAAAAAAAAAAAAAAAAAAAAAAAAAAAAAAAAAAAAAAAAAAAAAAAAAAAAAAAAAAAAAAAAAAAAAAAAAAAAAAAAAAAAAAAAAAAAAAAAAAAAAAAAAAAAAAAAAAAAAAAAAAAAAAAAAAAAAAAAAAAAAAAAAAAAAAAAAAAAAAAAAAAAAAAAAAAAAAAAAAAAAAAAAAAAAAAAAAAAAAAAAAAAAAAAAAAAAAAAAAAAAAAAAAAAAAAAAAAAAAAAAAAAAAAAAAAAAAAAAAAAAAAAAAAAAAAAAAAAAAAAAAAAAAAAAAAAAAAAAAAAAAAAAAAAAAAAAAAAAAAAAAAAAAAAAAAAAAAAAAAAAAAAAAAAAAAAAAAAAAAAAAAAAAAAAAAAAAAAAAAAAAAAAAAAAAAAAAAAAAAAAAAAAAAAAAAAAAAAAAAAAAAAAAAAAAAAAAAAAAAAAAAAAAAAAAAAAAAAAAAAAAAAAAAAAAAAAAAAAAAAAAAAAAAAAAAAAAAAAAAAAAAAAAAAAAAAAAAAAAAAAAAAAAAAAAAAAAAAAAAAAAAAAAAAAAAAAAAAAAAAAAAAAAAAAAAAAAAAAAAAAAAAAAAAAAAAAAAAAAAAAAAAAAAAAAAAAAAAAAAAAAAAAAAAAAAAAAAAAAAAAAAAAAAAAAAAAAAAAAAAAAAAAAAAAAAAAAAAAAAAAAAAAAAAAAAAAAAAAAAAAAAAAAAAAAAAAAAAAAAAAAAAAAAAAAAAAAAAAAAAAAAAAAAAAAAAAAAAAAAAAAAAAAAAAAAAAAAAAAAAAAAAAAAAAAAAAAAAAAAAAAAAAAAAAAAAAAAAAAAAAAAAAAAAAAAAAAAAAAAAAAAAAAAAAAAAAAAAAAAAAAAAAAAAAAAAAAAAAAAAAAAAAAAAAAAAAAAAAAAAAAAAAAAAAAAAAAAAAAAAAAAAAAAAAAAAAAAAAAAAAAAAAAAAAAAAAAAAAAAAAAAAAAAAAAAAAAAAAAAAAAAAAAAAAAAAAAAAAAAAAAAAAAAAAAAAAAAAAAAAAAAAAAAAAAAAAAAAAAAAAAAAAAAAAAAAAAAAAAAAAAAAAAAAAAAAAAAAAAAAAAAAAAAAAAAAAAAAAAAAAAAAAAAAAAAAAAAAAAAAAAAAAAAAAAAAAAAAAAAAAAAAAAAAAAAAAAAAAAAAAAAAAAAAAAAAAAAAAAAAAAAAAAAAAAAAAAAAAAAAAAAAAAAAAAAAAAAAAAAAAAAAAAAAAAAAAAAAAAAAAAAAAAAAAAAAAAAAAAAAAAAAAAAAAAAAAAAAAAAAAAAAAAAAAAAAAAAAAAAAAAAAAAAAAAAAAAAAAAAAAAAAAAAAAAAAAAAAAAAAAAAAAAAAAAAAAAAAAAAAAAAAAAAAAAAAAAAAAAAAAAAAAAAAAAAAAAAAAAAAAAAAAAAAAAAAAAAAAAAAAAAAAAAAAAAAAAAAAAAAAAAAAAAAAAAAAAAAAAAAAAAAAAAAAAAAAAAAAAAAAAAAAAAAAAAAAAAAAAAAAAAAAAAAAAAAAAAAAAAAAAAAAAAAAAAAAAAAAAAAAAAAAAAAAAAAAAAAAAAAAAAAAAAAAAAAAAAAAAAAAAAAAAAAAAAAAAAAAAAAAAAAAAAAAAAAAAAAAAAAAAAAAAAAAAAAAAAAAAAAAAAAAAAAAAAAAAAAAAAAAAAAAAAAAAAAAAAAAAAAAAAAAAAAAAAAAAAAAAAAAAAAAAAAAAAAAAAAAAAAAAAAAAAAAAAAAAAAAAAAAAAAAAAAAAAAAAAAAAAAAAAAAAAAAAAAAAAAAAAAAAAAAAAAAAAAAAAAAAAAAAAAAAAAAAAAAAAAAAAAAAAAAAAAAAAAAAAAAAAAAAAAAAAAAAAAAAAAAAAAAAAAAAAAAAAAAAAAAAAAAAAAAAAAAAAAAAAAAAAAAAAAAAAAAAAAAAAAAAAAAAAAAAAAAAAAAAAAAAAAAAAAAAAAAAAAAAAAAAAAAAAAAAAAAAAAAAAAAAAAAAAAAAAAAAAAAAAAAAAAAAAAAAAAAAAAAAAAAAAAAAAAAAAAAAAAAAAAAAAAAAAAAAAAAAAAAAAAAAAAAAAAAAAAAAAAAAAAAAAAAAAAAAAAAAAAAAAAAAAAAAAAAAAAAAAAAAAAAAAAAAAAAAAAAAAAAAAAAAAAAAAAAAAAAAAAAAAAAAAAAAAAAAAAAAAAAAAAAAAAAAAAAAAAAAAAAAAAAAAAAAAAAAAAAAAAAAAAAAAAAAAAAAAAAAAAAAAAAAAAAAAAAAAAAAAAAAAAAAAAAAAAAAAAAAAAAAAAAAAAAAAAAAAAAAAAAAAAAAAAAAAAAAAAAAAAAAAAAAAAAAAAAAAAAAAAAAAAAAAAAAAAAAAAAAAAAAAAAAAAAAAAAAAAAAAAAAAAAAAAAAAAAAAAAAAAAAAAAAAAAAAAAAAAAAAAAAAAAAAAAAAAAAAAAAAAAAAAAAAAAAAAAAAAAAAAAAAAAAAAAAAAAAAAAAAAAAAAAAAAAAAAAAAAAAAAAAAAAAAAAAAAAAAAAAAAAAAAAAAAAAAAAAAAAAAAAAAAAAAAAAAAAAAAAAAAAAAAAAAAAAAAAAAAAAAAAAAAAAAAAAAAAAAAAAAAAAAAAAAAAAAAAAAAAAAAAAAAAAAAAAAAAAAAAAAAAAAAAAAAAAAAAAAAAAAAAAAAAAAAAAAAAAAAAAAAAAAAAAAAAAAAAAAAAAAAAAAAAAAAAAAAAAAAAAAAAAAAAAAAAAAAAAAAAAAAAAAAAAAAAAAAAAAAAAAAAAAAAAAAAAAAAAAAAAAAAAAAAAAAAAAAAAAAAAAAAAAAAAAAAAAAAAAAAAAAAAAAAAAAAAAAAAAAAAAAAAAAAAAAAAAAAAAAAAAAAAAAAAAAAAAAAAAAAAAAAAAAAAAAAAAAAAAAAAAAAAAAAAAAAAAAAAAAAAAAAAAAAAAAAAAAAAAAAAAAAAAAAAAAAAAAAAAAAAAAAAAAAAAAAAAAAAAAAAAAAAAAAAAAAAAAAAAAAAAAAAAAAAAAAAAAAAAAAAAAAAAAAAAAAAAAAAAAAAAAAAAAAAAAAAAAAAAAAAAAAAAAAAAAAAAAAAAAAAAAAAAAAAAAAAAAAAAAAAAAAAAAAAAAAAAAAAAAAAAAAAAAAAAAAAAAAAAAAAAAAAAAAAAAAAAAAAAAAAAAAAAAAAAAAAAAAAAAAAAAAAAAAAAAAAAAAAAAAAAAAAAAAAAAAAAAAAAAAAAAAAAAAAAAAAAAAAAAAAAAAAAAAAAAAAAAAAAAAAAAAAAAAAAAAAAAAAAAAAAAAAAAAAAAAAAAAAAAAAAAAAAAAAAAAAAAAAAAAAAAAAAAAAAAAAAAAAAAAAAAAAAAAAAAAAAAAAAAAAAAAAAAAAAAAAAAAAAAAAAAAAAAAAAAAAAAAAAAAAAAAAAAAAAAAAAAAAAAAAAAAAAAAAAAAAAAAAAAAAAAAAAAAAAAAAAAAAAAAAAAAAAAAAAAAAAAAAAAAAAAAAAAAAAAAAAAAAAAAAAAAAAAAAAAAAAAAAAAAAAAAAAAAAAAAAAAAAAAAAAAAAAAAAAAAAAAAAAAAAAAAAAAAAAAAAAAAAAAAAAAAAAAAAAAAAAAAAAAAAAAAAAAAAAAAAAAAAAAAAAAAAAAAAAAAAAAAAAAAAAAAAAAAAAAAAAAAAAAAAAAAAAAAAAAAAAAAAAAAAAAAAAAAAAAAAAAAAAAAAAAAAAAAAAAAAAAAAAAAAAAAAAAAAAAAAAAAAAAAAAAAAAAAAAAAAAAAAAAAAAAAAAAAAAAAAAAAAAAAAAAAAAAAAAAAAAAAAAAAAAAAAAAAAAAAAAAAAAAAAAAAAAAAAAAAAAAAAAAAAAAAAAAAAAAAAAAAAAAAAAAAAAAAAAAAAAAAAAAAAAAAAAAAAAAAAAAAAAAAAAAAAAAAAAAAAAAAAAAAAAAAAAAAAAAAAAAAAAAAAAAAAAAAAAAAAAAAAAAAAAAAAAAAAAAAAAAAAAAAAAAAAAAAAAAAAAAAAAAAAAAAAAAAAAAAAAAAAAAAAAAAAAAAAAAAAAAAAAAAAAAAAAAAAAAAAAAAAAAAAAAAAAAAAAAAAAAAAAAAAAAAAAAAAAAAAAAAAAAAAAAAAAAAAAAAAAAAAAAAAAAAAAAAAAAAAAAAAAAAAAAAAAAAAAAAAAAAAAAAAAAAAAAAAAAAAAAAAAAAAAAAAAAAAAAAAAAAAAAAAAAAAAAAAAAAAAAAAAAAAAAAAAAAAAAAAAAAAAAAAAAAAAAAAAAAAAAAAAAAAAAAAAAAAAAAAAAAAAAAAAAAAAAAAAAAAAAAAAAAAAAAAAAAAAAAAAAAAAAAAAAAAAAAAAAAAAAAAAAAAAAAAAAAAAAAAAAAAAAAAAAAAAAAAAAAAAAAAAAAAAAAAAAAAAAAAAAAAAAAAAAAAAAAAAAAAAAAAAAAAAAAAAAAAAAAAAAAAAAAAAAAAAAAAAAAAAAAAAAAAAAAAAAAAAAAAAAAAAAAAAAAAAAAAAAAAAAAAAAAAAAAAAAAAAAAAAAAAAAAAAAAAAAAAAAAAAAAAAAAAAAAAAAAAAAAAAAAAAAAAAAAAAAAAAAAAAAAAAAAAAAAAAAAAAAAAAAAAAAAAAAAAAAAAAAAAAAAAAAAAAAAAAAAAAAAAAAAAAAAAAAAAAAAAAAAAAAAAAAAAAAAAAAAAAAAAAAAAAAAAAAAAAAAAAAAAAAAAAAAAAAAAAAAAAAAAAAAAAAAAAAAAAAAAAAAAAAAAAAAAAAAAAAAAAAAAAAAAAAAAAAAAAAAAAAAAAAAAAAAAAAAAAAAAAAAAAAAAAAAAAAAAAAAAAAAAAAAAAAAAAAAAAAAAAAAAAAAAAAAAAAAAAAAAAAAAAAAAAAAAAAAAAAAAAAAAAAAAAAAAAAAAAAAAAAAAAAAAAAAAAAAAAAAAAAAAAAAAAAAAAAAAAAAAAAAAAAAAAAAAAAAAAAAAAAAAAAAAAAAAAAAAAAAAAAAAAAAAAAAAAAAAAAAAAAAAAAAAAAAAAAAAAAAAAAAAAAAAAAAAAAAAAAAAAAAAAAAAAAAAAAAAAAAAAAAAAAAAAAAAAAAAAAAAAAAAAAAAAAAAAAAAAAAAAAAAAAAAAAAAAAAAAAAAAAAAAAAAAAAAAAAAAAAAAAAAAAAAAAAAAAAAAAAAAAAAAAAAAAAAAAAAAAAAAAAAAAAAAAAAAAAAAAAAAAAAAAAAAAAAAAAAAAAAAAAAAAAAAAAAAAAAAAAAAAAAAAAAAAAAAAAAAAAAAAAAAAAAAAAAAAAAAAAAAAAAAAAAAAAAAAAAAAAAAAAAAAAAAAAAAAAAAAAAAAAAAAAAAAAAAAAAAAAAAAAAAAAAAAAAAAAAAAAAAAAAAAAAAAAAAAAAAAAAAAAAAAAAAAAAAAAAAAAAAAAAAAAAAAAAAAAAAAAAAAAAAAAAAAAAAAAAAAAAAAAAAAAAAAAAAAAAAAAAAAAAAAAAAAAAAAAAAAAAAAAAAAAAAAAAAAAAAAAAAAAAAAAAAAAAAAAAAAAAAAAAAAAAAAAAAAAAAAAAAAAAAAAAAAAAAAAAAAAAAAAAAAAAAAAAAAAAAAAAAAAAAAAAAAAAAAAAAAAAAAAAAAAAAAAAAAAAAAAAAAAAAAAAAAAAAAAAAAAAAAAAAAAAAAAAAAAAAAAAAAAAAAAAAAAAAAAAAAAAAAAAAAAAAAAAAAAAAAAAAAAAAAAAAAAAAAAAAAAAAAAAAAAAAAAAAAAAAAAAAAAAAAAAAAAAAAAAAAAAAAAAAAAAAAAAAAAAAAAAAAAAAAAAAAAAAAAAAAAAAAAAAAAAAAAAAAAAAAAAAAAAAAAAAAAAAAAAAAAAAAAAAAAAAAAAAAAAAAAAAAAAAAAAAAAAAAAAAAAAAAAAAAAAAAAAAAAAAAAAAAAAAAAAAAAAAAAAAAAAAAAAAAAAAAAAAAAAAAAAAAAAAAAAAAAAAAAAAAAAAAAAAAAAAAAAAAAAAAAAAAAAAAAAAAAAAAAAAAAAAAAAAAAAAAAAAAAAAAAAAAAAAD2WEDZzHMZDOoZpbaUZqnQFJ8kEYfshqZAoeaEv3i3TACmOKQdIoVKVvyKvBB3BcEyDCF0igTM/qKfvOnOCaNqZXoH</c2pa:manifest></metadata>
  <defs>
    <style>
      .cls-1 {
        fill: #c85c48;
      }

      .cls-2 {
        fill: #223544;
      }

      .cls-3 {
        fill: #492f2c;
      }

      .cls-4 {
        fill: #c7835e;
      }

      .cls-5 {
        fill: #a4421f;
      }

      .cls-6 {
        fill: #f7dbbd;
      }

      .cls-7 {
        fill: #888b88;
      }

      .cls-8 {
        fill: #c17757;
      }

      .cls-9 {
        fill: #ebc2a0;
      }

      .cls-10 {
        fill: #253742;
      }

      .cls-11 {
        fill: #c75b46;
      }

      .cls-12 {
        fill: #233748;
      }

      .cls-13 {
        fill: #898c89;
      }

      .cls-14 {
        fill: #263743;
      }

      .cls-15 {
        fill: #253642;
      }

      .cls-16 {
        fill: #ce8c6c;
      }

      .cls-17 {
        fill: #d2986f;
      }

      .cls-18 {
        fill: #a9624e;
      }

      .cls-19 {
        fill: #f2cbab;
      }

      .cls-20 {
        fill: #985545;
      }

      .cls-21 {
        fill: #253844;
      }

      .cls-22 {
        fill: #263642;
      }

      .cls-23 {
        fill: #feebd6;
      }

      .cls-24 {
        fill: #ca8668;
      }

      .cls-25 {
        fill: #ac5030;
      }

      .cls-26 {
        fill: #d69c7b;
      }

      .cls-27 {
        fill: #7a6c66;
      }

      .cls-28 {
        fill: #dfaf8c;
      }

      .cls-29 {
        fill: #253743;
      }

      .cls-30 {
        fill: #ecc29f;
      }

      .cls-31 {
        fill: #c77c5e;
      }

      .cls-32 {
        fill: #cd6b52;
      }

      .cls-33 {
        fill: #c58062;
      }

      .cls-34 {
        fill: #38444f;
      }

      .cls-35 {
        fill: #c37d5f;
      }
    </style>
  </defs>
  <g id="Layer_1-2" data-name="Layer 1">
    <g id="Generative_Object" data-name="Generative Object">
      <path class="cls-1" d="M55.71,19.34c.07.05.09.16.07.27l9.26,9.92,7.19,7.87c.69.75.64,1.77.12,2.47-.58.78-1.68,1.05-2.5.44l-1.07-.8-5.38-5.46-13.76-14.91-10.69-11.83-2.59-2.86-7.39,8.18-10.65,11.63-11.07,11.94-3.29,3.31c-.41.41-.95.81-1.55,1.02-.8.28-1.57-.02-2.04-.64s-.55-1.52-.07-2.21c.64-.93,1.34-1.68,2.14-2.54L23.62,12.33,34.6.82c1.05-1.1,2.56-1.09,3.58,0l9.31,9.91,8.05,8.68c.06.07.13-.02.16-.07Z"/>
      <path class="cls-18" d="M65.08,9.51c-.24.21-.09.44-.09.76l.05,19.26-9.26-9.92c.05,0,.12-.03.12-.07l-.02-8.14,7.46-.49,1.42-.09c.13-.57-.08-.9-.1-1.32h.43Z"/>
      <path class="cls-15" d="M65.08,9.51h-.43s-8.91.08-8.91.08c-.84,0-1.42-.76-1.34-1.53.09-.88.82-1.28,1.66-1.28h8.96c.84,0,1.43.59,1.4,1.4-.02.73-.58,1.33-1.35,1.33Z"/>
      <path class="cls-20" d="M64.66,9.51c.01.42.23.75.1,1.32l-1.42.09-7.46.49.02,8.14s-.07.06-.12.07c.02-.11,0-.22-.07-.27l.04-7.43v-2.32s8.91-.07,8.91-.07Z"/>
      <path class="cls-34" d="M12.04,76.65l-.55,2.79-.3,1.46c-.15-.01-.39-.02-.54,0,.22-1.08.27-2.14.33-3.18.07-1.3.38-4.13.83-4.09.41.03.45,1.94.24,3.02Z"/>
      <path class="cls-12" d="M10.18,77.68l-.29,3.21c-.18,0-.49.2-.68-.02l.09-3.17.24-4.09c0-.13.08-.23.17-.29.54-.37.41,2.9.47,4.36Z"/>
      <path class="cls-2" d="M8.11,77.72l.72,3.24-.64-.06-.86-3.19-.93-3.81c-.03-.12.01-.32.09-.35.47-.13,1.33,2.97,1.61,4.15Z"/>
      <path class="cls-27" d="M12.81,77.58l-.93,3.37-.69-.05.3-1.46.55-2.79c.32.08.15-.98.99-1.03.1.73-.05,1.36-.22,1.96Z"/>
      <path class="cls-24" d="M8.2,80.9l-.7.05c-.47-1.03-1.11-1.95-1.72-2.88.53-.28,1.05-.27,1.56-.35l.86,3.19Z"/>
      <path class="cls-30" d="M6.74,80.96c-1.17.03-1.87-.02-2.25-1.3-.22-.76-.23-1.51-.28-2.25l2.53,3.56Z"/>
      <path class="cls-21" d="M5.78,78.07c.61.93,1.25,1.85,1.72,2.88l-.76.02-2.53-3.56-.02-.38c.25-.13.51-.04.74.19l.85.85Z"/>
      <path class="cls-35" d="M10.97,77.73c-.06,1.03-.11,2.1-.33,3.18-.21.03-.56,0-.76,0l.29-3.21.8.05Z"/>
      <polygon class="cls-24" points="9.29 77.7 9.2 80.87 8.83 80.96 8.11 77.72 9.29 77.7"/>
      <path class="cls-28" d="M38.96,7.31l-4.55,3.96c-.63.55-1.33.8-2.12.92l-3.31.43,7.39-8.18,2.59,2.86Z"/>
      <g>
        <path class="cls-22" d="M43.8,80.94h-13.07s.08-20.85.08-20.85l.19-2.41c.07-.88.76-1.42,1.61-1.71,2.91-1,6.21-1.06,9.16-.16,1.12.34,1.9,1.11,1.95,2.25l.18,3.92-.08,18.97Z"/>
        <path class="cls-32" d="M40.97,67.28c.52-.2,1.07.04,1.26.58.15.42-.08,1-.54,1.19s-1.02,0-1.27-.49c-.23-.46-.02-1.07.55-1.29Z"/>
      </g>
      <g>
        <path class="cls-33" d="M29.25,80.92l-17.37.03.93-3.37c.09.15.15.14.33.11l15.82-.13c1.05,0,.2,1.96.29,3.35Z"/>
        <path class="cls-3" d="M23.22,79.22c.08-.03.14.06.17.09.06.07.02.16-.06.21-.1.07-.17.02-.23-.05-.06-.08-.03-.2.11-.25Z"/>
      </g>
      <g>
        <path class="cls-6" d="M68.78,39.51l.07,27.71-.19,8.74c-.02,1.09-.1,2.14-.35,3.19s-1.06,1.77-2.26,1.77l-22.25.02.08-18.97-.18-3.92c-.05-1.14-.83-1.9-1.95-2.25-2.95-.9-6.24-.84-9.16.16-.85.29-1.54.83-1.61,1.71l-.19,2.41-.08,20.86-1.48-.03c-.09-1.39.76-3.36-.29-3.35l-15.82.13c-.18.02-.24.03-.33-.11.17-.6.32-1.23.22-1.96-.84.05-.67,1.11-.99,1.03.21-1.08.17-2.99-.24-3.02-.46-.04-.76,2.8-.83,4.09l-.8-.05c-.06-1.46.07-4.72-.47-4.36-.09.06-.16.16-.17.29l-.24,4.09-1.18.02c-.27-1.19-1.14-4.29-1.61-4.15-.08.02-.12.23-.09.35l.93,3.81c-.52.09-1.04.08-1.56.35l-.85-.85c-.23-.23-.49-.32-.74-.19l-.17-9.17-.04-28.33,3.29-3.31,11.07-11.94,10.65-11.63,3.31-.43c.8-.12,1.5-.38,2.12-.92l4.55-3.96,10.69,11.83,13.76,14.91,5.38,5.46Z"/>
        <g>
          <path class="cls-14" d="M51.92,61.27c-.06-2.17-.14-4.31.07-6.48.07-.79.78-1.37,1.47-1.44l2.9-.27-.04,8.2h-4.4Z"/>
          <path class="cls-10" d="M15.66,52.99s.11.02.17.02c.07,0,.11.08.07.15l-.03,7.94h-4.35s.01-5.89.01-5.89c.06-2.1,2.11-2.09,4.13-2.22Z"/>
          <path class="cls-7" d="M61.44,54.97l.02,6.33h-4.24s.01-8.19.01-8.19c1.96.06,4.04.05,4.21,1.86Z"/>
          <path class="cls-10" d="M21.04,59.19l-.04,1.84-3.93.06c-.07,0-.18.07-.33,0v-8.07c1.95.07,4.21.08,4.24,1.9l.07,4.27Z"/>
          <path class="cls-10" d="M32.4,28.44l.09-4.85c.04-1.9,2.21-2.24,4.19-2.16l-.15,6.97-4.13.04Z"/>
          <path class="cls-29" d="M41.31,23.35l.09,5.07h-4.02s.11-6.98.11-6.98c1.81.11,3.6.21,3.81,1.91Z"/>
          <path class="cls-10" d="M36.47,34.84c-1.44-.1-2.72-.06-4.13-.02l.06-5.57h4.15s-.08,5.59-.08,5.59Z"/>
          <polygon class="cls-14" points="56.32 67.25 51.92 67.28 51.94 62.17 56.33 62.15 56.32 67.25"/>
          <polygon class="cls-14" points="41.24 34.82 37.27 34.84 37.37 29.25 41.4 29.25 41.24 34.82"/>
          <path class="cls-15" d="M20.99,61.93l-.04,4.81.06.19c.02.05-.17.16-.25.16h-4.04s0-5.13,0-5.13l4.27-.03Z"/>
          <path class="cls-11" d="M29.25,53.15c-.89.87-2.17,1.32-2.72.49-.15-.23-.07-.64.2-.88l7.76-6.77c.73-.64,1.65-.96,1.89-.44.11.23.02.44-.1.74l-7.04,6.86Z"/>
          <polygon class="cls-13" points="61.35 67.24 57.16 67.27 57.2 62.17 61.46 62.16 61.35 67.24"/>
          <path class="cls-16" d="M21.65,67.5c.09.17.23.3.1.52-.29.5-1.4.52-2.42.54l-8.58.2c-.34,0-.65-.25-.73-.46-.1-.28.05-.57.24-.76.32-.17.69-.12,1.12-.15l10.02-.03c.06.15.18.16.26.14Z"/>
          <path class="cls-31" d="M62.15,68.71c-.29.15-.61.2-.98.21l-10.04.11c-.39,0-.71-.22-.81-.48-.1-.28.12-.85.56-.85l10.91.03c.29,0,.54.19.61.35.09.22-.02.51-.26.63Z"/>
          <path class="cls-26" d="M41.25,35.98l-9.24.32c-.41.01-.76-.28-.78-.57-.03-.38.34-.71.77-.71h4.53s4.77-.03,4.77-.03c.26,0,.52.32.51.48s-.23.5-.56.51Z"/>
          <path class="cls-9" d="M51.68,62.47l-.05,3.64.11,1.28-.8.07c-.13-3.46-.19-6.82-.03-10.27l.33-1.92c.03-.15.4-.14.4.03l.03,5.19c0,.32-.22.82.28,1.02l-.27.97Z"/>
          <path class="cls-8" d="M32.76,41.86c-1.82.4-3.6.15-5.41.25l-.21-.22c-.06-.06.1-.32.23-.31,1.76.1,3.5-.08,5.39.29Z"/>
          <path class="cls-23" d="M23.57,30.02c-.01.91-2.97.72-2.99.43,0-.05.12-.12.1-.18.16,0,.26-.13.39-.27h2.49Z"/>
          <path class="cls-17" d="M23.57,30.02h-2.49c-.13.13-.23.25-.39.26-.08-.21.08-.39.19-.4l.38-.06,1.82-.08c.22,0,.5.05.49.28Z"/>
          <path class="cls-4" d="M49.23,73.7c.39.15.89.12,1.14-.29.05-.08-.1-.19-.13-.21-.03-.02-.11-.07-.16.06l-1.1-.03v-.18s1.46,0,1.46,0c.16.2.06.7-.26.8-.25.03-.71.21-.95-.17Z"/>
          <path class="cls-25" d="M50.75,28.85c.09-.16.16,0,.19.02.05.04.07.22,0,.24-.06.01-.24-.16-.18-.26Z"/>
          <path class="cls-5" d="M19.09,44.13s.18-.06.25-.04c.04.01.1.06.02.13-.03.03-.09.12-.13.12-.04,0-.14-.08-.14-.2Z"/>
          <g>
            <path class="cls-19" d="M15.66,52.99c-2.02.13-4.07.12-4.13,2.22v5.9s4.34,0,4.34,0l.03-7.94h.5s.04,3.02.04,3.02l.02,4.29c0,.21-.14.46.13.59.07.16.37.34.46.03l3.93-.06.04-1.84s.1,0,.13.03v1.77s-.38.5-.38.5c.04.05.31.12.24.25-.03.05-.03.11-.03.2l-4.27.03v5.15s4.03-.01,4.03-.01c.07,0,.26-.11.25-.16l-.06-.19c.06-.02.13.03.12.07-.01.05-.03.27,0,.3.05.04.23-.02.29,0,.05.02.1.13.11.2.14.06.14.1.18.19-.08.01-.2,0-.26-.14l-10.02.03c-.43.03-.8-.02-1.12.15-.05-.07-.03-.22.16-.2l.02-7.76c0-1.39.09-4.11.49-4.03.07.01.16.13.25.22.15-.81.17-1.8.6-1.81.43-.84,1.27-1.01,2.06-1,.37-.29,1.46-.14,1.82.02Z"/>
            <polygon class="cls-10" points="15.87 67.08 11.54 67.12 11.53 62.02 15.87 61.98 15.87 67.08"/>
          </g>
        </g>
      </g>
    </g>
  </g>
</svg>