<?xml version="1.0" encoding="UTF-8"?>
<svg id="Layer_2" data-name="Layer 2" xmlns="http://www.w3.org/2000/svg" viewBox="0 0 71.95 97.88" xmlns:c2pa="http://c2pa.org/manifest"><metadata><c2pa:manifest>AABtP2p1bWIAAAAeanVtZGMycGEAEQAQgAAAqgA4m3EDYzJwYQAAADU+anVtYgAAAEdqdW1kYzJtYQARABCAAACqADibcQN1cm46YzJwYToxMmZjZDgxOC00MTZiLTQ3OTYtOWE1OS03NjM4NzJkOGZhNDgAAAAC6mp1bWIAAAApanVtZGMyYXMAEQAQgAAAqgA4m3EDYzJwYS5hc3NlcnRpb25zAAAAAfZqdW1iAAAAQWp1bWRjYm9yABEAEIAAAKoAOJtxE2MycGEuYWN0aW9ucy52MgAAAAAYYzJzaERgCByFUkNHiotlRyvPIlcAAAGtY2JvcqJnYWN0aW9uc4GlZmFjdGlvbmxjMnBhLmNyZWF0ZWRkd2hlbsB4HDIwMjYtMDktMjBUMjM6NDk6NDkuMTg0MDY1OFptc29mdHdhcmVBZ2VudHBGaXJlZmx5IFZlY3RvciA0anBhcmFtZXRlcnOicWNvbS5hZG9iZS5nZW5BaUlkeCQyMmVlNjgzYy0wM2JkLTQ0NDctYmNiYy02OWRkZDU2M2M1Y2Z4G2NvbS5hZG9iZS5kaWdpdGFsU291cmNlVHlwZXhGaHR0cDovL2N2LmlwdGMub3JnL25ld3Njb2Rlcy9kaWdpdGFsc291cmNldHlwZS90cmFpbmVkQWxnb3JpdGhtaWNNZWRpYXFkaWdpdGFsU291cmNlVHlwZXhGaHR0cDovL2N2LmlwdGMub3JnL25ld3Njb2Rlcy9kaWdpdGFsc291cmNldHlwZS90cmFpbmVkQWxnb3JpdGhtaWNNZWRpYWl0ZW1wbGF0ZXOBomZhY3Rpb25hKnJ0ZW1wbGF0ZVBhcmFtZXRlcnOhdWNvbS5hZG9iZS5hcHBFbmZvcmNlZPUAAADDanVtYgAAAEBqdW1kY2JvcgARABCAAACqADibcRNjMnBhLmhhc2guZGF0YQAAAAAYYzJzaLmnrAWkcBt4JNbR1YmuR0sAAAB7Y2JvcqVqZXhjbHVzaW9uc4GiZXN0YXJ0GCFmbGVuZ3RoGTVwZG5hbWVuanVtYmYgbWFuaWZlc3RjYWxnZnNoYTI1NmRoYXNoWCAOtYy+dCTP9U/lTP4T6of+UpbBKle8L+Z2frFs33bJ7mNwYWRIAAAAAAAAAAAAAAH1anVtYgAAACdqdW1kYzJjbAARABCAAACqADibcQNjMnBhLmNsYWltLnYyAAAAAcZjYm9ypmppbnN0YW5jZUlEeCx4bXA6aWlkOjMzOTZjZDIzLTRlY2YtNGY4Ny05ZDFhLWQ0MWFjZGViOGVhZHRjbGFpbV9nZW5lcmF0b3JfaW5mb6JkbmFtZW1BZG9iZSBGaXJlZmx5d29yZy5jb250ZW50YXV0aC5jMnBhX3JzZjAuODYuMWlzaWduYXR1cmV4TXNlbGYjanVtYmY9L2MycGEvdXJuOmMycGE6MTJmY2Q4MTgtNDE2Yi00Nzk2LTlhNTktNzYzODcyZDhmYTQ4L2MycGEuc2lnbmF0dXJlcmNyZWF0ZWRfYXNzZXJ0aW9uc4GiY3VybHgpc2VsZiNqdW1iZj1jMnBhLmFzc2VydGlvbnMvYzJwYS5oYXNoLmRhdGFkaGFzaFggy0TPeL+F89M0QxL6OjcCPnscnB4mtryXVnkkAVpdUr5zZ2F0aGVyZWRfYXNzZXJ0aW9uc4GiY3VybHgqc2VsZiNqdW1iZj1jMnBhLmFzc2VydGlvbnMvYzJwYS5hY3Rpb25zLnYyZGhhc2hYICWDJeiBkmeLbGQOVWpoEa752wgoYY2m9Ql5mS9kVRmkY2FsZ2ZzaGEyNTYAADAQanVtYgAAAChqdW1kYzJjcwARABCAAACqADibcQNjMnBhLnNpZ25hdHVyZQAAAC/gY2JvctKEWQ0bogE4JBghglkGpzCCBqMwggSLoAMCAQICFA5q/BSg8yl4Zv10JkbAgi+qatbrMA0GCSqGSIb3DQEBCwUAMHUxCzAJBgNVBAYTAlVTMSMwIQYDVQQKExpBZG9iZSBTeXN0ZW1zIEluY29ycG9yYXRlZDEdMBsGA1UECxMUQWRvYmUgVHJ1c3QgU2VydmljZXMxIjAgBgNVBAMTGUFkb2JlIFByb2R1Y3QgU2VydmljZXMgRzQwHhcNMjYwODIwMTYzNDE2WhcNMjcwODIwMTYzNDE2WjCBsjEaMBgGA1UEAwwRQWRvYmUgSWxsdXN0cmF0b3IxKDAmBgNVBAsMH0NvbnRlbnQgQXV0aGVudGljaXR5IEluaXRpYXRpdmUxEzARBgNVBAoMCkFkb2JlIEluYy4xETAPBgNVBAcMCFNhbiBKb3NlMRMwEQYDVQQIDApDYWxpZm9ybmlhMQswCQYDVQQGEwJVUzEgMB4GCSqGSIb3DQEJARYRY2FpLW9wc0BhZG9iZS5jb20wggEiMA0GCSqGSIb3DQEBAQUAA4IBDwAwggEKAoIBAQDaJIklY46VfGkVjSrvq3ACwzs1Bn0GeEwIg4HQBpvcHhx3e1q2GYFMl8MNI1B+C/6EJO5IHt20ybfzlK7OB+Obw3WikHeqyHxIdCFnUtApIpsWmnJyByYGNmKhkErKSS10TSVEdUJk2QIUdrIqTNSFEYrDflOy8P7eSXk0ezLIkPlDCkMAfOYCSVI/z9SBt7ZY5rotSSZUALrkM2nmXspyFWBoR9cPJIAqakJyaQqmpLF5dUVmt5RVNSuGryA5hiYRiNyd4E5Afqgihk+4dKf1owrESg/aqvuFMIqQoUkHSvwoiEQeVNXRtiNJmhB+wnGK9LClJKnLngXXMWs4SmvPAgMBAAGjggHrMIIB5zAOBgNVHQ8BAf8EBAMCB4AwKgYDVR0lBCMwIQYJKoZIhvcvAQEMBgorBgEEAYPoXgIBBggrBgEFBQcDBDAdBgNVHQ4EFgQULp37ELRKZzno7or4DgQnPwZopmQwHwYDVR0jBBgwFoAU0K1CivB6FAclxpfAQ6gjhei1LSMwgY4GA1UdIASBhjCBgzCBgAYJKoZIhvcvAQIDMHMwcQYIKwYBBQUHAgIwZQxjWW91IGFyZSBub3QgcGVybWl0dGVkIHRvIHVzZSB0aGlzIExpY2Vuc2UgQ2VydGlmaWNhdGUgZXhjZXB0IGFzIHBlcm1pdHRlZCBieSB0aGUgbGljZW5zZSBhZ3JlZW1lbnQuMAwGA1UdEwEB/wQCMAAwgYAGCCsGAQUFBwEBBHQwcjAoBggrBgEFBQcwAYYcaHR0cDovL29jc3Aub25lLmRpZ2ljZXJ0LmNvbTBGBggrBgEFBQcwAoY6aHR0cDovL2NhY2VydHMub25lLmRpZ2ljZXJ0LmNvbS9BZG9iZVByb2R1Y3RTZXJ2aWNlc0c0LmNydDBHBgNVHR8EQDA+MDygOqA4hjZodHRwOi8vY3JsLm9uZS5kaWdpY2VydC5jb20vQWRvYmVQcm9kdWN0U2VydmljZXNHNC5jcmwwDQYJKoZIhvcNAQELBQADggIBABSSvthW9/1ALgSfCP7e/3YwivzBSU4SF+QFq5ul8vKf5vbc70nF/ojml/gCVqiVrWe/Qu4DsDAWbrU40Rb8DaaEdUUox+VZwGNBYFNme9ZvQUjZ/Mkd7rMRruBOC6PNRwLObjO5NTKlcya/Fjep49cuqsPHTBnqyniPpiBLDxXMK4wpThV8Pom/gel+omp8ONlCXwcBbECx08EGhYhnv3P+TZ/uhftjEJAC6OBYAwV2+/MTtJckcnXaXUkd8OX9piYu0+i4qojrCWj6Qcpc2KC1Pgs9nKYCIsYvX8/wjSYaQpyWGNiR8pUBsEC9FtvxCtCO4AkvMG9NO7WH03Vt+2bf6SOrAvbc9DwT6Cmo5iBGGD/wT/mTxSIUTlGpP0CymQ0lGIGUCBxv/ALeGQOhhlugj5nWuWeZqUzTxBllR2/p7b0uKgYxe1rdUinqZ4PHO8Rd8II9xgBmE0zIvujRJaiGwFe7Z8txN6dT5iRbwIr/3gfC0PR3zoimJ+1hPsyMTlK4g+g3viErPoCEXmnnhNMJ1OHRG8z7ZHchpzq+vHAxA2VFNSJa8iT856eKIyhQYrCzW5f5bB95YlCEJZEfZHL5mrxIUMq4T2mafUQ4mkt3KidcdrFZTU0JsClCTmwkXhOi3HwET7Hm+GJ7+SeP5wu2two+yxVia2bQHUIdBcM0WQZnMIIGYzCCBEugAwIBAgIQDuG63614rm8mvVElmAeILzANBgkqhkiG9w0BAQsFADBsMQswCQYDVQQGEwJVUzEjMCEGA1UEChMaQWRvYmUgU3lzdGVtcyBJbmNvcnBvcmF0ZWQxHTAbBgNVBAsTFEFkb2JlIFRydXN0IFNlcnZpY2VzMRkwFwYDVQQDExBBZG9iZSBSb290IENBIEcyMB4XDTI0MTEyMDAwMDAwMFoXDTQ0MTExOTIzNTk1OVowdTELMAkGA1UEBhMCVVMxIzAhBgNVBAoTGkFkb2JlIFN5c3RlbXMgSW5jb3Jwb3JhdGVkMR0wGwYDVQQLExRBZG9iZSBUcnVzdCBTZXJ2aWNlczEiMCAGA1UEAxMZQWRvYmUgUHJvZHVjdCBTZXJ2aWNlcyBHNDCCAiIwDQYJKoZIhvcNAQEBBQADggIPADCCAgoCggIBAKxF+ICxWEi8zumCmeLCiU7as6RDEkgB/y6nFXeceMAQC5afyCzXeWyQJolO7Cmi4Nw5vtexdD3zVCwG7cUAn3kHrNaLNtkGS+qp7jCG3QpvASkdR+ujOpyWiOB/iBlyWR+8djFpjv3N323tR4Don9zeZ23+Gctlmd+D5KvI1zKQdWYHKtMxFJaRKXwrebOE4it4lVoPfY843ve9N7cuJlFyj2Vu3NLrr1RgEF+jdUAAEynThGKVVoUKG1abmuvmLq34LluAcRIME0TE8EuGMNvomTLAYI2c4MSXxhrJqThlWRo+MsXi+J5S/VYsm+hvd4Flwus+qF4cA+1QEDNMiidxPTMji3OXNAhsnFWNFFBt0RzTNSFsOQObDKTo90YBvEfT6JGqjwkr7hEfj87gcNVXkzoJSHEADJ4kNnJu5rgef2LvYp4dG1EpQskGMrZaq55gDcbKVm4rnY5M93lHsG4DEusf/3YihdPOdc0sDgmDDJiuQR6Glb1fK4Se0J9vomXSSW1p3ICv3TUpeKd/GRb3ChDFpMfHDv0UjfCRh9eeRBXFGCWkB6DUvSMz6uAHFpDuXiRyemRjjszJTWwx0p6HByMdtvRQhhA/JfgEcLEtUcb5MToCr+DwIO4ZaoNaktJvJOQHtG0TQbArhIg+/35UrTbVPbZg7pxmQnjTgbPvAgMBAAGjgfcwgfQwEgYDVR0TAQH/BAgwBgEB/wIBADA1BgNVHR8ELjAsMCqgKKAmhiRodHRwOi8vY3JsLmFkb2JlLmNvbS9hZG9iZXJvb3RnMi5jcmwwDgYDVR0PAQH/BAQDAgGGMFcGA1UdIARQME4wTAYJKoZIhvcvAQIDMD8wPQYIKwYBBQUHAgEWMWh0dHBzOi8vd3d3LmFkb2JlLmNvbS9taXNjL3BraS9wcm9kX3N2Y2VfY3BzLmh0bWwwHQYDVR0OBBYEFNCtQorwehQHJcaXwEOoI4XotS0jMB8GA1UdIwQYMBaAFKYc4W1UJEyoj0hyv26pjNXk7DHUMA0GCSqGSIb3DQEBCwUAA4ICAQCRlqhDU07OWLmha2+YptYEMFr3tEE9vhBLlnlN7oeKRW9S8UVEGJUNwGnw4HMy2IIeGGc6pn2h+s6ZV6xJ8CdjgMT8Zp5OtaNNe5O/qH37EETsDxN79lUDolWAnO9GT1Ln1fT25z7n+ilSPQ5EMUzKsTRslqJMVQeTOYWNYX80+eFeoT8/0s6NZLsxodw4l+pBRdyvI5g2g/vgxTYPQjdjBeqIIPBZfW5PI6WJwesJW65tXaqd1GNmkkDPlO3ZcS8qj0TONxpCfrDsjTm+OpX9k2Yvyljuz/GLssmw9hpwwOa9gSIOhVrR1hSCoWkrHQ1KWeaedPREi0AdlQ0NXClPmf7AxCZN8e4fkNovduPXyTnI43nN8PFMsUmySUxb9RtyWOH87KuJjBVkgX2PbIRvCxnQ6RrzElMbzKfw/oDRs8Psq/mm3OqVxGE8JqEH7yl3mLa7OQEk6bAMjqEoORkxudGTf0beyV72Iu5MlklIZ9L3J7XLIObmURgVhJfzmBfubLwfRGm1aaScfeyCL/38T0jKtKqYklDi1A3VbWPBSMn8sCcS7cOrbRLQtm1Y6qES+zE5Lvt/HnsVAeB1caQuxP+Fblc7a4xQb6sRmy6FmVWFbqwC1yzeXbSo9ki2+zd3OezgyfNmWgoEj3MwlbQXMNi9Vq8kA9Hf4rayLs28fqNnc2lnVHN0MqFpdHN0VG9rZW5zgaFjdmFsWQ5QMIIOTAYJKoZIhvcNAQcCoIIOPTCCDjkCAQMxDzANBglghkgBZQMEAgEFADCBggYLKoZIhvcNAQkQAQSgcwRxMG8CAQEGCWCGSAGG/WwHATAxMA0GCWCGSAFlAwQCAQUABCCUq50TLAIgideQ7B0ZYX32VrGqael5t5eK1ndnNzk8zgIQLWgDg8qgyek1E+nBnMEbMBgPMjAyNjA5MjAyMzQ5NDlaAgkAlf/BfcINeT2gggvaMIIFHjCCAwagAwIBAgIQA2KS/m/asSS6b0LLHgkYFjANBgkqhkiG9w0BAQsFADBpMQswCQYDVQQGEwJVUzEXMBUGA1UEChMORGlnaUNlcnQsIEluYy4xQTA/BgNVBAMTOERpZ2lDZXJ0IFRydXN0ZWQgRzQgVGltZVN0YW1waW5nIFJTQTQwOTYgU0hBMjU2IDIwMjUgQ0ExMB4XDTI2MDgwNTAwMDAwMFoXDTM3MTEwNDIzNTk1OVowXzELMAkGA1UEBhMCVVMxFzAVBgNVBAoTDkRpZ2lDZXJ0LCBJbmMuMTcwNQYDVQQDEy5BZG9iZSBTSEEyNTYgRUNDMjU2IFRpbWVzdGFtcCBSZXNwb25kZXIgMjAyNiAxMFkwEwYHKoZIzj0CAQYIKoZIzj0DAQcDQgAEsxTtyfPL3FikHmd3jnF9ynV6IggytGYCXGpXbN/ONPnRDNvFlf6C7eE/vqmJQqEP6sZR0F18I85/vK7lIy/MBKOCAZUwggGRMAwGA1UdEwEB/wQCMAAwHQYDVR0OBBYEFKGfP+qo6uqI+zg5kTGDVccesWEGMB8GA1UdIwQYMBaAFO9vU0rp5AZ8esrikFb2L9RJ7MtOMA4GA1UdDwEB/wQEAwIHgDAWBgNVHSUBAf8EDDAKBggrBgEFBQcDCDCBlQYIKwYBBQUHAQEEgYgwgYUwJAYIKwYBBQUHMAGGGGh0dHA6Ly9vY3NwLmRpZ2ljZXJ0LmNvbTBdBggrBgEFBQcwAoZRaHR0cDovL2NhY2VydHMuZGlnaWNlcnQuY29tL0RpZ2lDZXJ0VHJ1c3RlZEc0VGltZVN0YW1waW5nUlNBNDA5NlNIQTI1NjIwMjVDQTEuY3J0MF8GA1UdHwRYMFYwVKBSoFCGTmh0dHA6Ly9jcmwzLmRpZ2ljZXJ0LmNvbS9EaWdpQ2VydFRydXN0ZWRHNFRpbWVTdGFtcGluZ1JTQTQwOTZTSEEyNTYyMDI1Q0ExLmNybDAgBgNVHSAEGTAXMAgGBmeBDAEEAjALBglghkgBhv1sBwEwDQYJKoZIhvcNAQELBQADggIBALIW/YS8BrrsO+nDn1vx7Fdy5mGZyLVUo2scadcDpeWYdihfX+ppMP+vzlQL93tHWzrznEcqDZrF5QtrdVyePEiPLeuFwB8OZkKMHJti53Utyy/WeGAdQOEvu89Bd4g9uK1unOcUnKvInTx5TFtDvWaRzYQRUVvSxbUd/6OVYGk2qTuZFPJIXFkoTcTz7e7AuidOGLO1c3L9oncvDJ6kgM3hOIUtLqyryjfDMG7fJBa2pH2+FJB01ErFD/iLAKOQLqqx5mMif2p7HNUWLXJqY8xqgsKMWubKRWw0+40BRvArYCu09w+kFxPFqAKrgsq9K837Fo34j50yf03WLdy4faYVuOvAKkxvJjQZfp9V1+SlqHEDCHTtDaXN5wOiux058AzSXpKlRrEVA13ELU/d0pKnd1d+rXLOGftYl+ce+E7Uoc/g+v1duhJtJdRsa5SUybhMpHsvQuc06KcTEMizfasaDxXN0++fPPhL4GxBXIbpkCUGhvJ8yFXBMLUjmFJpF9cKaKAt8ZB8B3fPa/3fSrvqAd5Cw1Jk57l2EI7JQ1qyund+AbPA3Ou6GUK/YroMFaZDRbUoTBc6fVeaV5wpW/LeF47uyaeG4MyutB4K/pb3YZ8XB6gb50OVhljuAzOhs3T5wTmpc9L5n9MoGzTc3Hm6ERJH/JfKIxOmxPU4ghrGMIIGtDCCBJygAwIBAgIQDcesVwX/IZkuQEMiDDpJhjANBgkqhkiG9w0BAQsFADBiMQswCQYDVQQGEwJVUzEVMBMGA1UEChMMRGlnaUNlcnQgSW5jMRkwFwYDVQQLExB3d3cuZGlnaWNlcnQuY29tMSEwHwYDVQQDExhEaWdpQ2VydCBUcnVzdGVkIFJvb3QgRzQwHhcNMjUwNTA3MDAwMDAwWhcNMzgwMTE0MjM1OTU5WjBpMQswCQYDVQQGEwJVUzEXMBUGA1UEChMORGlnaUNlcnQsIEluYy4xQTA/BgNVBAMTOERpZ2lDZXJ0IFRydXN0ZWQgRzQgVGltZVN0YW1waW5nIFJTQTQwOTYgU0hBMjU2IDIwMjUgQ0ExMIICIjANBgkqhkiG9w0BAQEFAAOCAg8AMIICCgKCAgEAtHgx0wqYQXK+PEbAHKx126NGaHS0URedTa2NDZS1mZaDLFTtQ2oRjzUXMmxCqvkbsDpz4aH+qbxeLho8I6jY3xL1IusLopuW2qftJYJaDNs1+JH7Z+QdSKWM06qchUP+AbdJgMQB3h2DZ0Mal5kYp77jYMVQXSZH++0trj6Ao+xh/AS7sQRuQL37QXbDhAktVJMQbzIBHYJBYgzWIjk8eDrYhXDEpKk7RdoX0M980EpLtlrNyHw0Xm+nt5pnYJU3Gmq6bNMI1I7Gb5IBZK4ivbVCiZv7PNBYqHEpNVWC2ZQ8BbfnFRQVESYOszFI2Wv82wnJRfN20VRS3hpLgIR4hjzL0hpoYGk81coWJ+KdPvMvaB0WkE/2qHxJ0ucS638ZxqU14lDnki7CcoKCz6eum5A19WZQHkqUJfdkDjHkccpL6uoG8pbF0LJAQQZxst7VvwDDjAmSFTUms+wV/FbWBqi7fTJnjq3hj0XbQcd8hjj/q8d6ylgxCZSKi17yVp2NL+cnT6Toy+rN+nM8M7LnLqCrO2JP3oW//1sfuZDKiDEb1AQ8es9Xr/u6bDTnYCTKIsDq1BtmXUqEG1NqzJKS4kOmxkYp2WyODi7vQTCBZtVFJfVZ3j7OgWmnhFr4yUozZtqgPrHRVHhGNKlYzyjlroPxul+bgIspzOwbtmsgY1MCAwEAAaOCAV0wggFZMBIGA1UdEwEB/wQIMAYBAf8CAQAwHQYDVR0OBBYEFO9vU0rp5AZ8esrikFb2L9RJ7MtOMB8GA1UdIwQYMBaAFOzX44LScV1kTN8uZz/nupiuHA9PMA4GA1UdDwEB/wQEAwIBhjATBgNVHSUEDDAKBggrBgEFBQcDCDB3BggrBgEFBQcBAQRrMGkwJAYIKwYBBQUHMAGGGGh0dHA6Ly9vY3NwLmRpZ2ljZXJ0LmNvbTBBBggrBgEFBQcwAoY1aHR0cDovL2NhY2VydHMuZGlnaWNlcnQuY29tL0RpZ2lDZXJ0VHJ1c3RlZFJvb3RHNC5jcnQwQwYDVR0fBDwwOjA4oDagNIYyaHR0cDovL2NybDMuZGlnaWNlcnQuY29tL0RpZ2lDZXJ0VHJ1c3RlZFJvb3RHNC5jcmwwIAYDVR0gBBkwFzAIBgZngQwBBAIwCwYJYIZIAYb9bAcBMA0GCSqGSIb3DQEBCwUAA4ICAQAXzvsWgBz+Bz0RdnEwvb4LyLU0pn/N0IfFiBowf0/Dm1wGc/Do7oVMY2mhXZXjDNJQa8j00DNqhCT3t+s8G0iP5kvN2n7Jd2E4/iEIUBO41P5F448rSYJ59Ib61eoalhnd6ywFLerycvZTAz40y8S4F3/a+Z1jEMK/DMm/axFSgoR8n6c3nuZB9BfBwAQYK9FHaoq2e26MHvVY9gCDA/JYsq7pGdogP8HRtrYfctSLANEBfHU16r3J05qX3kId+ZOczgj5kjatVB+NdADVZKON/gnZruMvNYY2o1f4MXRJDMdTSlOLh0HCn2cQLwQCqjFbqrXuvTPSegOOzr4EWj7PtspIHBldNE2K9i697cvaiIo2p61Ed2p8xMJb82Yosn0z4y25xUbI7GIN/TpVfHIqQ6Ku/qjTY6hc3hsXMrS+U0yy+GWqAXam4ToWd2UQ1KYT70kZjE4YtL8Pbzg0c1ugMZyZZd/BdHLiRu7hAWE6bTEm4XYRkA6Tl4KSFLFk43esaUeqGkH/wyW4N7OigizwJWeukcyIPbAvjSabnf7+Pu0VrFgoiovRDiyx3zEdmcif/sYQsfch28bZeUz2rtY/9TCA6TD8dC3JE3rYkrhLULy7Dc90G6e8BlqmyIjlgp2+VqsS9/wQD7yFylIz0scmbKvFoW2jNrbM1pD2T7m3XDGCAb4wggG6AgEBMH0waTELMAkGA1UEBhMCVVMxFzAVBgNVBAoTDkRpZ2lDZXJ0LCBJbmMuMUEwPwYDVQQDEzhEaWdpQ2VydCBUcnVzdGVkIEc0IFRpbWVTdGFtcGluZyBSU0E0MDk2IFNIQTI1NiAyMDI1IENBMQIQA2KS/m/asSS6b0LLHgkYFjANBglghkgBZQMEAgEFAKCB0TAaBgkqhkiG9w0BCQMxDQYLKoZIhvcNAQkQAQQwHAYJKoZIhvcNAQkFMQ8XDTI2MDkyMDIzNDk0OVowKwYLKoZIhvcNAQkQAgwxHDAaMBgwFgQUohwhqjWFOn6VjGerqKZukPJH2cQwLwYJKoZIhvcNAQkEMSIEIGbtJ0lQjwOfZP9qjB16bE8QYriDmVAEJ7P+Cgu0G08uMDcGCyqGSIb3DQEJEAIvMSgwJjAkMCIEIICJbLcHAbLZw5p/SOCQIzOuZtWk1tb8yB3GsxW3X+cFMAoGCCqGSM49BAMCBEcwRQIgHRR5DdANShAN40oqrsJzPc/gXsUxO4SqOSbC87hLZOMCIQDr0wAdzB1j8O6sBSCB8Sq6vf/d9UE4A0Xk/a5SnGcPI2VyVmFsc6Fob2NzcFZhbHOBWQLbMIIC1woBAKCCAtAwggLMBgkrBgEFBQcwAQEEggK9MIICuTCBoqIWBBTQrUKK8HoUByXGl8BDqCOF6LUtIxgPMjAyNjA5MTgxNjQyMzRaMHcwdTBNMAkGBSsOAwIaBQAEFIrvsgEQb2tlFU3Bo7dRqYtzkssWBBTQrUKK8HoUByXGl8BDqCOF6LUtIwIUDmr8FKDzKXhm/XQmRsCCL6pq1uuAABgPMjAyNjA5MTgxNjQyMzRaoBEYDzIwMjYwOTI1MTY0MjM0WjANBgkqhkiG9w0BAQsFAAOCAgEAc/v3jZVbnAGgvjRZVfqCm/0BKZ/1sCwmwyjYTwbso1F0+h95GFCv9iRMMXLuiHzbfHyYN91qzSF0fJRUrK3DVuJpvpKH8fAduUE1edN/AkJw+c6vgslTi6uq4RLIKJKBMAeicJeng5w8oVECw0nOPj5pWtxp3/CNIgYjHi7UWQX5Kiz23E6pLxKfnt+7BAf7kD5adw5RRjwM0z3RlP4rZlPuI5jU+R5Fr8CyV+lfHNlj6cv9pfRFOQ/YyCxdOr9SmwghpJOjZiEqCtxZJZJyoQ0iB/55N8vLjCRrVfWowAJOofC+EVadq3viB0X/u8MhXoJ5P1TPRCJmnNZqzOSOeaKeXPDS6kQBMMzBYf3rP4Sk+Rv7akh1Pst1IaufINplEAY9R7AkIaJz7qC1QPHArs49oGk5D1hqm6zu+BLcPVqsyVRu/gfYPosrJZBd8ZROj3A6iCZA2Qt9FyNCw5BDcqCL38eFa6hESrIT1+4kuSS0uhIXfm1umj9yYb5i1ge0f0k1l1fu0E4N0BfyYbapobcA0hBmirIUX5XoTvRptVqSEgvUYZvTT5NsmYGZVJT+X9qTD7iE6XIPO2KQyR4zw4cxSQ9c1eKfmGcgy9C8AShmn1ggEMR/TISMnIEC9+fSoNLSsAlvT8D/9bqdtOVk27+54vNTw+xmNAS/LRhdXYljcGFkWRBRAAAAAAAAAAAAAAAAAAAAAAAAAAAAAAAAAAAAAAAAAAAAAAAAAAAAAAAAAAAAAAAAAAAAAAAAAAAAAAAAAAAAAAAAAAAAAAAAAAAAAAAAAAAAAAAAAAAAAAAAAAAAAAAAAAAAAAAAAAAAAAAAAAAAAAAAAAAAAAAAAAAAAAAAAAAAAAAAAAAAAAAAAAAAAAAAAAAAAAAAAAAAAAAAAAAAAAAAAAAAAAAAAAAAAAAAAAAAAAAAAAAAAAAAAAAAAAAAAAAAAAAAAAAAAAAAAAAAAAAAAAAAAAAAAAAAAAAAAAAAAAAAAAAAAAAAAAAAAAAAAAAAAAAAAAAAAAAAAAAAAAAAAAAAAAAAAAAAAAAAAAAAAAAAAAAAAAAAAAAAAAAAAAAAAAAAAAAAAAAAAAAAAAAAAAAAAAAAAAAAAAAAAAAAAAAAAAAAAAAAAAAAAAAAAAAAAAAAAAAAAAAAAAAAAAAAAAAAAAAAAAAAAAAAAAAAAAAAAAAAAAAAAAAAAAAAAAAAAAAAAAAAAAAAAAAAAAAAAAAAAAAAAAAAAAAAAAAAAAAAAAAAAAAAAAAAAAAAAAAAAAAAAAAAAAAAAAAAAAAAAAAAAAAAAAAAAAAAAAAAAAAAAAAAAAAAAAAAAAAAAAAAAAAAAAAAAAAAAAAAAAAAAAAAAAAAAAAAAAAAAAAAAAAAAAAAAAAAAAAAAAAAAAAAAAAAAAAAAAAAAAAAAAAAAAAAAAAAAAAAAAAAAAAAAAAAAAAAAAAAAAAAAAAAAAAAAAAAAAAAAAAAAAAAAAAAAAAAAAAAAAAAAAAAAAAAAAAAAAAAAAAAAAAAAAAAAAAAAAAAAAAAAAAAAAAAAAAAAAAAAAAAAAAAAAAAAAAAAAAAAAAAAAAAAAAAAAAAAAAAAAAAAAAAAAAAAAAAAAAAAAAAAAAAAAAAAAAAAAAAAAAAAAAAAAAAAAAAAAAAAAAAAAAAAAAAAAAAAAAAAAAAAAAAAAAAAAAAAAAAAAAAAAAAAAAAAAAAAAAAAAAAAAAAAAAAAAAAAAAAAAAAAAAAAAAAAAAAAAAAAAAAAAAAAAAAAAAAAAAAAAAAAAAAAAAAAAAAAAAAAAAAAAAAAAAAAAAAAAAAAAAAAAAAAAAAAAAAAAAAAAAAAAAAAAAAAAAAAAAAAAAAAAAAAAAAAAAAAAAAAAAAAAAAAAAAAAAAAAAAAAAAAAAAAAAAAAAAAAAAAAAAAAAAAAAAAAAAAAAAAAAAAAAAAAAAAAAAAAAAAAAAAAAAAAAAAAAAAAAAAAAAAAAAAAAAAAAAAAAAAAAAAAAAAAAAAAAAAAAAAAAAAAAAAAAAAAAAAAAAAAAAAAAAAAAAAAAAAAAAAAAAAAAAAAAAAAAAAAAAAAAAAAAAAAAAAAAAAAAAAAAAAAAAAAAAAAAAAAAAAAAAAAAAAAAAAAAAAAAAAAAAAAAAAAAAAAAAAAAAAAAAAAAAAAAAAAAAAAAAAAAAAAAAAAAAAAAAAAAAAAAAAAAAAAAAAAAAAAAAAAAAAAAAAAAAAAAAAAAAAAAAAAAAAAAAAAAAAAAAAAAAAAAAAAAAAAAAAAAAAAAAAAAAAAAAAAAAAAAAAAAAAAAAAAAAAAAAAAAAAAAAAAAAAAAAAAAAAAAAAAAAAAAAAAAAAAAAAAAAAAAAAAAAAAAAAAAAAAAAAAAAAAAAAAAAAAAAAAAAAAAAAAAAAAAAAAAAAAAAAAAAAAAAAAAAAAAAAAAAAAAAAAAAAAAAAAAAAAAAAAAAAAAAAAAAAAAAAAAAAAAAAAAAAAAAAAAAAAAAAAAAAAAAAAAAAAAAAAAAAAAAAAAAAAAAAAAAAAAAAAAAAAAAAAAAAAAAAAAAAAAAAAAAAAAAAAAAAAAAAAAAAAAAAAAAAAAAAAAAAAAAAAAAAAAAAAAAAAAAAAAAAAAAAAAAAAAAAAAAAAAAAAAAAAAAAAAAAAAAAAAAAAAAAAAAAAAAAAAAAAAAAAAAAAAAAAAAAAAAAAAAAAAAAAAAAAAAAAAAAAAAAAAAAAAAAAAAAAAAAAAAAAAAAAAAAAAAAAAAAAAAAAAAAAAAAAAAAAAAAAAAAAAAAAAAAAAAAAAAAAAAAAAAAAAAAAAAAAAAAAAAAAAAAAAAAAAAAAAAAAAAAAAAAAAAAAAAAAAAAAAAAAAAAAAAAAAAAAAAAAAAAAAAAAAAAAAAAAAAAAAAAAAAAAAAAAAAAAAAAAAAAAAAAAAAAAAAAAAAAAAAAAAAAAAAAAAAAAAAAAAAAAAAAAAAAAAAAAAAAAAAAAAAAAAAAAAAAAAAAAAAAAAAAAAAAAAAAAAAAAAAAAAAAAAAAAAAAAAAAAAAAAAAAAAAAAAAAAAAAAAAAAAAAAAAAAAAAAAAAAAAAAAAAAAAAAAAAAAAAAAAAAAAAAAAAAAAAAAAAAAAAAAAAAAAAAAAAAAAAAAAAAAAAAAAAAAAAAAAAAAAAAAAAAAAAAAAAAAAAAAAAAAAAAAAAAAAAAAAAAAAAAAAAAAAAAAAAAAAAAAAAAAAAAAAAAAAAAAAAAAAAAAAAAAAAAAAAAAAAAAAAAAAAAAAAAAAAAAAAAAAAAAAAAAAAAAAAAAAAAAAAAAAAAAAAAAAAAAAAAAAAAAAAAAAAAAAAAAAAAAAAAAAAAAAAAAAAAAAAAAAAAAAAAAAAAAAAAAAAAAAAAAAAAAAAAAAAAAAAAAAAAAAAAAAAAAAAAAAAAAAAAAAAAAAAAAAAAAAAAAAAAAAAAAAAAAAAAAAAAAAAAAAAAAAAAAAAAAAAAAAAAAAAAAAAAAAAAAAAAAAAAAAAAAAAAAAAAAAAAAAAAAAAAAAAAAAAAAAAAAAAAAAAAAAAAAAAAAAAAAAAAAAAAAAAAAAAAAAAAAAAAAAAAAAAAAAAAAAAAAAAAAAAAAAAAAAAAAAAAAAAAAAAAAAAAAAAAAAAAAAAAAAAAAAAAAAAAAAAAAAAAAAAAAAAAAAAAAAAAAAAAAAAAAAAAAAAAAAAAAAAAAAAAAAAAAAAAAAAAAAAAAAAAAAAAAAAAAAAAAAAAAAAAAAAAAAAAAAAAAAAAAAAAAAAAAAAAAAAAAAAAAAAAAAAAAAAAAAAAAAAAAAAAAAAAAAAAAAAAAAAAAAAAAAAAAAAAAAAAAAAAAAAAAAAAAAAAAAAAAAAAAAAAAAAAAAAAAAAAAAAAAAAAAAAAAAAAAAAAAAAAAAAAAAAAAAAAAAAAAAAAAAAAAAAAAAAAAAAAAAAAAAAAAAAAAAAAAAAAAAAAAAAAAAAAAAAAAAAAAAAAAAAAAAAAAAAAAAAAAAAAAAAAAAAAAAAAAAAAAAAAAAAAAAAAAAAAAAAAAAAAAAAAAAAAAAAAAAAAAAAAAAAAAAAAAAAAAAAAAAAAAAAAAAAAAAAAAAAAAAAAAAAAAAAAAAAAAAAAAAAAAAAAAAAAAAAAAAAAAAAAAAAAAAAAAAAAAAAAAAAAAAAAAAAAAAAAAAAAAAAAAAAAAAAAAAAAAAAAAAAAAAAAAAAAAAAAAAAAAAAAAAAAAAAAAAAAAAAAAAAAAAAAAAAAAAAAAAAAAAAAAAAAAAAAAAAAAAAAAAAAAAAAAAAAAAAAAAAAAAAAAAAAAAAAAAAAAAAAAAAAAAAAAAAAAAAAAAAAAAAAAAAAAAAAAAAAAAAAAAAAAAAAAAAAAAAAAAAAAAAAAAAAAAAAAAAAAAAAAAAAAAAAAAAAAAAAAAAAAAAAAAAAAAAAAAAAAAAAAAAAAAAAAAAAAAAAAAAAAAAAAAAAAAAAAAAAAAAAAAAAAAAAAAAAAAAAAAAAAAAAAAAAAAAAAAAAAAAAAAAAAAAAAAAAAAAAAAAAAAAAAAAAAAAAAAAAAAAAAAAAAAAAAAAAAAAAAAAAAAAAAAAAAAAAAAAAAAAAAAAAAAAAAAAAAAAAAAAAAAAAAAAAAAAAAAAAAAAAAAAAAAAAAAAAAAAAAAAAAAAAAAAAAAAAAAAAAAAAAAAAAAAAAAAAAAAAAAAAAAAAAAAAAAAAAAAAAAAAAAAAAAAAAAAAAAAAAAAAAAAAAAAAAAAAAAAAAAAAAAAAAAAAAAAAAAAAAAAAAAAAAAAAAAAAAAAAAAAAAAAAAAAAAAAAAAAAAAAAAAAAAAAAAAAAAAAAAAAAAAAAAAAAAAAAAAAAAAAAAAAAAAAAAAAAAAAAAAAAAAAAAAAAAAAAAAAAAAAAAAAAAAAAAAAAAAAAAAAAAAAAAAAAAAAAAAAAAAAAAAAAAAAAAAAAAAAAAAAAAAAAAAAAAAAAAAAAAAAAAAAAAAAAAAAAAAAAAAAAAAAAAAAAAAAAAAAAAAAAAAAAAAAAAAAAAAAAAAAAAAAAAAAAAAAAAAAAAAAAAAAAAAAAAAAAAAAAAAAAAAAAAAAAAAAAAAAAAAAAAAAAAAAAAAAAAAAAAAAAAAAAAAAAAAAAAAAAAAAAAAAAAAAAAAAAAAAAAAAAAAAAAAAAAAAAAAAAAAAAAAAAAAAAAAAAAAAAAAAAAAAAAAAAAAAAAAAAAAAAAAAAAAAAAAAAAAAAAAAAAAAAAAAAAAAAAAAAAAAAAAAAAAAAAAAAAAAAAAAAAAAAAAAAAAAAAAAAAAAAAAAAAAAAAAAAAAAAAAAAAAAAAAAAAAAAAAAAAAAAAAAAAAAAAAAAAAAAAAAAAAAAAAAAAAAAAAAAAAAAAAAAAAAAAAAAAAAAAAAAAAAAAAAAAAAAAAAAAAAAAAAAAAAAAAAAAAAAAAAAAAAAAAAAAAAAAAAAAAAAAAAAAAAAAAAAAAAAAAAAAAAAAAAAAAAAAAAAAAAAAAAAAAAAAAAAAAAAAAAAAAAAAAAAAAAAAAAAAAAAAAAAAAAAAAAAAAAAAAAAAAAAAAAAAAAAAAAAAAAAAAAAAAAAAAAAAAAAAAAAAAAAAAAAAAAAAAAAAAAAAAAAAAAAAAAAAAAAAAAAAAAAAAAAAAAAAAAAAAAAAAAAAAAAAAAAAAAAAAAAAAAAAAAAAAAAAAAAAAAAAAAAAAAAAAAAAAAAAAAAAAAAAAAAAAAAAAAAAAAAAAAAAAAAAAAAAAAAAAAAAAAAAAAAAAAAAAAAAAAAAAAAAAAAAAAAAAAAAAAAAAAAAAAAAAAAAAAAAAAAAAAAAAAAAAAAAAAAAAAAAAAAAAAAAAAAAAAAAAAAAAAAAAAAAAAAAAAAAAAAAAAAAAAAAAAAAAAAAAAAAAAAAAAAAAAAAAAAAAAAAAAAAAAAAAAAAAAAAAAAAAAAAAAAAAAAAAAAAAAAAAAAAAAAAAAAAAAAAAAAAAAAAAAAAAAAAAAAAAAAAAAAAAAAAAAAAAAAAAAAAAAAAAAAAAAAAAAAAAAAAAAAAAAAAAAAAAAAAAAAAAAAAAAAAAAAAAAAAAAAAAAAAAAAAAAAAAAAAAAAAAAAAAAAAAAAAAAAAAAAAAAAAAAAAAAAAAAAAAAAAAAAAAAAAAAAAAAAAAAAAAAAAAAAAAAAAAAAAAAAAAAAAAAAAAAAAAAAAAAAAAAAAAAAAAAAAAAAAAAAAAAAAAAAAAAAAAAAAAAAAAAAAAAAAAAAAAAAAAAAAAAAAAAPZZAQBbwuRdnNEZ89g950o+0Hoja0c0ZnbE/1FpO9RSANNVRlDl5cZrSnNSVrurP5vaL/RlaRlQjAiaWEN4onESuRhQSSWNscbvufxfWe1aF4KvB5HpLaEcN07+oHQUiI1Xz1sJR6ltjXqoPwJGiwW8tYG4gG/LoeCbifZWU5gcWYuUOnppNJSLgM21QTBWJvUP3Qhx/LDFZJzDQCmocaSmmH2mfrdH3NiEOcpTmZuRQO4G2UhYdr3OOvyoUBZBRQvm18hEmfH3GYP111wduZlzXma6TgWuqwHIrQIVFPYowPNclbwu/R1uog87B3XHDLNn6lR36b5sDzY1Y8qLlMdZwCJcAAA322p1bWIAAABHanVtZGMybWEAEQAQgAAAqgA4m3EDdXJuOmMycGE6MGVkZjRlZWYtYWU4Mi00ZWE4LWExNjMtZmQxYWY3OWJjYTFkAAAABe9qdW1iAAAAKWp1bWRjMmFzABEAEIAAAKoAOJtxA2MycGEuYXNzZXJ0aW9ucwAAAAI8anVtYgAAAERqdW1kY2JvcgARABCAAACqADibcRNjMnBhLmluZ3JlZGllbnQudjMAAAAAGGMyc2h+NzUmwPXVIcwI3AAJ2NtDAAAB8GNib3KnbHJlbGF0aW9uc2hpcGtjb21wb25lbnRPZmhkYzp0aXRsZXdBSSBHZW5lcmF0ZWQgSW5ncmVkaWVudGlkYzpmb3JtYXRpaW1hZ2UvcG5ncXZhbGlkYXRpb25SZXN1bHRzoW5hY3RpdmVNYW5pZmVzdKNnc3VjY2Vzc4BtaW5mb3JtYXRpb25hbIBnZmFpbHVyZYBqaW5zdGFuY2VJRHgtdXJuOnV1aWQ6ZDAzZTQyMjctMTE3Yi00ZjIyLTgwOGItNzY1ZWVjZDFiZTcwbmFjdGl2ZU1hbmlmZXN0o2N1cmx4PnNlbGYjanVtYmY9L2MycGEvdXJuOmMycGE6MTJmY2Q4MTgtNDE2Yi00Nzk2LTlhNTktNzYzODcyZDhmYTQ4Y2FsZ2ZzaGEyNTZkaGFzaFggtxj2jawBdgADTR1X4zVNnnsaeJi87wz/Uh+Sh3TQCXtuY2xhaW1TaWduYXR1cmWjY3VybHhNc2VsZiNqdW1iZj0vYzJwYS91cm46YzJwYToxMmZjZDgxOC00MTZiLTQ3OTYtOWE1OS03NjM4NzJkOGZhNDgvYzJwYS5zaWduYXR1cmVjYWxnZnNoYTI1NmRoYXNoWCA7APdENhNHNXKNRcPS4kKQ7y6HurPOOCP9htZ+KdeobQAAAr5qdW1iAAAAQWp1bWRjYm9yABEAEIAAAKoAOJtxE2MycGEuYWN0aW9ucy52MgAAAAAYYzJzaMCIPKrPhTeE8ICssG2esq0AAAJ1Y2JvcqJnYWN0aW9uc4KiZmFjdGlvbmxjMnBhLmNyZWF0ZWRxZGlnaXRhbFNvdXJjZVR5cGV4J2h0dHA6Ly9jMnBhLm9yZy9kaWdpdGFsc291cmNldHlwZS9lbXB0eaVmYWN0aW9ua2MycGEucGxhY2VkZHdoZW7AdDIwMjYtMDktMjBUMjM6NTI6NDVabXNvZnR3YXJlQWdlbnRwRmlyZWZseSBWZWN0b3IgNGpwYXJhbWV0ZXJzo2tpbmdyZWRpZW50c4GiY3VybHgtc2VsZiNqdW1iZj1jMnBhLmFzc2VydGlvbnMvYzJwYS5pbmdyZWRpZW50LnYzZGhhc2hYICoXxketlHR2kA7/rmnb/ltHjdkLEASJ4tbD9fl2FMO4cWNvbS5hZG9iZS5nZW5BaUlkeCQzMTI3YTJkMi0wYTYzLTQyZmYtODUxZC00YTE0MjFjOGIxYjV4G2NvbS5hZG9iZS5kaWdpdGFsU291cmNlVHlwZXhTaHR0cDovL2N2LmlwdGMub3JnL25ld3Njb2Rlcy9kaWdpdGFsc291cmNldHlwZS9jb21wb3NpdGVXaXRoVHJhaW5lZEFsZ29yaXRobWljTWVkaWFxZGlnaXRhbFNvdXJjZVR5cGV4U2h0dHA6Ly9jdi5pcHRjLm9yZy9uZXdzY29kZXMvZGlnaXRhbHNvdXJjZXR5cGUvY29tcG9zaXRlV2l0aFRyYWluZWRBbGdvcml0aG1pY01lZGlhaXRlbXBsYXRlc4GiZmFjdGlvbmEqcnRlbXBsYXRlUGFyYW1ldGVyc6F1Y29tLmFkb2JlLmFwcEVuZm9yY2Vk9QAAAMRqdW1iAAAAQGp1bWRjYm9yABEAEIAAAKoAOJtxE2MycGEuaGFzaC5kYXRhAAAAABhjMnNo7bkkum0LNUn7UKXmV8n1igAAAHxjYm9ypWpleGNsdXNpb25zgaJlc3RhcnQYyWZsZW5ndGgZkaxkbmFtZW5qdW1iZiBtYW5pZmVzdGNhbGdmc2hhMjU2ZGhhc2hYIE0Li6rTfFpskEN7cohYx6H3Dv8LQkDcrMSyG6AXenUlY3BhZEkAAAAAAAAAAAAAAAJhanVtYgAAACdqdW1kYzJjbAARABCAAACqADibcQNjMnBhLmNsYWltLnYyAAAAAjJjYm9ypmppbnN0YW5jZUlEeCx4bXA6aWlkOmVhZmIzYmEwLTUzZmMtNDQxNC1iNjg4LWJhMmE5NzJlZDQ5ZHRjbGFpbV9nZW5lcmF0b3JfaW5mb6NkbmFtZXFBZG9iZSBJbGx1c3RyYXRvcmd2ZXJzaW9uZDMwLjl3b3JnLmNvbnRlbnRhdXRoLmMycGFfcnNmMC44Ni4xaXNpZ25hdHVyZXhNc2VsZiNqdW1iZj0vYzJwYS91cm46YzJwYTowZWRmNGVlZi1hZTgyLTRlYTgtYTE2My1mZDFhZjc5YmNhMWQvYzJwYS5zaWduYXR1cmVyY3JlYXRlZF9hc3NlcnRpb25zgaJjdXJseClzZWxmI2p1bWJmPWMycGEuYXNzZXJ0aW9ucy9jMnBhLmhhc2guZGF0YWRoYXNoWCAzuM0HZT8nO8khc2jCfjli5Jd3BYK4EnmNqX/b+Pj6hHNnYXRoZXJlZF9hc3NlcnRpb25zgqJjdXJseC1zZWxmI2p1bWJmPWMycGEuYXNzZXJ0aW9ucy9jMnBhLmluZ3JlZGllbnQudjNkaGFzaFggjMfdzpL1h32C7LyXBOhQnn5oPMywrsW5m8YAUZgiOmyiY3VybHgqc2VsZiNqdW1iZj1jMnBhLmFzc2VydGlvbnMvYzJwYS5hY3Rpb25zLnYyZGhhc2hYIP5m4LHlJH4ErWPxMRs0yzCVa05LEELK9nw52Bj8EtfqY2FsZ2ZzaGEyNTYAAC88anVtYgAAAChqdW1kYzJjcwARABCAAACqADibcQNjMnBhLnNpZ25hdHVyZQAAAC8MY2JvctKEWQQAogEnGCGCWQI6MIICNjCCAeigAwIBAgIHWL/0okpBlzAFBgMrZXAwYDEgMB4GA1UEAxMXYzJwYS1lcGhlbWVyYWwtY2EubG9jYWwxPDA6BgNVBAoTM1NlbGYtc2lnbmVkIGVwaGVtZXJhbCBDQSAoQ29udGVudCBBdXRoZW50aWNpdHkgU0RLKTAeFw0yNjA5MTkyMzU4MzVaFw0yNzA5MjAyMzU4MzVaMHsxIDAeBgNVBAMTF0Fkb2JlIENvbXBsaWFuY2UgU2lnbmVyMVcwVQYDVQQKE05TZWxmLXNpZ25lZCBlcGhlbWVyYWwgY2VydGlmaWNhdGUgKENvbnRlbnQgQXV0aGVudGljaXR5IFNESykgLS0gTE9DQUwgVVNFIE9OTFkwKjAFBgMrZXADIQA3kLvawLgYpel+BR7komZ8Vrd78howFmiQIzcH1/cSSKOBpTCBojAPBgNVHRMBAf8EBTADAQEAMA4GA1UdDwEB/wQEAwIAgDAdBgNVHSUEFjAUBggrBgEFBQcDBAYIKwYBBQUHAwAwGwYDVR0OBBTzFyiuxO0LF4yenyiLWWZbycQ+4DAfBgNVHSMEGDAWgBQzprxHOD+RQK2V787hwfaz36uPIzAiBgNVHREEGzAZghdBZG9iZSBDb21wbGlhbmNlIFNpZ25lcjAFBgMrZXADQQB440x+9dpoXI6MuG/WwMt84uKSBSAiu21bevFPWDOAiucq6wjgKr5Ns+meTj7qHZWA9gOOVhlqG3Pt4XeGZZEJWQG6MIIBtjCCAWigAwIBAgIIAIbFUDc6XHswBQYDK2VwMGAxIDAeBgNVBAMTF2MycGEtZXBoZW1lcmFsLWNhLmxvY2FsMTwwOgYDVQQKEzNTZWxmLXNpZ25lZCBlcGhlbWVyYWwgQ0EgKENvbnRlbnQgQXV0aGVudGljaXR5IFNESykwHhcNMjYwOTE5MjM1ODM1WhcNMjcwOTIwMjM1ODM1WjBgMSAwHgYDVQQDExdjMnBhLWVwaGVtZXJhbC1jYS5sb2NhbDE8MDoGA1UEChMzU2VsZi1zaWduZWQgZXBoZW1lcmFsIENBIChDb250ZW50IEF1dGhlbnRpY2l0eSBTREspMCowBQYDK2VwAyEA+xcWXMD7/zqkMZDBEvCLX/kOAOMK3H/Xv1jlujlZq4yjQDA+MA8GA1UdEwEB/wQFMAMBAf8wDgYDVR0PAQH/BAQDAgCGMBsGA1UdDgQUM6a8Rzg/kUCtle/O4cH2s9+rjyMwBQYDK2VwA0EAkjAsMy2eVAHsSGJr/k12zKRkp0FIhfhcC6Bfs7bFI66nl5bhOvJiuVtgrWybU/h11zqoFbv8s2wnGKcQpx0aAKFjcGFkWSq0AAAAAAAAAAAAAAAAAAAAAAAAAAAAAAAAAAAAAAAAAAAAAAAAAAAAAAAAAAAAAAAAAAAAAAAAAAAAAAAAAAAAAAAAAAAAAAAAAAAAAAAAAAAAAAAAAAAAAAAAAAAAAAAAAAAAAAAAAAAAAAAAAAAAAAAAAAAAAAAAAAAAAAAAAAAAAAAAAAAAAAAAAAAAAAAAAAAAAAAAAAAAAAAAAAAAAAAAAAAAAAAAAAAAAAAAAAAAAAAAAAAAAAAAAAAAAAAAAAAAAAAAAAAAAAAAAAAAAAAAAAAAAAAAAAAAAAAAAAAAAAAAAAAAAAAAAAAAAAAAAAAAAAAAAAAAAAAAAAAAAAAAAAAAAAAAAAAAAAAAAAAAAAAAAAAAAAAAAAAAAAAAAAAAAAAAAAAAAAAAAAAAAAAAAAAAAAAAAAAAAAAAAAAAAAAAAAAAAAAAAAAAAAAAAAAAAAAAAAAAAAAAAAAAAAAAAAAAAAAAAAAAAAAAAAAAAAAAAAAAAAAAAAAAAAAAAAAAAAAAAAAAAAAAAAAAAAAAAAAAAAAAAAAAAAAAAAAAAAAAAAAAAAAAAAAAAAAAAAAAAAAAAAAAAAAAAAAAAAAAAAAAAAAAAAAAAAAAAAAAAAAAAAAAAAAAAAAAAAAAAAAAAAAAAAAAAAAAAAAAAAAAAAAAAAAAAAAAAAAAAAAAAAAAAAAAAAAAAAAAAAAAAAAAAAAAAAAAAAAAAAAAAAAAAAAAAAAAAAAAAAAAAAAAAAAAAAAAAAAAAAAAAAAAAAAAAAAAAAAAAAAAAAAAAAAAAAAAAAAAAAAAAAAAAAAAAAAAAAAAAAAAAAAAAAAAAAAAAAAAAAAAAAAAAAAAAAAAAAAAAAAAAAAAAAAAAAAAAAAAAAAAAAAAAAAAAAAAAAAAAAAAAAAAAAAAAAAAAAAAAAAAAAAAAAAAAAAAAAAAAAAAAAAAAAAAAAAAAAAAAAAAAAAAAAAAAAAAAAAAAAAAAAAAAAAAAAAAAAAAAAAAAAAAAAAAAAAAAAAAAAAAAAAAAAAAAAAAAAAAAAAAAAAAAAAAAAAAAAAAAAAAAAAAAAAAAAAAAAAAAAAAAAAAAAAAAAAAAAAAAAAAAAAAAAAAAAAAAAAAAAAAAAAAAAAAAAAAAAAAAAAAAAAAAAAAAAAAAAAAAAAAAAAAAAAAAAAAAAAAAAAAAAAAAAAAAAAAAAAAAAAAAAAAAAAAAAAAAAAAAAAAAAAAAAAAAAAAAAAAAAAAAAAAAAAAAAAAAAAAAAAAAAAAAAAAAAAAAAAAAAAAAAAAAAAAAAAAAAAAAAAAAAAAAAAAAAAAAAAAAAAAAAAAAAAAAAAAAAAAAAAAAAAAAAAAAAAAAAAAAAAAAAAAAAAAAAAAAAAAAAAAAAAAAAAAAAAAAAAAAAAAAAAAAAAAAAAAAAAAAAAAAAAAAAAAAAAAAAAAAAAAAAAAAAAAAAAAAAAAAAAAAAAAAAAAAAAAAAAAAAAAAAAAAAAAAAAAAAAAAAAAAAAAAAAAAAAAAAAAAAAAAAAAAAAAAAAAAAAAAAAAAAAAAAAAAAAAAAAAAAAAAAAAAAAAAAAAAAAAAAAAAAAAAAAAAAAAAAAAAAAAAAAAAAAAAAAAAAAAAAAAAAAAAAAAAAAAAAAAAAAAAAAAAAAAAAAAAAAAAAAAAAAAAAAAAAAAAAAAAAAAAAAAAAAAAAAAAAAAAAAAAAAAAAAAAAAAAAAAAAAAAAAAAAAAAAAAAAAAAAAAAAAAAAAAAAAAAAAAAAAAAAAAAAAAAAAAAAAAAAAAAAAAAAAAAAAAAAAAAAAAAAAAAAAAAAAAAAAAAAAAAAAAAAAAAAAAAAAAAAAAAAAAAAAAAAAAAAAAAAAAAAAAAAAAAAAAAAAAAAAAAAAAAAAAAAAAAAAAAAAAAAAAAAAAAAAAAAAAAAAAAAAAAAAAAAAAAAAAAAAAAAAAAAAAAAAAAAAAAAAAAAAAAAAAAAAAAAAAAAAAAAAAAAAAAAAAAAAAAAAAAAAAAAAAAAAAAAAAAAAAAAAAAAAAAAAAAAAAAAAAAAAAAAAAAAAAAAAAAAAAAAAAAAAAAAAAAAAAAAAAAAAAAAAAAAAAAAAAAAAAAAAAAAAAAAAAAAAAAAAAAAAAAAAAAAAAAAAAAAAAAAAAAAAAAAAAAAAAAAAAAAAAAAAAAAAAAAAAAAAAAAAAAAAAAAAAAAAAAAAAAAAAAAAAAAAAAAAAAAAAAAAAAAAAAAAAAAAAAAAAAAAAAAAAAAAAAAAAAAAAAAAAAAAAAAAAAAAAAAAAAAAAAAAAAAAAAAAAAAAAAAAAAAAAAAAAAAAAAAAAAAAAAAAAAAAAAAAAAAAAAAAAAAAAAAAAAAAAAAAAAAAAAAAAAAAAAAAAAAAAAAAAAAAAAAAAAAAAAAAAAAAAAAAAAAAAAAAAAAAAAAAAAAAAAAAAAAAAAAAAAAAAAAAAAAAAAAAAAAAAAAAAAAAAAAAAAAAAAAAAAAAAAAAAAAAAAAAAAAAAAAAAAAAAAAAAAAAAAAAAAAAAAAAAAAAAAAAAAAAAAAAAAAAAAAAAAAAAAAAAAAAAAAAAAAAAAAAAAAAAAAAAAAAAAAAAAAAAAAAAAAAAAAAAAAAAAAAAAAAAAAAAAAAAAAAAAAAAAAAAAAAAAAAAAAAAAAAAAAAAAAAAAAAAAAAAAAAAAAAAAAAAAAAAAAAAAAAAAAAAAAAAAAAAAAAAAAAAAAAAAAAAAAAAAAAAAAAAAAAAAAAAAAAAAAAAAAAAAAAAAAAAAAAAAAAAAAAAAAAAAAAAAAAAAAAAAAAAAAAAAAAAAAAAAAAAAAAAAAAAAAAAAAAAAAAAAAAAAAAAAAAAAAAAAAAAAAAAAAAAAAAAAAAAAAAAAAAAAAAAAAAAAAAAAAAAAAAAAAAAAAAAAAAAAAAAAAAAAAAAAAAAAAAAAAAAAAAAAAAAAAAAAAAAAAAAAAAAAAAAAAAAAAAAAAAAAAAAAAAAAAAAAAAAAAAAAAAAAAAAAAAAAAAAAAAAAAAAAAAAAAAAAAAAAAAAAAAAAAAAAAAAAAAAAAAAAAAAAAAAAAAAAAAAAAAAAAAAAAAAAAAAAAAAAAAAAAAAAAAAAAAAAAAAAAAAAAAAAAAAAAAAAAAAAAAAAAAAAAAAAAAAAAAAAAAAAAAAAAAAAAAAAAAAAAAAAAAAAAAAAAAAAAAAAAAAAAAAAAAAAAAAAAAAAAAAAAAAAAAAAAAAAAAAAAAAAAAAAAAAAAAAAAAAAAAAAAAAAAAAAAAAAAAAAAAAAAAAAAAAAAAAAAAAAAAAAAAAAAAAAAAAAAAAAAAAAAAAAAAAAAAAAAAAAAAAAAAAAAAAAAAAAAAAAAAAAAAAAAAAAAAAAAAAAAAAAAAAAAAAAAAAAAAAAAAAAAAAAAAAAAAAAAAAAAAAAAAAAAAAAAAAAAAAAAAAAAAAAAAAAAAAAAAAAAAAAAAAAAAAAAAAAAAAAAAAAAAAAAAAAAAAAAAAAAAAAAAAAAAAAAAAAAAAAAAAAAAAAAAAAAAAAAAAAAAAAAAAAAAAAAAAAAAAAAAAAAAAAAAAAAAAAAAAAAAAAAAAAAAAAAAAAAAAAAAAAAAAAAAAAAAAAAAAAAAAAAAAAAAAAAAAAAAAAAAAAAAAAAAAAAAAAAAAAAAAAAAAAAAAAAAAAAAAAAAAAAAAAAAAAAAAAAAAAAAAAAAAAAAAAAAAAAAAAAAAAAAAAAAAAAAAAAAAAAAAAAAAAAAAAAAAAAAAAAAAAAAAAAAAAAAAAAAAAAAAAAAAAAAAAAAAAAAAAAAAAAAAAAAAAAAAAAAAAAAAAAAAAAAAAAAAAAAAAAAAAAAAAAAAAAAAAAAAAAAAAAAAAAAAAAAAAAAAAAAAAAAAAAAAAAAAAAAAAAAAAAAAAAAAAAAAAAAAAAAAAAAAAAAAAAAAAAAAAAAAAAAAAAAAAAAAAAAAAAAAAAAAAAAAAAAAAAAAAAAAAAAAAAAAAAAAAAAAAAAAAAAAAAAAAAAAAAAAAAAAAAAAAAAAAAAAAAAAAAAAAAAAAAAAAAAAAAAAAAAAAAAAAAAAAAAAAAAAAAAAAAAAAAAAAAAAAAAAAAAAAAAAAAAAAAAAAAAAAAAAAAAAAAAAAAAAAAAAAAAAAAAAAAAAAAAAAAAAAAAAAAAAAAAAAAAAAAAAAAAAAAAAAAAAAAAAAAAAAAAAAAAAAAAAAAAAAAAAAAAAAAAAAAAAAAAAAAAAAAAAAAAAAAAAAAAAAAAAAAAAAAAAAAAAAAAAAAAAAAAAAAAAAAAAAAAAAAAAAAAAAAAAAAAAAAAAAAAAAAAAAAAAAAAAAAAAAAAAAAAAAAAAAAAAAAAAAAAAAAAAAAAAAAAAAAAAAAAAAAAAAAAAAAAAAAAAAAAAAAAAAAAAAAAAAAAAAAAAAAAAAAAAAAAAAAAAAAAAAAAAAAAAAAAAAAAAAAAAAAAAAAAAAAAAAAAAAAAAAAAAAAAAAAAAAAAAAAAAAAAAAAAAAAAAAAAAAAAAAAAAAAAAAAAAAAAAAAAAAAAAAAAAAAAAAAAAAAAAAAAAAAAAAAAAAAAAAAAAAAAAAAAAAAAAAAAAAAAAAAAAAAAAAAAAAAAAAAAAAAAAAAAAAAAAAAAAAAAAAAAAAAAAAAAAAAAAAAAAAAAAAAAAAAAAAAAAAAAAAAAAAAAAAAAAAAAAAAAAAAAAAAAAAAAAAAAAAAAAAAAAAAAAAAAAAAAAAAAAAAAAAAAAAAAAAAAAAAAAAAAAAAAAAAAAAAAAAAAAAAAAAAAAAAAAAAAAAAAAAAAAAAAAAAAAAAAAAAAAAAAAAAAAAAAAAAAAAAAAAAAAAAAAAAAAAAAAAAAAAAAAAAAAAAAAAAAAAAAAAAAAAAAAAAAAAAAAAAAAAAAAAAAAAAAAAAAAAAAAAAAAAAAAAAAAAAAAAAAAAAAAAAAAAAAAAAAAAAAAAAAAAAAAAAAAAAAAAAAAAAAAAAAAAAAAAAAAAAAAAAAAAAAAAAAAAAAAAAAAAAAAAAAAAAAAAAAAAAAAAAAAAAAAAAAAAAAAAAAAAAAAAAAAAAAAAAAAAAAAAAAAAAAAAAAAAAAAAAAAAAAAAAAAAAAAAAAAAAAAAAAAAAAAAAAAAAAAAAAAAAAAAAAAAAAAAAAAAAAAAAAAAAAAAAAAAAAAAAAAAAAAAAAAAAAAAAAAAAAAAAAAAAAAAAAAAAAAAAAAAAAAAAAAAAAAAAAAAAAAAAAAAAAAAAAAAAAAAAAAAAAAAAAAAAAAAAAAAAAAAAAAAAAAAAAAAAAAAAAAAAAAAAAAAAAAAAAAAAAAAAAAAAAAAAAAAAAAAAAAAAAAAAAAAAAAAAAAAAAAAAAAAAAAAAAAAAAAAAAAAAAAAAAAAAAAAAAAAAAAAAAAAAAAAAAAAAAAAAAAAAAAAAAAAAAAAAAAAAAAAAAAAAAAAAAAAAAAAAAAAAAAAAAAAAAAAAAAAAAAAAAAAAAAAAAAAAAAAAAAAAAAAAAAAAAAAAAAAAAAAAAAAAAAAAAAAAAAAAAAAAAAAAAAAAAAAAAAAAAAAAAAAAAAAAAAAAAAAAAAAAAAAAAAAAAAAAAAAAAAAAAAAAAAAAAAAAAAAAAAAAAAAAAAAAAAAAAAAAAAAAAAAAAAAAAAAAAAAAAAAAAAAAAAAAAAAAAAAAAAAAAAAAAAAAAAAAAAAAAAAAAAAAAAAAAAAAAAAAAAAAAAAAAAAAAAAAAAAAAAAAAAAAAAAAAAAAAAAAAAAAAAAAAAAAAAAAAAAAAAAAAAAAAAAAAAAAAAAAAAAAAAAAAAAAAAAAAAAAAAAAAAAAAAAAAAAAAAAAAAAAAAAAAAAAAAAAAAAAAAAAAAAAAAAAAAAAAAAAAAAAAAAAAAAAAAAAAAAAAAAAAAAAAAAAAAAAAAAAAAAAAAAAAAAAAAAAAAAAAAAAAAAAAAAAAAAAAAAAAAAAAAAAAAAAAAAAAAAAAAAAAAAAAAAAAAAAAAAAAAAAAAAAAAAAAAAAAAAAAAAAAAAAAAAAAAAAAAAAAAAAAAAAAAAAAAAAAAAAAAAAAAAAAAAAAAAAAAAAAAAAAAAAAAAAAAAAAAAAAAAAAAAAAAAAAAAAAAAAAAAAAAAAAAAAAAAAAAAAAAAAAAAAAAAAAAAAAAAAAAAAAAAAAAAAAAAAAAAAAAAAAAAAAAAAAAAAAAAAAAAAAAAAAAAAAAAAAAAAAAAAAAAAAAAAAAAAAAAAAAAAAAAAAAAAAAAAAAAAAAAAAAAAAAAAAAAAAAAAAAAAAAAAAAAAAAAAAAAAAAAAAAAAAAAAAAAAAAAAAAAAAAAAAAAAAAAAAAAAAAAAAAAAAAAAAAAAAAAAAAAAAAAAAAAAAAAAAAAAAAAAAAAAAAAAAAAAAAAAAAAAAAAAAAAAAAAAAAAAAAAAAAAAAAAAAAAAAAAAAAAAAAAAAAAAAAAAAAAAAAAAAAAAAAAAAAAAAAAAAAAAAAAAAAAAAAAAAAAAAAAAAAAAAAAAAAAAAAAAAAAAAAAAAAAAAAAAAAAAAAAAAAAAAAAAAAAAAAAAAAAAAAAAAAAAAAAAAAAAAAAAAAAAAAAAAAAAAAAAAAAAAAAAAAAAAAAAAAAAAAAAAAAAAAAAAAAAAAAAAAAAAAAAAAAAAAAAAAAAAAAAAAAAAAAAAAAAAAAAAAAAAAAAAAAAAAAAAAAAAAAAAAAAAAAAAAAAAAAAAAAAAAAAAAAAAAAAAAAAAAAAAAAAAAAAAAAAAAAAAAAAAAAAAAAAAAAAAAAAAAAAAAAAAAAAAAAAAAAAAAAAAAAAAAAAAAAAAAAAAAAAAAAAAAAAAAAAAAAAAAAAAAAAAAAAAAAAAAAAAAAAAAAAAAAAAAAAAAAAAAAAAAAAAAAAAAAAAAAAAAAAAAAAAAAAAAAAAAAAAAAAAAAAAAAAAAAAAAAAAAAAAAAAAAAAAAAAAAAAAAAAAAAAAAAAAAAAAAAAAAAAAAAAAAAAAAAAAAAAAAAAAAAAAAAAAAAAAAAAAAAAAAAAAAAAAAAAAAAAAAAAAAAAAAAAAAAAAAAAAAAAAAAAAAAAAAAAAAAAAAAAAAAAAAAAAAAAAAAAAAAAAAAAAAAAAAAAAAAAAAAAAAAAAAAAAAAAAAAAAAAAAAAAAAAAAAAAAAAAAAAAAAAAAAAAAAAAAAAAAAAAAAAAAAAAAAAAAAAAAAAAAAAAAAAAAAAAAAAAAAAAAAAAAAAAAAAAAAAAAAAAAAAAAAAAAAAAAAAAAAAAAAAAAAAAAAAAAAAAAAAAAAAAAAAAAAAAAAAAAAAAAAAAAAAAAAAAAAAAAAAAAAAAAAAAAAAAAAAAAAAAAAAAAAAAAAAAAAAAAAAAAAAAAAAAAAAAAAAAAAAAAAAAAAAAAAAAAAAAAAAAAAAAAAAAAAAAAAAAAAAAAAAAAAAAAAAAAAAAAAAAAAAAAAAAAAAAAAAAAAAAAAAAAAAAAAAAAAAAAAAAAAAAAAAAAAAAAAAAAAAAAAAAAAAAAAAAAAAAAAAAAAAAAAAAAAAAAAAAAAAAAAAAAAAAAAAAAAAAAAAAAAAAAAAAAAAAAAAAAAAAAAAAAAAAAAAAAAAAAAAAAAAAAAAAAAAAAAAAAAAAAAAAAAAAAAAAAAAAAAAAAAAAAAAAAAAAAAAAAAAAAAAAAAAAAAAAAAAAAAAAAAAAAAAAAAAAAAAAAAAAAAAAAAAAAAAAAAAAAAAAAAAAAAAAAAAAAAAAAAAAAAAAAAAAAAAAAAAAAAAAAAAAAAAAAAAAAAAAAAAAAAAAAAAAAAAAAAAAAAAAAAAAAAAAAAAAAAAAAAAAAAAAAAAAAAAAAAAAAAAAAAAAAAAAAAAAAAAAAAAAAAAAAAAAAAAAAAAAAAAAAAAAAAAAAAAAAAAAAAAAAAAAAAAAAAAAAAAAAAAAAAAAAAAAAAAAAAAAAAAAAAAAAAAAAAAAAAAAAAAAAAAAAAAAAAAAAAAAAAAAAAAAAAAAAAAAAAAAAAAAAAAAAAAAAAAAAAAAAAAAAAAAAAAAAAAAAAAAAAAAAAAAAAAAAAAAAAAAAAAAAAAAAAAAAAAAAAAAAAAAAAAAAAAAAAAAAAAAAAAAAAAAAAAAAAAAAAAAAAAAAAAAAAAAAAAAAAAAAAAAAAAAAAAAAAAAAAAAAAAAAAAAAAAAAAAAAAAAAAAAAAAAAAAAAAAAAAAAAAAAAAAAAAAAAAAAAAAAAAAAAAAAAAAAAAAAAAAAAAAAAAAAAAAAAAAAAAAAAAAAAAAAAAAAAAAAAAAAAAAAAAAAAAAAAAAAAAAAAAAAAAAAAAAAAAAAAAAAAAAAAAAAAAAAAAAAAAAAAAAAAAAAAAAAAAAAAAAAAAAAAAAAAAAAAAAAAAAAAAAAAAAAAAAAAAAAAAAAAAAAAAAAAAAAAAAAAAAAAAAAAAAAAAAAAAAAAAAAAAAAAAAAAAAAAAAAAAAAAAAAAAAAAAAAAAAAAAAAAAAAAAAAAAAAAAAAAAAAAAAAAAAAAAAAAAAAAAAAAAAAAAAAAAAAAAAAAAAAAAAAAAAAAAAAAAAAAAAAAAAAAAAAAAAAAAAAAAAAAAAAAAAAAAAAAAAAAAAAAAAAAAAAAAAAAAAAAAAAAAAAAAAAAAAAAAAAAAAAAAAAAAAAAAAAAAAAAAAAAAAAAAAAAAAAAAAAAAAAAAAAAAAAAAAAAAAAAAAAAAAAAAAAAAAAAAAAAAAAAAAAAAAAAAAAAAAAAAAAAAAAAAAAAAAAAAAAAAAAAAAAAAAAAAAAAAAAAAAAAAAAAAAAAAAAAAAAAAAAAAAAAAAAAAAAAAAAAAAAAAAAAAAAAAAAAAAAAAAAAAAAAAAAAAAAAAAAAAAAAAAAAAAAAAAAAAAAAAAAAAAAAAAAAAAAAAAAAAAAAAAAAAAAAAAAAAAAAAAAAAAAAAAAAAAAAAAAAAAAAAAAAAAAAAAAAAAAAAAAAAAAAAAAAAAAAAAAAAAAAAAAAAAAAAAAAAAAAAAAAAAAAAAAAAAAAAAAAAAAAAAAAAAAAAAAAAAAAAAAAAAAAAAAAAAAAAAAAAAAAAAAAAAAAAAAAAAAAAAAAAAAAAAAAAAAAAAAAAAAAAAAAAAAAAAAAAAAAAAAAAAAAAAAAAAAAAAAAAAAAAAAAAAAAAAAAAAAAAAAAAAAAAAAAAAAAAAAAAAAAAAAAAAAAAAAAAAAAAAAAAAAAAAAAAAAAAAAAAAAAAAAAAAAAAAAAAAAAAAAAAAAAAAAAAAAAAAAAAAAAAAAAAAAAAAAAAAAAAAAAAAAAAAAAAAAAAAAAAAAAAAAAAAAAAAAAAAAAAAAAAAAAAAAAAAAAAAAAAAAAAAAAAAAAAAAAAAAAAAAAAAAAAAAAAAAAAAAAAAAAAAAAAAAAAAAAAAAAAAAAAAAAAAAAAAAAAAAAAAAAAAAAAAAAAAAAAAAAAAAAAAAAAAAAAAAAAAAAAAAAAAAAAAAAAAAAAAAAAAAAAAAAAAAAAAAAAAAAAAAAAAAAAAAAAAAAAAAAAAAAAAAAAAAAAAAAAAAAAAAAAAAAAAAAAAAAAAAAAAAAAAAAAAAAAAAAAAAAAAAAAAAAAAAAAAAAAAAAAAAAAAAAAAAAAAAAAAAAAAAAAAAAAAAAAAAAAAAAAAAAAAAAAAAAAAAAAAAAAAAAAAAAAAAAAAAAAAAAAAAAAAAAAAAAAAAAAAAAAAAAAAAAAAAAAAAAAAAAAAAAAAAAAAAAAAAAAAAAAAAAAAAAAAAAAAAAAAAAAAAAAAAAAAAAAAAAAAAAAAAAAAAAAAAAAAAAAAAAAAAAAAAAAAAAAAAAAAAAAAAAAAAAAAAAAAAAAAAAAAAAAAAAAAAAAAAAAAAAAAAAAAAAAAAAAAAAAAAAAAAAAAAAAAAAAAAAAAAAAAAAAAAAAAAAAAAAAAAAAAAAAAAAAAAAAAAAAAAAAAAAAAAAAAAAAAAAAAAAAAAAAAAAAAAAAAAAAAAAAAAAAAAAAAAAAAAAAAAAAAAAAAAAAAAAAAAAAAAAAAAAAAAAAAAAAAAAAAAAAAAAAAAAAAAAAAAAAAAAAAAAAAAAAAAAAAAAAAAAAAAAAAAAAAAAAAAAAAAAAAAAAAAAAAAAAAAAAAAAAAAAAAAAAAAAAAAAAAAAAAAAAAAAAAAAAAAAAAAAAAAAAAAAAAAAAAAAAAAAAAAAAAAAAAAAAAAAAAAAAAAAAAAAAAAAAAAAAAAAAAAAAAAAAAAAAAAAAAAAAAAAAAAAAAAAAAAAAAAAAAAAAAAAAAAAAAAAAAAAAAAAAAAAAAAAAAAAAAAAAAAAAAAAAAAAAAAAAAAAAAAAAAAAAAAAAAAAAAAAAAAAAAAAAAAAAAAAAAAAAAAAAAAAAAAAAAAAAAAAAAAAAAAAAAAAAAAAAAAAAAAAAAAAAAAAAAAAAAAAAAAAAAAAAAAAAAAAAAAAAAAAAAAAAAAAAAAAAAAAAAAAAAAAAAAAAAAAAAAAAAAAAAAAAAAAAAAAAAAAAAAAAAAAAAAAAAAAAAAAAAAAAAAAAAAAAAAAAAAAAAAAAAAAAAAAAAAAAAAAAAAAAAAAAAAAAAAAAAAAAAAAAAAAAAAAAAAAAAAAAAAAAAAAAAAAAAAAAAAAAAAAAAAAAAAAAAAAAAAAAAAAAAAAAAAAAAAAAAAAAAAAAAAAAAAAAAAAAAAAAAAAAAAAAAAAAAAAAAAAAAAAAAAAAAAAAAAAAAAAAAAAAAAAAAAAAAAAAAAAAAAAAAAAAAAAAAAAAAAAAAAAAAAAAAAAAAAAAAAAAAAAAAAAAAAAAAAAAAAAAAAAAAAAAAAAAAAAAAAAAAAAAAAAAAAAAAAAAAAAAAAAAAAAAAAAAAAAAAAAAAAAAAAAAAAAAAAAAAAAAAAAAAAAAAAAAAAAAAAAAAAAAAAAAAAAAAAAAAAAAAAAAAAAAAAAAAAAAAAAAAAAAAAAAAAAAAAAAAAAAAAAAAAAAAAAAAAAAAAAAAAAAAAAAAAAAAAAAAAAAAAAAAAAAAAAAAAAAAAAAAAAAAAAAAAAAAAAAAAAAAAAAAAAAAAAAAAAAAAAAAAAAAAAAAAAAAAAAAAAAAAAAAAAAAAAAAAAAAAAAAAAAAAAAAAAAAAAAAAAAAAAAAAAAAAAAAAAAAAAAAAAAAAAAAAAAAAAAAAAAAAAAAAAAAAAAAAAAAAAAAAAAAAAAAAAAAAAAAAAAAAAAAAAAAAAAAAAAAAAAAAAAAAAAAAAAAAAAAAAAAAAAAAAAAAAAAAAAAAAAAAAAAAAAAAAAAAAAAAAAAAAAAAAAAAAAAAAAAAAAAAAAAAAAAAAAAAAAAAAAAAAAAAAAAAAAAAAAAAAAAAAAAAAAAAAAAAAAAAAAAAAAAAAAAAAAAAAAAAAAAAAAAAAAAAAAAAAAAAAAAAAAAAAAAAAAAAAAAAAAAAAAAAAAAAAAAAAAAAAAAAAAAAAAAAAAAAAAAAAAAAAAAAAAAAAAAAAAAAAAAAAAAAAAAAAAAAAAAAAAAAAAAAAAAAAAAAAAAAAAAAAAAAAAAAAAAAAAAAAAAAAAAAAAAAAAAAAAAAAAAAAAAAAAAAAAAAAAAAAAAAAAAAAAAAAAAAAAAAAAAAAAAAAAAAAAAAAAAAAAAAAAAAAAAAAAAAAAAAAAAAAAAAAAAAAAAAAAAAAAAAAAAAAAAAAAAAAAAAAAAAAAAAAAAAAAAAAAAAAAAAAAAAAAAAAAAAAAAAAAAAAAAAAAAAAAAAAAAAAAAAAAAAAAAAAAAAAAAAAAAAAAAAAAAAAAAAAAAAAAAAAAAAAAAAAAAAAAAAAAAAAAAAAAAAAAAAAAAAAAAAAAAAAAAAAAAAAAAAAAAAAAAAAAAAAAAAAAAAAAAAAAAAAAAAAAAAAAAAAAAAAAAAAAAAAAAAAAAAAAAAAAAAAAAAAAAAAAAAAAAAAAAAAAAAAAAAAAAAAAAAAAAAAAAAAAAAAAAAAAAAAAAAAAAAAAAAAAAAAAAAAAAAAAAAAAAAAAAAAAAAAAAAAAAAAAAAAAAAAAAAAAAAAAAAAAAAAAAAAAAAAAAAAAAAAAAAAAAAAAAAAAAAAAAAAAAAAAAAAAAAAAAAAAAAAAAAAAAAAAAAAAAAAAAAAAAAAAAAAAAAAAAAAAAAAAAAAAAAAAAAAAAAAAAAAAAAAAAAAAAAAAAAAAAAAAAAAAAAAAAAAAAAAAAAAAAAAAAAAAAAAAAAAAAAAAAAAAAAAAAAAAAAAAAAAAAAAAAAAAAAAAAAAAAAAAAAAAAAAAAAAAAAAAAAAAAAAAAAAAAAAAAAAAAAAAAAAAAAAAAAAAAAAAAAAAAAAAAAAAAAAAAAAAAAAAAAAAAAAAAAAAAAAAAAAAAAAAAAAAAAAAAAAAAAAAAAAAAAAAAAAAAAAAAAAAAAAAAAAAAAAAAAAAAAAAAAAAAAAAAAAAAAAAAAAAAAAAAAAAAAAAAAAAAAAAAAAAAAAAAAAAAAAAAAAAAAAAAAAAAAAAAAAAAAAAAAAAAAAAAAAAAAAAAAAAAAAAAAAAAAAAAAAAAAAAAAAAAAAAAAAAAAAAAAAAAAAAAAAAAAAAAAAAAAAAAAAAAAAAAAAAAAAAAAAAAAAAAAAAAAAAAAAAAAAAAAAAAAAAAAAAAAAAAAAAAAAAAAAAAAAAAAAAAAAAAAAAAAAAAAAAAAAAAAAAAAAAAAAAAAAAAAAAAAAAAAAAAAAAAAAAAAAAAAAAAAAAAAAAAAAAAAAAAAAAAAAAAAAAAAAAAAAAAAAAAAAAAAAAAAAAAAAAAAAAAAAAAAAAAAAAAAAAAAAAAAAAAAAAAAAAAAAAAAAAAAAAAAAAAAAAAAAAAAAAAAAAAAAAAAAAAAAAAAAAAAAAAAAAAAAAAAAAAAAAAAAAAAAAAAAAAAAAAAAAAAAAAAAAAAAAAAAAAAAAAAAAAAAAAAAAAAAAAAAAAAAAAAAAAAAAAAAAAAAAAAAAAAAAAAAAAAAAAAAAAAAAAAAAAAAAAAAAAAAAAAAAAAAAAAAAAAAAAAAAAAAAAAAAAAAAAAAAAAAAAAAAAAAAAAAAAAAAAAAAAAAAAAAAAAAAAAAAAAAAAAAAAAAAAAAAAAAAAAAAAAAAAAAAAAAAAAAAAAAAAAAAAAAAAAAAAAAAAAAAAAAAAAAAAAAAAAAAAAAAAAAAAAAAAAAAAAAAAAAAAAAAAAAAAAAAAAAAAAAAAAAAAAAAAAAAAAAAAAAAAAAAAAAAAAAAAAAAAAAAAAAAAAAAAAAAAAAAAAAAAAAAAAAAAAAAAAAAAAAAAAAAAAAAAAAAAAAAAAAAAAAAAAAAAAAAAAAAAAAAAAAAAAAAAAAAAAAAAAAAAAAAAAAAAAAAAAAAAAAAAAAAAAAAAAAAAAAAAAAAAAAAAAAAAAAAAAAAAAAAAAAAAAAAAAAAAAAAAAAAAAAAAAAAAAAAAAAAAAAAAAAAAAAAAAAAAAAAAAAAAAAAAAAAAAAAAAAAAAAAAAAAAAAAAAAAAAAAAAAAAAAAAAAAAAAAAAAAAAAAAAAAAAAAAAAAAAAAAAAAAAAAAAAAAAAAAAAAAAAAAAAAAAAAAAAAAAAAAAAAAAAAAAAAAAAAAAAAAAAAAAAAAAAAAAAAAAAAAAAAAAAAAAAAAAAAAAAAAAAAAAAAAAAAAAAAAAAAAAAAAAAAAAAAAAAAAAAAAAAAAAAAAAAAAAAAAAAAAAAAAAAAAAAAAAAAAAAAAAAAAAAAAAAAAAAAAAAAAAAAAAAAAAAAAAAAAAAAAAAAAAAAAAAAAAAAAAAAAAAAAAAAAAAAAAAAAAAAAAAAAAAAAAAAAAAAAAAAAAAAAAAAAAAAAAAAAAAAAAAAAAAAAAAAAAAAAAAAAAAAAAAAAAAAAAAAAAAAAAAAAAAAAAAAAAAAAAAAAAAAAAAAAAAAAAAAAAAAAAAAAAAAAAAAAAAAAAAAAAAAAAAAAAAAAAAAAAAAAAAAAAAAAAAAAAAAAAAAAAAAAAAAAAAAAAAAAAAAAAAAAAAAAAAAAAAAAAAAAAAAAAAAAAAAAAAAAAAAAAAAAAAAAAAAAAAAAAAAAAAAAAAAAAAAAAAAAAAAAAAAAAAAAAAAAAAAAAAAAAAAAAAAAAAAAAAAAAAAAAAAAAAAAAAAAAAAAAAAAAAAAAAAAAAAAAAAAAAAAAAAAAAAAAAAAAAAAAAAAAAAAAAAAAAAAAAAAAAAAAAAAAAAAAAAAAAAAAAAAAAAAAAAAAAAAAAAAAAAAAAAAAAAAAAAAAAAAAAAAAAAAAAAAAAAAAAAAAAAAAAAAAAAAAAAAAAAAAAAAAAAAAAAAAAAAAAAAAAAAAAAAAAAAAAAAAAAAAAAAAAAAAAAAAAAAAAAAAAAAAAAAAAAAAAAAAAAAAAAAAAAAAAAAAAAAAAAAAAAAAAAAAAAAAAAAAAAAAAAAAAAAAAAAAAAAAAAAAAAAAAAAAAAAAAAAAAAAAAAAAAAAAAAAAAAAAAAAAAAAAAAAAAAAAAAAAAAAAAAAAAAAAAAAAAAAAAAAAAAAAAAAAAAAAAAAAAAAAAAAAAAAAAAAAAAAAAAAAAAAAAAAAAAAAAAAAAAAAAAAAAAAAAAAAAAAAAAAAAA9lhAjFJYYJufYd7vOJDAfJexX44ZjyrowBdecGowjtEZEe+7punWxp9XbViofJ4oqJBMEP84ldjLvRUkNz7Ne5zuCQ==</c2pa:manifest></metadata>
  <defs>
    <style>
      .cls-1 {
        fill: #fc8c7e;
      }

      .cls-2 {
        fill: #fea791;
      }

      .cls-3 {
        fill: #ff6f6b;
      }

      .cls-4 {
        fill: #fffcf5;
      }

      .cls-5 {
        fill: #ff9784;
      }

      .cls-6 {
        fill: #f45b5f;
      }

      .cls-7 {
        fill: #ffc0a4;
      }

      .cls-8 {
        fill: #ff9885;
      }

      .cls-9 {
        fill: #db6867;
      }

      .cls-10 {
        fill: #ffbfa3;
      }

      .cls-11 {
        fill: #dc615c;
      }

      .cls-12 {
        fill: #fc8c7d;
      }

      .cls-13 {
        fill: #ffa992;
      }

      .cls-14 {
        fill: #ffcdb7;
      }

      .cls-15 {
        fill: #dc5c59;
      }

      .cls-16 {
        fill: #ffb5ac;
      }

      .cls-17 {
        fill: #f28b76;
      }

      .cls-18 {
        fill: #ed7c72;
      }

      .cls-19 {
        fill: #eb6f6b;
      }

      .cls-20 {
        fill: #ffaa91;
      }

      .cls-21 {
        fill: #ff9582;
      }
    </style>
  </defs>
  <g id="Layer_1-2" data-name="Layer 1">
    <g id="Generative_Object" data-name="Generative Object">
      <path class="cls-4" d="M41.21,56.11c-1.6,3.45-2.34,7.02-1.41,10.9l1.71,7.17,4.62,23.71h-20.28c-.04-.3.03-.58.1-.95l2.76-15.39c.85-4.74,1.83-9.31,2.96-13.99s.06-8.52-2.07-12.52l6.74,4.64c1.69-1.14,3.32-2.3,4.86-3.56Z"/>
      <path class="cls-5" d="M45.23,55.19c-1.17,2.99-1.63,6.23-1.03,9.47l2.5,8.55,7.25,24.68h-7.82s-4.62-23.71-4.62-23.71l-1.71-7.17c-.93-3.88-.19-7.44,1.41-10.9l4.53-3.68,1.01-.84-1,1.88-.56,1.34c-.04.09-.06.14-.11.2-.06.07.02.21.15.18Z"/>
      <path class="cls-21" d="M57.2,6.16c0,1.02.12,2.08.78,2.87-.12.02-.21.06-.23.12-.02.08-.05.23,0,.33l.4.83,1.13,2.38c-.28-.02-.49-.21-.73-.36-1.8-1.14-3.77-1.84-5.89-2.18-.12-.09-.2-.13-.22-.18l-.1-.32-1.34-2.94-.11.07.82,2.04c.17.41.49.71.55,1.28-1.85-.2-3.62-.08-5.33.31-1.24-2.2-2.03-5.88.11-7.27,1.59-1.03,2.54,1.34,3.59,2.8-.7-2.05-1.02-4.67.8-5.72.59-.34,1.29-.24,1.69.32l4.08,5.65Z"/>
      <path class="cls-8" d="M21.86,4.03c-.17,1.12-.58,2.15-.92,3.36l2.41-3.07c.55-.7,1.51-.54,2.11.14,1.45,1.67.28,4.62-.68,6.61-1.86-.37-3.76-.35-5.65.05l-.07-.33c.24.03.27-.22.33-.34l.77-1.44s-.08-.07-.08-.07c-.41.68-1.02,1.57-1.03,1.85l-.35.44c-2.67.63-5.01,2-6.92,3.85-.08.06-.26.18-.33.11-.09-.1-.05-.36,0-.45l.19-.3c.06-.09.04-.32-.14-.33.44-.99,1.66-2.33,2.61-4.89.02-.05-.04-.13-.06-.14.37-.85.69-1.81.68-2.77l3.06-3.88c.11-.09.24,0,.19.14l-.73,1.88c-.56,1.43-.91,3.4.17,3.88.43.19.91.12,1.34-.11,2.57-1.44,2.94-4.22,2.89-4.17.04-.04.16-.02.2-.01Z"/>
      <path class="cls-20" d="M21.86,4.03s-.16-.02-.2.01c.05-.05-.32,2.73-2.89,4.17-.42.24-.91.3-1.34.11-1.08-.48-.72-2.45-.17-3.88l.73-1.88c.05-.14-.08-.23-.19-.14.45-.59.83-1.28,1.41-1.86.5-.49,1.23-.3,1.75.17.91.83,1.07,2.12.89,3.29Z"/>
      <path class="cls-14" d="M2.28,33.34l-.84-1.73-.84-1.73c-.04-.08.08-.31.02-.38-.05-.06-.15-.12-.23-.16-.29-.42-.46-1.06-.37-1.53.23.01.32-.32.52-.44,1.23-.72,3.07,1.27,3.71,2.86-.24.16-.02.21.06.19.09-.02-.06.25-.08.29.21.21.49.53.49.88,0,.84-1.2,1.29-2.38,1.45.05.13.09.26-.06.29Z"/>
      <path class="cls-9" d="M11.79,15.08c.06.35-.43.45-.58.66l-1.7,2.47c-.76,1.1-1.19,2.4-1.52,3.73-.74,2.93-.63,5.87.11,8.72.02.07.23.17.21.23-.02.05.06.15-.13.2-1.71-2.39-3.55-4.49-6.73-4.28,1.6-.4,2.97.19,4.35,1.29,1-2.66,1.72-5.42,2.14-8.27l.63-.78,2.14-3.08.82-1.85c.18.01.2.24.14.33l-.19.3c-.06.09-.1.35,0,.45.06.07.25-.05.33-.11Z"/>
      <path class="cls-13" d="M11.52,14.11l-.82,1.85-2.14,3.08c-.25-.03-.36.17-.62.25.03-.62.34-1.05.61-1.53.84-1.56,1.39-3.22,1.63-4.9,1.53-.91,2.64-2.14,3.58-3.55.1-.14.19-.25.31-.25.02.02.08.09.06.14-.95,2.56-2.17,3.9-2.61,4.89Z"/>
      <g>
        <path class="cls-7" d="M14.75,6.31c.01.95-.31,1.92-.68,2.77-.11,0-.21.1-.31.25-.94,1.4-2.05,2.64-3.58,3.55-.24,1.68-.79,3.33-1.63,4.9-.26.49-.57.91-.61,1.53.26-.08.36-.29.62-.25l-.63.78c-.42,2.86-1.14,5.61-2.14,8.27-1.38-1.1-2.75-1.69-4.35-1.29,3.18-.2,5.02,1.9,6.73,4.28,1.01,1.38,1.49,2.93,1.97,4.61.74,2.59,2.2,4.85,3.93,6.86.55.64,1.17,1,1.92,1.3,2.15.83,4.04,2.05,5.74,3.65,1.44,1.34,2.62,2.76,3.74,4.34l4.13,3.16c2.13,4,3.2,7.87,2.07,12.52s-2.11,9.25-2.96,13.99l-2.76,15.39c-.07.37-.13.65-.1.95H2.96s12.49-31.11,12.49-31.11c-.31-2.61-2.25-5.18-3.77-7.34l-5.97-8.46c-1.25-1.77-1.91-3.61-2.4-5.72l-2.05-8.75c-.47-2.02-.5-4.99-.85-7.16.08.04.19.1.23.16.06.07-.06.3-.02.38l.84,1.73c.08,1.8.13,3.72.97,5.42l1.8,3.62.86,1.8,3.19,7c-.32-1.79-1.06-3.42-1.79-5.11l-1.72-3.98-.72-1.65c.63-.19,1.02-.39,1.46-.83.13-.13.55-.19.45-.59l-.39.29c-.48.36-.88.65-1.48,1-.13-.01-.33-.38-.32-.64l1.61-.85c.23-.12.61-.1.74-.46-1.08.23-2.3,1.24-2.5.99-.23-.29.25-.3.51-.68.11,0,.36-.11.37-.26-.24-.14-.31.14-.37.26-.18.03-.41.17-.65.23l-1.19-3.84c.15-.03.11-.16.06-.29,1.18-.16,2.38-.61,2.38-1.45,0-.35-.28-.67-.49-.88.01-.04.17-.31.08-.29-.08.02-.3-.03-.06-.19-.65-1.59-2.48-3.58-3.71-2.86-.2.12-.29.45-.52.44.02-.09.24-.26.25-.35.22-2.17.73-4.35,1.27-6.48.34-1.31.71-2.49,1.39-3.69,1.66-2.95,3.39-5.74,5.43-8.47l3.74-5c.39-.52,1.04-.58,1.58-.15.78.62,1.06,1.67,1.07,2.64Z"/>
        <path class="cls-1" d="M2.28,33.34l1.19,3.84c.24-.06.47-.2.65-.23-.26.39-.74.39-.51.68.19.25,1.42-.76,2.5-.99-.13.36-.51.34-.74.46l-1.61.85c0,.26.19.63.32.64.6-.35.99-.64,1.48-1l.39-.29c.1.4-.32.46-.45.59-.44.44-.83.64-1.46.83l.72,1.65c-.14,0-.3-.04-.45-.01-.1.02-.12.18-.1.3l-1.8-3.62c-.84-1.7-.89-3.62-.97-5.42l.84,1.73Z"/>
        <path class="cls-19" d="M4.77,40.36l1.72,3.98c.73,1.69,1.46,3.31,1.79,5.11l-3.19-7-.86-1.8c-.02-.11,0-.28.1-.3.15-.03.31.02.45.01Z"/>
        <path class="cls-11" d="M28.53,58.1c.11.39.2.78,0,1.1-.39-2.59-1.51-4.72-2.82-6.93,1.43,1.64,2.24,3.75,2.81,5.83Z"/>
        <path class="cls-12" d="M4.13,36.94c.06-.12.13-.4.37-.26,0,.15-.26.25-.37.26Z"/>
      </g>
      <path class="cls-6" d="M65.07,25.49c-.11-.02-.35-.04-.46.06-.1,1.55-.4,3.05-.76,4.68.31-.03.4-.47.52-.65l.31-.02c-.08.07-.11.14-.08.22-1.27,1.63-1.99,3.48-2.31,5.54-.78,2.56-2.09,4.87-3.85,6.86-.53.6-1.17.9-1.87,1.2-1.63.69-3.1,1.56-4.5,2.65-.22.17-.38.43-.65.5-.13-.34.26-.43.48-.62l1.06-.94s-.09-.15-.08-.19c.02-.06.25-.06.3-.12,1.93-2.09,3.64-4.27,5.14-6.68,1.63-2.61,2.69-5.36,3.27-8.38.74-3.83.32-7.57-1.26-11l-1.83-3.05c-.1-.16-.31-.32-.28-.58.04-.31.26-.45.65-.49.49-.37.98-.7,1.03-1.14.4.07.74-.06,1.05-.28l.41-.27c.11-.07.21.15.14.2l-.29.18-.91.45c2.36,2.29,3.82,5.23,4.19,8.5.13,1.18.26,2.29.58,3.38Z"/>
      <path class="cls-2" d="M60.97,13.06c-.32.21-.65.34-1.05.28-.24-.17-.52-.38-.65-.65l-1.13-2.38-.4-.83c-.05-.1-.02-.25,0-.33.02-.05.11-.09.23-.12l1.33,1.59,1.95,1.85c-.26.2-.28.42-.29.59Z"/>
      <path class="cls-18" d="M65.07,25.49c.26.88.26,1.85.73,2.77l-1.11,1.3-.31.02c-.13.18-.21.62-.52.65.36-1.63.65-3.12.76-4.68.11-.1.35-.08.46-.06Z"/>
      <g>
        <path class="cls-3" d="M59.27,12.68c.13.27.4.48.65.65-.05.44-.54.77-1.03,1.14-.39.04-.62.18-.65.49-.03.26.18.42.28.58l1.83,3.05c1.58,3.44,2,7.17,1.26,11-.58,3.02-1.64,5.77-3.27,8.38-1.5,2.41-3.21,4.59-5.14,6.68-.06.06-.29.06-.3.12-.01.04.11.16.08.19l-1.06.94c-.22.19-.61.29-.48.62-2.66,2.38-4.98,5.33-6.2,8.65-.14.03-.21-.11-.15-.18.04-.05.07-.11.11-.2l.56-1.34,1-1.88-1.01.84-4.53,3.68c-1.55,1.26-3.17,2.41-4.86,3.56l-6.74-4.64-4.13-3.16c-1.11-1.58-2.29-3.01-3.74-4.34-1.69-1.6-3.59-2.82-5.74-3.65-.76-.29-1.37-.66-1.92-1.3-1.73-2.01-3.19-4.27-3.93-6.86-.48-1.68-.96-3.23-1.97-4.61.19-.05.11-.14.13-.2.02-.07-.19-.17-.21-.23-.74-2.85-.85-5.79-.11-8.72.33-1.33.77-2.63,1.52-3.73l1.7-2.47c.15-.21.64-.31.58-.66,1.91-1.85,4.26-3.22,6.92-3.85l.35-.44.07.33c1.89-.4,3.78-.42,5.65-.05,4.9.97,8.74,4.34,11.04,9.04,2.14-4.9,6.04-8.55,11.12-9.71,1.71-.39,3.48-.51,5.33-.31-.07-.57-.39-.86-.55-1.28l-.82-2.04.11-.07,1.34,2.94.1.32c.02.05.1.09.22.18,2.12.34,4.09,1.04,5.89,2.18.25.16.45.34.73.36Z"/>
        <path class="cls-16" d="M13.01,29.46c-.72-1.37-.32-2.85.87-3.29.62-.23,1.29-.16,1.79.25l1.04.86c.31-.97.98-1.82,2-1.92,1.21-.12,2.2.81,2.43,1.99.39,1.97-.76,4.26-2.84,4.73s-4.3-.76-5.27-2.62Z"/>
      </g>
      <path class="cls-3" d="M19.06,10.79c0-.28.62-1.17,1.03-1.85,0,0,.06.07.08.07l-.77,1.44c-.06.11-.09.37-.33.34Z"/>
      <g>
        <path class="cls-10" d="M69.46,97.88h-15.51s-7.25-24.68-7.25-24.68l-2.5-8.55c-.6-3.24-.15-6.48,1.03-9.47,1.23-3.32,3.54-6.28,6.2-8.65.26-.07.43-.33.65-.5,1.41-1.09,2.87-1.96,4.5-2.65.7-.3,1.34-.59,1.87-1.2,1.76-2,3.07-4.3,3.85-6.86.32-2.06,1.03-3.92,2.31-5.54-.03-.08,0-.15.08-.22l1.11-1.3c-.47-.92-.46-1.89-.73-2.77-.32-1.09-.45-2.2-.58-3.38-.37-3.28-1.82-6.22-4.19-8.5l.91-.45.29-.18c.07-.04-.03-.27-.14-.2l-.41.27c0-.17.03-.39.29-.59l-1.95-1.85-1.33-1.59c-.66-.79-.79-1.85-.78-2.87s.35-2.09,1.24-2.65c.57-.36,1.17-.27,1.53.22l2.33,3.25c1.99,2.78,3.76,5.59,5.46,8.57.64,1.13,1.26,2.17,1.65,3.38.8,2.47,1.32,4.95,1.89,7.5,1.72.89-.44,2.71-.54,5.57-.07,2.11-.5,4.07-1,6.11l-1.8,7.24c-.48,1.93-1.07,3.69-2.21,5.36l-5.96,8.73c-1.41,2.07-3.58,5.01-3.52,7.24l13.19,31.2Z"/>
        <path class="cls-15" d="M69.2,36.11c.03.27-.03.5-.15.82l-4.68,12.17h-.18s1.31-3.58,1.31-3.58l2.91-7.34-.85-.43c-.31-.15-.61-.26-.77-.62l1.54.78c.14.05.44-.34.33-.46-.65-.73-1.94-.85-2.23-1.51.87.36,1.59.74,2.34,1.28.19-.45.21-.85.44-1.12Z"/>
        <path class="cls-17" d="M70.67,26.22c-1.46-.25-2.72.33-3.87,1.14-.26.18-.42.55-.82.5.81-.81,1.82-1.47,2.96-1.78l1.82-.02c.29.14.02.39-.1.16Z"/>
        <path class="cls-15" d="M69.2,36.11c-.04-.33-.02-.66.23-.94.08.38-.03.71-.23.94Z"/>
        <path class="cls-15" d="M66.78,37.14c-.24-.1-.61-.19-.63-.65.26.21.52.4.63.65Z"/>
      </g>
    </g>
  </g>
</svg>