<svg xmlns="http://www.w3.org/2000/svg" viewBox="0 0 60 96">
  <ellipse cx="30" cy="52" rx="17" ry="20" fill="#c96f2e" opacity=".18"/>
  <path d="M30 6 C37 22 48 30 48 52 A18 18 0 0 1 12 52 C12 30 23 22 30 6 Z" fill="#c96f2e"/>
  <path d="M30 28 C34 38 40 42 40 54 A10 10 0 0 1 20 54 C20 42 26 38 30 28 Z" fill="#f2b134"/>
  <path d="M30 44 c2.5 5 5 6.5 5 11 a5 5 0 0 1 -10 0 c0-4.5 2.5-6 5-11z" fill="#fbe3a8"/>
  <path d="M14 62 h32 l-4 12 H18 Z" fill="#5a2c16"/>
  <ellipse cx="30" cy="62" rx="16" ry="4" fill="#3a1c0e"/>
  <circle cx="24" cy="56" r="2.2" fill="#ffc46b"/>
  <circle cx="33" cy="58" r="1.8" fill="#ff9a3c"/>
  <path d="M22 78 h16" stroke="#5a2c16" stroke-width="3" stroke-linecap="round"/>
</svg>
